M48
; DRILL file {KiCad 9.0.1} date 2025-07-14T13:59:48-0500
; FORMAT={-:-/ absolute / metric / decimal}
; #@! TF.CreationDate,2025-07-14T13:59:48-05:00
; #@! TF.GenerationSoftware,Kicad,Pcbnew,9.0.1
; #@! TF.FileFunction,Plated,1,2,PTH
FMAT,2
METRIC
; #@! TA.AperFunction,Plated,PTH,ViaDrill
T1C0.300
; #@! TA.AperFunction,Plated,PTH,ViaDrill
T2C0.500
; #@! TA.AperFunction,Plated,PTH,ComponentDrill
T3C1.000
; #@! TA.AperFunction,Plated,PTH,ComponentDrill
T4C1.100
%
G90
G05
T1
X117.0Y-55.0
X117.5Y-59.5
X117.5Y-60.5
X117.5Y-61.5
X118.0Y-55.0
X118.5Y-59.5
X118.5Y-60.5
X118.5Y-61.5
X119.0Y-55.0
X120.0Y-55.0
X121.0Y-55.0
X122.0Y-55.0
X136.8Y-71.2
X136.8Y-72.2
X137.8Y-71.2
X137.8Y-72.2
X138.8Y-71.2
X138.8Y-72.2
X170.0Y-62.5
X170.0Y-63.5
X170.0Y-64.5
X171.0Y-62.5
X171.0Y-63.5
X171.0Y-64.5
X184.0Y-55.5
X184.0Y-56.5
X184.0Y-57.5
X185.0Y-55.5
X185.0Y-56.5
X185.0Y-57.5
T2
X128.2Y-65.4
X128.2Y-70.2
X128.2Y-72.6
X151.8Y-65.0
X151.8Y-67.6
X151.8Y-70.0
X151.8Y-72.6
T3
X156.5Y-56.5
X159.04Y-56.5
X161.58Y-56.5
X164.12Y-56.5
X166.66Y-56.5
X169.2Y-56.5
X171.74Y-56.5
X174.28Y-56.5
X176.82Y-56.5
X179.36Y-56.5
T4
X101.75Y-56.678
X101.75Y-61.178
X101.75Y-71.75
X101.75Y-76.25
X108.25Y-56.678
X108.25Y-61.178
X108.25Y-71.75
X108.25Y-76.25
X159.75Y-64.25
X159.75Y-68.75
X166.25Y-64.25
X166.25Y-68.75
X176.25Y-64.25
X176.25Y-68.75
X182.75Y-64.25
X182.75Y-68.75
M30
