%TF.GenerationSoftware,KiCad,Pcbnew,9.0.1*%
%TF.CreationDate,2025-07-14T13:59:50-05:00*%
%TF.ProjectId,Cardbot Controller,43617264-626f-4742-9043-6f6e74726f6c,rev?*%
%TF.SameCoordinates,Original*%
%TF.FileFunction,Copper,L2,Bot*%
%TF.FilePolarity,Positive*%
%FSLAX46Y46*%
G04 Gerber Fmt 4.6, Leading zero omitted, Abs format (unit mm)*
G04 Created by KiCad (PCBNEW 9.0.1) date 2025-07-14 13:59:50*
%MOMM*%
%LPD*%
G01*
G04 APERTURE LIST*
%TA.AperFunction,ComponentPad*%
%ADD10C,2.000000*%
%TD*%
%TA.AperFunction,ComponentPad*%
%ADD11R,1.700000X1.700000*%
%TD*%
%TA.AperFunction,ComponentPad*%
%ADD12C,1.700000*%
%TD*%
%TA.AperFunction,ViaPad*%
%ADD13C,1.000000*%
%TD*%
%TA.AperFunction,ViaPad*%
%ADD14C,0.600000*%
%TD*%
%TA.AperFunction,Conductor*%
%ADD15C,0.200000*%
%TD*%
G04 APERTURE END LIST*
D10*
%TO.P,SW1,1,1*%
%TO.N,Net-(J1-Pin_3)*%
X101750000Y-56678000D03*
X108250000Y-56678000D03*
%TO.P,SW1,2,2*%
%TO.N,Net-(U1-PA02_A0_D0)*%
X101750000Y-61178000D03*
X108250000Y-61178000D03*
%TD*%
D11*
%TO.P,J1,1,Pin_1*%
%TO.N,Net-(J1-Pin_1)*%
X156500000Y-56500000D03*
D12*
%TO.P,J1,2,Pin_2*%
X159040000Y-56500000D03*
%TO.P,J1,3,Pin_3*%
%TO.N,Net-(J1-Pin_3)*%
X161580000Y-56500000D03*
%TO.P,J1,4,Pin_4*%
%TO.N,Net-(J1-Pin_4)*%
X164120000Y-56500000D03*
%TO.P,J1,5,Pin_5*%
%TO.N,Net-(J1-Pin_5)*%
X166660000Y-56500000D03*
%TO.P,J1,6,Pin_6*%
%TO.N,Net-(J1-Pin_6)*%
X169200000Y-56500000D03*
%TO.P,J1,7,Pin_7*%
%TO.N,Net-(J1-Pin_7)*%
X171740000Y-56500000D03*
%TO.P,J1,8,Pin_8*%
%TO.N,Net-(J1-Pin_8)*%
X174280000Y-56500000D03*
%TO.P,J1,9,Pin_9*%
%TO.N,Net-(J1-Pin_9)*%
X176820000Y-56500000D03*
%TO.P,J1,10,Pin_10*%
%TO.N,Net-(J1-Pin_10)*%
X179360000Y-56500000D03*
%TD*%
D10*
%TO.P,SW4,1,1*%
%TO.N,Net-(J1-Pin_3)*%
X176250000Y-64250000D03*
X182750000Y-64250000D03*
%TO.P,SW4,2,2*%
%TO.N,Net-(U1-PA10_A2_D2)*%
X176250000Y-68750000D03*
X182750000Y-68750000D03*
%TD*%
%TO.P,SW3,1,1*%
%TO.N,Net-(J1-Pin_3)*%
X159750000Y-64250000D03*
X166250000Y-64250000D03*
%TO.P,SW3,2,2*%
%TO.N,Net-(U1-PA8_A4_D4_SDA)*%
X159750000Y-68750000D03*
X166250000Y-68750000D03*
%TD*%
%TO.P,SW2,1,1*%
%TO.N,Net-(J1-Pin_3)*%
X101750000Y-71750000D03*
X108250000Y-71750000D03*
%TO.P,SW2,2,2*%
%TO.N,Net-(U1-PA4_A1_D1)*%
X101750000Y-76250000D03*
X108250000Y-76250000D03*
%TD*%
D13*
%TO.N,Net-(J1-Pin_10)*%
X128200000Y-72600000D03*
%TO.N,Net-(J1-Pin_9)*%
X128200000Y-70200000D03*
%TO.N,Net-(J1-Pin_7)*%
X151800000Y-72600000D03*
%TO.N,Net-(J1-Pin_4)*%
X151800000Y-65000000D03*
%TO.N,Net-(J1-Pin_6)*%
X151800000Y-70000000D03*
%TO.N,Net-(J1-Pin_8)*%
X128200000Y-65400000D03*
%TO.N,Net-(J1-Pin_5)*%
X151800000Y-67600000D03*
D14*
%TO.N,Net-(J1-Pin_1)*%
X184000000Y-57500000D03*
X117500000Y-60500000D03*
X120000000Y-55000000D03*
X171000000Y-63500000D03*
X185000000Y-57500000D03*
X137800000Y-71200000D03*
X118000000Y-55000000D03*
X171000000Y-64500000D03*
X171000000Y-62500000D03*
X121000000Y-55000000D03*
X170000000Y-62500000D03*
X185000000Y-56500000D03*
X185000000Y-55500000D03*
X170000000Y-64500000D03*
X118500000Y-59500000D03*
X170000000Y-63500000D03*
X138800000Y-72200000D03*
X117500000Y-59500000D03*
X117000000Y-55000000D03*
X138800000Y-71200000D03*
X118500000Y-61500000D03*
X119000000Y-55000000D03*
X184000000Y-56500000D03*
X117500000Y-61500000D03*
X136800000Y-72200000D03*
X137800000Y-72200000D03*
X184000000Y-55500000D03*
X136800000Y-71200000D03*
X118500000Y-60500000D03*
X122000000Y-55000000D03*
%TD*%
D15*
%TO.N,Net-(J1-Pin_10)*%
X155495300Y-61406000D02*
X162616600Y-61406000D01*
X168538300Y-61403000D02*
X168539300Y-61402000D01*
X172487100Y-61400000D02*
X174460000Y-61400000D01*
X153804000Y-68997186D02*
X154205000Y-68596186D01*
X153403000Y-71231086D02*
X153804000Y-70830086D01*
X154206000Y-62695300D02*
X155495300Y-61406000D01*
X154205000Y-68596186D02*
X154205000Y-66563286D01*
X162616600Y-61406000D02*
X162617600Y-61405000D01*
X154606000Y-63837714D02*
X154206000Y-63437714D01*
X170513200Y-61401000D02*
X172486100Y-61401000D01*
X168539300Y-61402000D02*
X170512200Y-61402000D01*
X166565400Y-61403000D02*
X168538300Y-61403000D01*
X152463986Y-74203000D02*
X153403000Y-73263986D01*
X154205000Y-66563286D02*
X154606000Y-66162286D01*
X128200000Y-72600000D02*
X129200000Y-71600000D01*
X153804000Y-70830086D02*
X153804000Y-68997186D01*
X154606000Y-66162286D02*
X154606000Y-63837714D01*
X172486100Y-61401000D02*
X172487100Y-61400000D01*
X154206000Y-63437714D02*
X154206000Y-62695300D01*
X170512200Y-61402000D02*
X170513200Y-61401000D01*
X132268800Y-74203000D02*
X152463986Y-74203000D01*
X153403000Y-73263986D02*
X153403000Y-71231086D01*
X129665800Y-71600000D02*
X132268800Y-74203000D01*
X129200000Y-71600000D02*
X129665800Y-71600000D01*
X162617600Y-61405000D02*
X166563400Y-61405000D01*
X174460000Y-61400000D02*
X179360000Y-56500000D01*
X166563400Y-61405000D02*
X166565400Y-61403000D01*
%TO.N,Net-(J1-Pin_9)*%
X152297886Y-73802000D02*
X153002000Y-73097886D01*
X168373200Y-61001000D02*
X170346100Y-61001000D01*
X153804000Y-68430086D02*
X153804000Y-66397186D01*
X172320000Y-61000000D02*
X176820000Y-56500000D01*
X166399300Y-61002000D02*
X168372200Y-61002000D01*
X153002000Y-73097886D02*
X153002000Y-71064986D01*
X166397300Y-61004000D02*
X166399300Y-61002000D01*
X162450500Y-61005000D02*
X162451500Y-61004000D01*
X170347100Y-61000000D02*
X172320000Y-61000000D01*
X153002000Y-71064986D02*
X153403000Y-70663986D01*
X128200000Y-70200000D02*
X128832900Y-70200000D01*
X153805000Y-63603814D02*
X153805000Y-62529200D01*
X153805000Y-62529200D02*
X155329200Y-61005000D01*
X162451500Y-61004000D02*
X166397300Y-61004000D01*
X128832900Y-70200000D02*
X132434900Y-73802000D01*
X153403000Y-68831086D02*
X153804000Y-68430086D01*
X155329200Y-61005000D02*
X162450500Y-61005000D01*
X154205000Y-64003814D02*
X153805000Y-63603814D01*
X168372200Y-61002000D02*
X168373200Y-61001000D01*
X132434900Y-73802000D02*
X152297886Y-73802000D01*
X154205000Y-65996186D02*
X154205000Y-64003814D01*
X153804000Y-66397186D02*
X154205000Y-65996186D01*
X153403000Y-70663986D02*
X153403000Y-68831086D01*
X170346100Y-61001000D02*
X170347100Y-61000000D01*
%TO.N,Net-(J1-Pin_7)*%
X153403000Y-65663986D02*
X153403000Y-64336014D01*
X152200000Y-72200000D02*
X152200000Y-70732786D01*
X162118300Y-60203000D02*
X162119300Y-60202000D01*
X153002000Y-66064986D02*
X153403000Y-65663986D01*
X153403000Y-64336014D02*
X153003000Y-63936014D01*
X166067100Y-60200000D02*
X168040000Y-60200000D01*
X151800000Y-72600000D02*
X152200000Y-72200000D01*
X152200000Y-70732786D02*
X152601000Y-70331786D01*
X152601000Y-70331786D02*
X152601000Y-68498886D01*
X166065100Y-60202000D02*
X166067100Y-60200000D01*
X162119300Y-60202000D02*
X166065100Y-60202000D01*
X153003000Y-63936014D02*
X153003000Y-62197000D01*
X154997000Y-60203000D02*
X162118300Y-60203000D01*
X168040000Y-60200000D02*
X171740000Y-56500000D01*
X153003000Y-62197000D02*
X154997000Y-60203000D01*
X152601000Y-68498886D02*
X153002000Y-68097886D01*
X153002000Y-68097886D02*
X153002000Y-66064986D01*
%TO.N,Net-(J1-Pin_4)*%
X161620000Y-59000000D02*
X164120000Y-56500000D01*
X151800000Y-65000000D02*
X151800000Y-61600000D01*
X151800000Y-61600000D02*
X154400000Y-59000000D01*
X154400000Y-59000000D02*
X161620000Y-59000000D01*
%TO.N,Net-(J1-Pin_6)*%
X152200000Y-69600000D02*
X151800000Y-70000000D01*
X161953200Y-59801000D02*
X161952200Y-59802000D01*
X161952200Y-59802000D02*
X154798000Y-59802000D01*
X152602000Y-61998000D02*
X152602000Y-64102114D01*
X169200000Y-56500000D02*
X165899000Y-59801000D01*
X153002000Y-64502114D02*
X153002000Y-65497886D01*
X165899000Y-59801000D02*
X161953200Y-59801000D01*
X152601000Y-65898886D02*
X152601000Y-67931786D01*
X152601000Y-67931786D02*
X152200000Y-68332786D01*
X153002000Y-65497886D02*
X152601000Y-65898886D01*
X152200000Y-68332786D02*
X152200000Y-69600000D01*
X154798000Y-59802000D02*
X152602000Y-61998000D01*
X152602000Y-64102114D02*
X153002000Y-64502114D01*
%TO.N,Net-(J1-Pin_8)*%
X155163100Y-60604000D02*
X162284400Y-60604000D01*
X166231200Y-60603000D02*
X166233200Y-60601000D01*
X153403000Y-68263986D02*
X153403000Y-66231086D01*
X170180000Y-60600000D02*
X174280000Y-56500000D01*
X162284400Y-60604000D02*
X162285400Y-60603000D01*
X168207100Y-60600000D02*
X170180000Y-60600000D01*
X153404000Y-62363100D02*
X155163100Y-60604000D01*
X162285400Y-60603000D02*
X166231200Y-60603000D01*
X153804000Y-64169914D02*
X153404000Y-63769914D01*
X132601000Y-73401000D02*
X152131786Y-73401000D01*
X152601000Y-70898886D02*
X153002000Y-70497886D01*
X153002000Y-70497886D02*
X153002000Y-68664986D01*
X166233200Y-60601000D02*
X168206100Y-60601000D01*
X128200000Y-69000000D02*
X132601000Y-73401000D01*
X168206100Y-60601000D02*
X168207100Y-60600000D01*
X152131786Y-73401000D02*
X152601000Y-72931786D01*
X152601000Y-72931786D02*
X152601000Y-70898886D01*
X128200000Y-65400000D02*
X128200000Y-69000000D01*
X153002000Y-68664986D02*
X153403000Y-68263986D01*
X153404000Y-63769914D02*
X153404000Y-62363100D01*
X153403000Y-66231086D02*
X153804000Y-65830086D01*
X153804000Y-65830086D02*
X153804000Y-64169914D01*
%TO.N,Net-(J1-Pin_5)*%
X161787100Y-59400000D02*
X161786100Y-59401000D01*
X161786100Y-59401000D02*
X154566100Y-59401000D01*
X166660000Y-56500000D02*
X163760000Y-59400000D01*
X152201000Y-61766100D02*
X152201000Y-64268214D01*
X154566100Y-59401000D02*
X152201000Y-61766100D01*
X152601000Y-64668214D02*
X152601000Y-65331786D01*
X152601000Y-65331786D02*
X152200000Y-65732786D01*
X152200000Y-67200000D02*
X151800000Y-67600000D01*
X163760000Y-59400000D02*
X161787100Y-59400000D01*
X152200000Y-65732786D02*
X152200000Y-67200000D01*
X152201000Y-64268214D02*
X152601000Y-64668214D01*
%TD*%
%TA.AperFunction,Conductor*%
%TO.N,Net-(J1-Pin_1)*%
G36*
X133442539Y-53520185D02*
G01*
X133488294Y-53572989D01*
X133499500Y-53624500D01*
X133499500Y-67934108D01*
X133499500Y-68065892D01*
X133503985Y-68082629D01*
X133533608Y-68193187D01*
X133559357Y-68237785D01*
X133599500Y-68307314D01*
X133692686Y-68400500D01*
X133806814Y-68466392D01*
X133934108Y-68500500D01*
X133934110Y-68500500D01*
X146065890Y-68500500D01*
X146065892Y-68500500D01*
X146193186Y-68466392D01*
X146307314Y-68400500D01*
X146400500Y-68307314D01*
X146466392Y-68193186D01*
X146500500Y-68065892D01*
X146500500Y-53624500D01*
X146520185Y-53557461D01*
X146572989Y-53511706D01*
X146624500Y-53500500D01*
X186434108Y-53500500D01*
X186496754Y-53500500D01*
X186503244Y-53500670D01*
X186807046Y-53516592D01*
X186819953Y-53517949D01*
X186951089Y-53538718D01*
X187117209Y-53565028D01*
X187129896Y-53567724D01*
X187420625Y-53645625D01*
X187432965Y-53649635D01*
X187713938Y-53757490D01*
X187725790Y-53762767D01*
X187993968Y-53899411D01*
X188005199Y-53905896D01*
X188257608Y-54069812D01*
X188268109Y-54077441D01*
X188502010Y-54266850D01*
X188511655Y-54275535D01*
X188724464Y-54488344D01*
X188733149Y-54497989D01*
X188922558Y-54731890D01*
X188930187Y-54742391D01*
X189094101Y-54994796D01*
X189100591Y-55006036D01*
X189237231Y-55274206D01*
X189242510Y-55286064D01*
X189350363Y-55567033D01*
X189354374Y-55579376D01*
X189432273Y-55870097D01*
X189434971Y-55882794D01*
X189482050Y-56180046D01*
X189483407Y-56192953D01*
X189499330Y-56496756D01*
X189499500Y-56503246D01*
X189499500Y-76496753D01*
X189499330Y-76503243D01*
X189483407Y-76807046D01*
X189482050Y-76819953D01*
X189434971Y-77117205D01*
X189432273Y-77129902D01*
X189354374Y-77420623D01*
X189350363Y-77432966D01*
X189242510Y-77713935D01*
X189237231Y-77725793D01*
X189100591Y-77993963D01*
X189094101Y-78005203D01*
X188930187Y-78257608D01*
X188922558Y-78268109D01*
X188733149Y-78502010D01*
X188724464Y-78511655D01*
X188511655Y-78724464D01*
X188502010Y-78733149D01*
X188268109Y-78922558D01*
X188257608Y-78930187D01*
X188005203Y-79094101D01*
X187993963Y-79100591D01*
X187725793Y-79237231D01*
X187713935Y-79242510D01*
X187432966Y-79350363D01*
X187420623Y-79354374D01*
X187129902Y-79432273D01*
X187117205Y-79434971D01*
X186819953Y-79482050D01*
X186807046Y-79483407D01*
X186503244Y-79499330D01*
X186496754Y-79499500D01*
X98503246Y-79499500D01*
X98496756Y-79499330D01*
X98192953Y-79483407D01*
X98180046Y-79482050D01*
X97882794Y-79434971D01*
X97870097Y-79432273D01*
X97579376Y-79354374D01*
X97567033Y-79350363D01*
X97286064Y-79242510D01*
X97274206Y-79237231D01*
X97006036Y-79100591D01*
X96994796Y-79094101D01*
X96742391Y-78930187D01*
X96731890Y-78922558D01*
X96497989Y-78733149D01*
X96488344Y-78724464D01*
X96275535Y-78511655D01*
X96266850Y-78502010D01*
X96077441Y-78268109D01*
X96069812Y-78257608D01*
X96065033Y-78250249D01*
X95905896Y-78005199D01*
X95899408Y-77993963D01*
X95845380Y-77887928D01*
X95762767Y-77725790D01*
X95757489Y-77713935D01*
X95757342Y-77713553D01*
X95649635Y-77432965D01*
X95645625Y-77420623D01*
X95593881Y-77227512D01*
X95567724Y-77129896D01*
X95565028Y-77117205D01*
X95517949Y-76819953D01*
X95516592Y-76807046D01*
X95500670Y-76503243D01*
X95500500Y-76496753D01*
X95500500Y-76131902D01*
X100249500Y-76131902D01*
X100249500Y-76368097D01*
X100286446Y-76601368D01*
X100359433Y-76825996D01*
X100466657Y-77036433D01*
X100605483Y-77227510D01*
X100772490Y-77394517D01*
X100963567Y-77533343D01*
X101062991Y-77584002D01*
X101174003Y-77640566D01*
X101174005Y-77640566D01*
X101174008Y-77640568D01*
X101262987Y-77669479D01*
X101398631Y-77713553D01*
X101631903Y-77750500D01*
X101631908Y-77750500D01*
X101868097Y-77750500D01*
X102101368Y-77713553D01*
X102325992Y-77640568D01*
X102536433Y-77533343D01*
X102727510Y-77394517D01*
X102894517Y-77227510D01*
X103033343Y-77036433D01*
X103140568Y-76825992D01*
X103213553Y-76601368D01*
X103215945Y-76586266D01*
X103250500Y-76368097D01*
X103250500Y-76131902D01*
X106749500Y-76131902D01*
X106749500Y-76368097D01*
X106786446Y-76601368D01*
X106859433Y-76825996D01*
X106966657Y-77036433D01*
X107105483Y-77227510D01*
X107272490Y-77394517D01*
X107463567Y-77533343D01*
X107562991Y-77584002D01*
X107674003Y-77640566D01*
X107674005Y-77640566D01*
X107674008Y-77640568D01*
X107762987Y-77669479D01*
X107898631Y-77713553D01*
X108131903Y-77750500D01*
X108131908Y-77750500D01*
X108368097Y-77750500D01*
X108601368Y-77713553D01*
X108825992Y-77640568D01*
X109036433Y-77533343D01*
X109227510Y-77394517D01*
X109394517Y-77227510D01*
X109533343Y-77036433D01*
X109640568Y-76825992D01*
X109713553Y-76601368D01*
X109715945Y-76586266D01*
X109750500Y-76368097D01*
X109750500Y-76362332D01*
X171399500Y-76362332D01*
X171399500Y-76637667D01*
X171399501Y-76637684D01*
X171435438Y-76910655D01*
X171435439Y-76910660D01*
X171435440Y-76910666D01*
X171435441Y-76910668D01*
X171506704Y-77176630D01*
X171612075Y-77431017D01*
X171612080Y-77431028D01*
X171691809Y-77569121D01*
X171749751Y-77669479D01*
X171749753Y-77669482D01*
X171749754Y-77669483D01*
X171917370Y-77887926D01*
X171917376Y-77887933D01*
X172112066Y-78082623D01*
X172112072Y-78082628D01*
X172330521Y-78250249D01*
X172483778Y-78338732D01*
X172568971Y-78387919D01*
X172568976Y-78387921D01*
X172568979Y-78387923D01*
X172823368Y-78493295D01*
X173089334Y-78564560D01*
X173362326Y-78600500D01*
X173362333Y-78600500D01*
X173637667Y-78600500D01*
X173637674Y-78600500D01*
X173910666Y-78564560D01*
X174176632Y-78493295D01*
X174431021Y-78387923D01*
X174669479Y-78250249D01*
X174887928Y-78082628D01*
X175082628Y-77887928D01*
X175250249Y-77669479D01*
X175387923Y-77431021D01*
X175493295Y-77176632D01*
X175564560Y-76910666D01*
X175600500Y-76637674D01*
X175600500Y-76362326D01*
X175564560Y-76089334D01*
X175493295Y-75823368D01*
X175387923Y-75568979D01*
X175387921Y-75568976D01*
X175387919Y-75568971D01*
X175327063Y-75463566D01*
X175250249Y-75330521D01*
X175082628Y-75112072D01*
X175082623Y-75112066D01*
X174887933Y-74917376D01*
X174887926Y-74917370D01*
X174669483Y-74749754D01*
X174669482Y-74749753D01*
X174669479Y-74749751D01*
X174554762Y-74683519D01*
X174431028Y-74612080D01*
X174431017Y-74612075D01*
X174176630Y-74506704D01*
X174043649Y-74471072D01*
X173910666Y-74435440D01*
X173910660Y-74435439D01*
X173910655Y-74435438D01*
X173637684Y-74399501D01*
X173637679Y-74399500D01*
X173637674Y-74399500D01*
X173362326Y-74399500D01*
X173362320Y-74399500D01*
X173362315Y-74399501D01*
X173089344Y-74435438D01*
X173089337Y-74435439D01*
X173089334Y-74435440D01*
X173033125Y-74450500D01*
X172823369Y-74506704D01*
X172568982Y-74612075D01*
X172568971Y-74612080D01*
X172330516Y-74749754D01*
X172112073Y-74917370D01*
X172112066Y-74917376D01*
X171917376Y-75112066D01*
X171917370Y-75112073D01*
X171749754Y-75330516D01*
X171612080Y-75568971D01*
X171612075Y-75568982D01*
X171506704Y-75823369D01*
X171435441Y-76089331D01*
X171435438Y-76089344D01*
X171399501Y-76362315D01*
X171399500Y-76362332D01*
X109750500Y-76362332D01*
X109750500Y-76131902D01*
X109713553Y-75898631D01*
X109640566Y-75674003D01*
X109533342Y-75463566D01*
X109394517Y-75272490D01*
X109227510Y-75105483D01*
X109036433Y-74966657D01*
X108939714Y-74917376D01*
X108825996Y-74859433D01*
X108601368Y-74786446D01*
X108368097Y-74749500D01*
X108368092Y-74749500D01*
X108131908Y-74749500D01*
X108131903Y-74749500D01*
X107898631Y-74786446D01*
X107674003Y-74859433D01*
X107463566Y-74966657D01*
X107354550Y-75045862D01*
X107272490Y-75105483D01*
X107272488Y-75105485D01*
X107272487Y-75105485D01*
X107105485Y-75272487D01*
X107105485Y-75272488D01*
X107105483Y-75272490D01*
X107063325Y-75330516D01*
X106966657Y-75463566D01*
X106859433Y-75674003D01*
X106786446Y-75898631D01*
X106749500Y-76131902D01*
X103250500Y-76131902D01*
X103213553Y-75898631D01*
X103140566Y-75674003D01*
X103033342Y-75463566D01*
X102894517Y-75272490D01*
X102727510Y-75105483D01*
X102536433Y-74966657D01*
X102439714Y-74917376D01*
X102325996Y-74859433D01*
X102101368Y-74786446D01*
X101868097Y-74749500D01*
X101868092Y-74749500D01*
X101631908Y-74749500D01*
X101631903Y-74749500D01*
X101398631Y-74786446D01*
X101174003Y-74859433D01*
X100963566Y-74966657D01*
X100854550Y-75045862D01*
X100772490Y-75105483D01*
X100772488Y-75105485D01*
X100772487Y-75105485D01*
X100605485Y-75272487D01*
X100605485Y-75272488D01*
X100605483Y-75272490D01*
X100563325Y-75330516D01*
X100466657Y-75463566D01*
X100359433Y-75674003D01*
X100286446Y-75898631D01*
X100249500Y-76131902D01*
X95500500Y-76131902D01*
X95500500Y-71631902D01*
X100249500Y-71631902D01*
X100249500Y-71868097D01*
X100286446Y-72101368D01*
X100359433Y-72325996D01*
X100417863Y-72440670D01*
X100466657Y-72536433D01*
X100605483Y-72727510D01*
X100772490Y-72894517D01*
X100963567Y-73033343D01*
X101043192Y-73073914D01*
X101174003Y-73140566D01*
X101174005Y-73140566D01*
X101174008Y-73140568D01*
X101294412Y-73179689D01*
X101398631Y-73213553D01*
X101631903Y-73250500D01*
X101631908Y-73250500D01*
X101868097Y-73250500D01*
X102101368Y-73213553D01*
X102325992Y-73140568D01*
X102536433Y-73033343D01*
X102727510Y-72894517D01*
X102894517Y-72727510D01*
X103033343Y-72536433D01*
X103140568Y-72325992D01*
X103213553Y-72101368D01*
X103235593Y-71962214D01*
X103250500Y-71868097D01*
X103250500Y-71631902D01*
X106749500Y-71631902D01*
X106749500Y-71868097D01*
X106786446Y-72101368D01*
X106859433Y-72325996D01*
X106917863Y-72440670D01*
X106966657Y-72536433D01*
X107105483Y-72727510D01*
X107272490Y-72894517D01*
X107463567Y-73033343D01*
X107543192Y-73073914D01*
X107674003Y-73140566D01*
X107674005Y-73140566D01*
X107674008Y-73140568D01*
X107794412Y-73179689D01*
X107898631Y-73213553D01*
X108131903Y-73250500D01*
X108131908Y-73250500D01*
X108368097Y-73250500D01*
X108601368Y-73213553D01*
X108825992Y-73140568D01*
X109036433Y-73033343D01*
X109227510Y-72894517D01*
X109394517Y-72727510D01*
X109533343Y-72536433D01*
X109640568Y-72325992D01*
X109713553Y-72101368D01*
X109735593Y-71962214D01*
X109750500Y-71868097D01*
X109750500Y-71631902D01*
X109713553Y-71398631D01*
X109640566Y-71174003D01*
X109540258Y-70977139D01*
X109533343Y-70963567D01*
X109394517Y-70772490D01*
X109227510Y-70605483D01*
X109036433Y-70466657D01*
X108825996Y-70359433D01*
X108601368Y-70286446D01*
X108368097Y-70249500D01*
X108368092Y-70249500D01*
X108131908Y-70249500D01*
X108131903Y-70249500D01*
X107898631Y-70286446D01*
X107674003Y-70359433D01*
X107463566Y-70466657D01*
X107354550Y-70545862D01*
X107272490Y-70605483D01*
X107272488Y-70605485D01*
X107272487Y-70605485D01*
X107105485Y-70772487D01*
X107105485Y-70772488D01*
X107105483Y-70772490D01*
X107058043Y-70837785D01*
X106966657Y-70963566D01*
X106859433Y-71174003D01*
X106786446Y-71398631D01*
X106749500Y-71631902D01*
X103250500Y-71631902D01*
X103213553Y-71398631D01*
X103140566Y-71174003D01*
X103040258Y-70977139D01*
X103033343Y-70963567D01*
X102894517Y-70772490D01*
X102727510Y-70605483D01*
X102536433Y-70466657D01*
X102325996Y-70359433D01*
X102101368Y-70286446D01*
X101868097Y-70249500D01*
X101868092Y-70249500D01*
X101631908Y-70249500D01*
X101631903Y-70249500D01*
X101398631Y-70286446D01*
X101174003Y-70359433D01*
X100963566Y-70466657D01*
X100854550Y-70545862D01*
X100772490Y-70605483D01*
X100772488Y-70605485D01*
X100772487Y-70605485D01*
X100605485Y-70772487D01*
X100605485Y-70772488D01*
X100605483Y-70772490D01*
X100558043Y-70837785D01*
X100466657Y-70963566D01*
X100359433Y-71174003D01*
X100286446Y-71398631D01*
X100249500Y-71631902D01*
X95500500Y-71631902D01*
X95500500Y-66362332D01*
X112899500Y-66362332D01*
X112899500Y-66637667D01*
X112899501Y-66637684D01*
X112935438Y-66910655D01*
X112935439Y-66910660D01*
X112935440Y-66910666D01*
X112971072Y-67043649D01*
X113006704Y-67176630D01*
X113112075Y-67431017D01*
X113112080Y-67431028D01*
X113191809Y-67569121D01*
X113249751Y-67669479D01*
X113249753Y-67669482D01*
X113249754Y-67669483D01*
X113417370Y-67887926D01*
X113417376Y-67887933D01*
X113612066Y-68082623D01*
X113612072Y-68082628D01*
X113830521Y-68250249D01*
X113929364Y-68307316D01*
X114068971Y-68387919D01*
X114068976Y-68387921D01*
X114068979Y-68387923D01*
X114323368Y-68493295D01*
X114589334Y-68564560D01*
X114862326Y-68600500D01*
X114862333Y-68600500D01*
X115137667Y-68600500D01*
X115137674Y-68600500D01*
X115410666Y-68564560D01*
X115676632Y-68493295D01*
X115931021Y-68387923D01*
X116169479Y-68250249D01*
X116387928Y-68082628D01*
X116582628Y-67887928D01*
X116750249Y-67669479D01*
X116887923Y-67431021D01*
X116993295Y-67176632D01*
X117064560Y-66910666D01*
X117100500Y-66637674D01*
X117100500Y-66362326D01*
X117064560Y-66089334D01*
X116993295Y-65823368D01*
X116887923Y-65568979D01*
X116847257Y-65498543D01*
X127199499Y-65498543D01*
X127237947Y-65691829D01*
X127237950Y-65691839D01*
X127313364Y-65873907D01*
X127313371Y-65873920D01*
X127422860Y-66037781D01*
X127422863Y-66037785D01*
X127563181Y-66178103D01*
X127596666Y-66239426D01*
X127599500Y-66265784D01*
X127599500Y-68913330D01*
X127599499Y-68913348D01*
X127599499Y-69079054D01*
X127599498Y-69079054D01*
X127640424Y-69231790D01*
X127643534Y-69239297D01*
X127642240Y-69239832D01*
X127656661Y-69299290D01*
X127633805Y-69365316D01*
X127601695Y-69396483D01*
X127562214Y-69422864D01*
X127562211Y-69422867D01*
X127422863Y-69562214D01*
X127422860Y-69562218D01*
X127313371Y-69726079D01*
X127313364Y-69726092D01*
X127237950Y-69908160D01*
X127237947Y-69908170D01*
X127199500Y-70101456D01*
X127199500Y-70101459D01*
X127199500Y-70298541D01*
X127199500Y-70298543D01*
X127199499Y-70298543D01*
X127237947Y-70491829D01*
X127237950Y-70491839D01*
X127313364Y-70673907D01*
X127313371Y-70673920D01*
X127422860Y-70837781D01*
X127422863Y-70837785D01*
X127562214Y-70977136D01*
X127562218Y-70977139D01*
X127726079Y-71086628D01*
X127726092Y-71086635D01*
X127908160Y-71162049D01*
X127908165Y-71162051D01*
X127908169Y-71162051D01*
X127908170Y-71162052D01*
X128101456Y-71200500D01*
X128101459Y-71200500D01*
X128298543Y-71200500D01*
X128372123Y-71185863D01*
X128461509Y-71168083D01*
X128531099Y-71174310D01*
X128586277Y-71217172D01*
X128609522Y-71283062D01*
X128593455Y-71351059D01*
X128573381Y-71377381D01*
X128387582Y-71563181D01*
X128326259Y-71596666D01*
X128299901Y-71599500D01*
X128101457Y-71599500D01*
X127908170Y-71637947D01*
X127908160Y-71637950D01*
X127726092Y-71713364D01*
X127726079Y-71713371D01*
X127562218Y-71822860D01*
X127562214Y-71822863D01*
X127422863Y-71962214D01*
X127422860Y-71962218D01*
X127313371Y-72126079D01*
X127313364Y-72126092D01*
X127237950Y-72308160D01*
X127237947Y-72308170D01*
X127199500Y-72501456D01*
X127199500Y-72501459D01*
X127199500Y-72698541D01*
X127199500Y-72698543D01*
X127199499Y-72698543D01*
X127237947Y-72891829D01*
X127237950Y-72891839D01*
X127313364Y-73073907D01*
X127313371Y-73073920D01*
X127422860Y-73237781D01*
X127422863Y-73237785D01*
X127562214Y-73377136D01*
X127562218Y-73377139D01*
X127726079Y-73486628D01*
X127726092Y-73486635D01*
X127908160Y-73562049D01*
X127908165Y-73562051D01*
X127908169Y-73562051D01*
X127908170Y-73562052D01*
X128101456Y-73600500D01*
X128101459Y-73600500D01*
X128298543Y-73600500D01*
X128428582Y-73574632D01*
X128491835Y-73562051D01*
X128673914Y-73486632D01*
X128837782Y-73377139D01*
X128977139Y-73237782D01*
X129086632Y-73073914D01*
X129162051Y-72891835D01*
X129182448Y-72789294D01*
X129200500Y-72698543D01*
X129200500Y-72500097D01*
X129209144Y-72470656D01*
X129215668Y-72440670D01*
X129219422Y-72435654D01*
X129220185Y-72433058D01*
X129236819Y-72412416D01*
X129345219Y-72304016D01*
X129406542Y-72270531D01*
X129476234Y-72275515D01*
X129520581Y-72304016D01*
X131783939Y-74567374D01*
X131783949Y-74567385D01*
X131788279Y-74571715D01*
X131788280Y-74571716D01*
X131900084Y-74683520D01*
X131986895Y-74733639D01*
X131986897Y-74733641D01*
X132024951Y-74755611D01*
X132037015Y-74762577D01*
X132189743Y-74803501D01*
X132189746Y-74803501D01*
X132355453Y-74803501D01*
X132355469Y-74803500D01*
X152377317Y-74803500D01*
X152377333Y-74803501D01*
X152384929Y-74803501D01*
X152543040Y-74803501D01*
X152543043Y-74803501D01*
X152695771Y-74762577D01*
X152745890Y-74733639D01*
X152832702Y-74683520D01*
X152944506Y-74571716D01*
X152944506Y-74571714D01*
X152954714Y-74561507D01*
X152954716Y-74561504D01*
X153761506Y-73754714D01*
X153761511Y-73754710D01*
X153771714Y-73744506D01*
X153771716Y-73744506D01*
X153883520Y-73632702D01*
X153962577Y-73495770D01*
X154003500Y-73343043D01*
X154003500Y-71531183D01*
X154023185Y-71464144D01*
X154039819Y-71443502D01*
X154132262Y-71351059D01*
X154284520Y-71198802D01*
X154363577Y-71061870D01*
X154404501Y-70909143D01*
X154404501Y-70751028D01*
X154404501Y-70743433D01*
X154404500Y-70743415D01*
X154404500Y-69297283D01*
X154424185Y-69230244D01*
X154440819Y-69209602D01*
X154537057Y-69113364D01*
X154685520Y-68964902D01*
X154764577Y-68827970D01*
X154805501Y-68675243D01*
X154805501Y-68631902D01*
X158249500Y-68631902D01*
X158249500Y-68868097D01*
X158286446Y-69101368D01*
X158359433Y-69325996D01*
X158408792Y-69422867D01*
X158466657Y-69536433D01*
X158605483Y-69727510D01*
X158772490Y-69894517D01*
X158963567Y-70033343D01*
X159062991Y-70084002D01*
X159174003Y-70140566D01*
X159174005Y-70140566D01*
X159174008Y-70140568D01*
X159294412Y-70179689D01*
X159398631Y-70213553D01*
X159631903Y-70250500D01*
X159631908Y-70250500D01*
X159868097Y-70250500D01*
X160101368Y-70213553D01*
X160325992Y-70140568D01*
X160536433Y-70033343D01*
X160727510Y-69894517D01*
X160894517Y-69727510D01*
X161033343Y-69536433D01*
X161140568Y-69325992D01*
X161213553Y-69101368D01*
X161235168Y-68964895D01*
X161250500Y-68868097D01*
X161250500Y-68631902D01*
X164749500Y-68631902D01*
X164749500Y-68868097D01*
X164786446Y-69101368D01*
X164859433Y-69325996D01*
X164908792Y-69422867D01*
X164966657Y-69536433D01*
X165105483Y-69727510D01*
X165272490Y-69894517D01*
X165463567Y-70033343D01*
X165562991Y-70084002D01*
X165674003Y-70140566D01*
X165674005Y-70140566D01*
X165674008Y-70140568D01*
X165794412Y-70179689D01*
X165898631Y-70213553D01*
X166131903Y-70250500D01*
X166131908Y-70250500D01*
X166368097Y-70250500D01*
X166601368Y-70213553D01*
X166825992Y-70140568D01*
X167036433Y-70033343D01*
X167227510Y-69894517D01*
X167394517Y-69727510D01*
X167533343Y-69536433D01*
X167640568Y-69325992D01*
X167713553Y-69101368D01*
X167735168Y-68964895D01*
X167750500Y-68868097D01*
X167750500Y-68631902D01*
X174749500Y-68631902D01*
X174749500Y-68868097D01*
X174786446Y-69101368D01*
X174859433Y-69325996D01*
X174908792Y-69422867D01*
X174966657Y-69536433D01*
X175105483Y-69727510D01*
X175272490Y-69894517D01*
X175463567Y-70033343D01*
X175562991Y-70084002D01*
X175674003Y-70140566D01*
X175674005Y-70140566D01*
X175674008Y-70140568D01*
X175794412Y-70179689D01*
X175898631Y-70213553D01*
X176131903Y-70250500D01*
X176131908Y-70250500D01*
X176368097Y-70250500D01*
X176601368Y-70213553D01*
X176825992Y-70140568D01*
X177036433Y-70033343D01*
X177227510Y-69894517D01*
X177394517Y-69727510D01*
X177533343Y-69536433D01*
X177640568Y-69325992D01*
X177713553Y-69101368D01*
X177735168Y-68964895D01*
X177750500Y-68868097D01*
X177750500Y-68631902D01*
X181249500Y-68631902D01*
X181249500Y-68868097D01*
X181286446Y-69101368D01*
X181359433Y-69325996D01*
X181408792Y-69422867D01*
X181466657Y-69536433D01*
X181605483Y-69727510D01*
X181772490Y-69894517D01*
X181963567Y-70033343D01*
X182062991Y-70084002D01*
X182174003Y-70140566D01*
X182174005Y-70140566D01*
X182174008Y-70140568D01*
X182294412Y-70179689D01*
X182398631Y-70213553D01*
X182631903Y-70250500D01*
X182631908Y-70250500D01*
X182868097Y-70250500D01*
X183101368Y-70213553D01*
X183325992Y-70140568D01*
X183536433Y-70033343D01*
X183727510Y-69894517D01*
X183894517Y-69727510D01*
X184033343Y-69536433D01*
X184140568Y-69325992D01*
X184213553Y-69101368D01*
X184235168Y-68964895D01*
X184250500Y-68868097D01*
X184250500Y-68631902D01*
X184213553Y-68398631D01*
X184161289Y-68237781D01*
X184140568Y-68174008D01*
X184140566Y-68174005D01*
X184140566Y-68174003D01*
X184033342Y-67963566D01*
X183894517Y-67772490D01*
X183727510Y-67605483D01*
X183536433Y-67466657D01*
X183325996Y-67359433D01*
X183101368Y-67286446D01*
X182868097Y-67249500D01*
X182868092Y-67249500D01*
X182631908Y-67249500D01*
X182631903Y-67249500D01*
X182398631Y-67286446D01*
X182174003Y-67359433D01*
X181963566Y-67466657D01*
X181915670Y-67501456D01*
X181772490Y-67605483D01*
X181772488Y-67605485D01*
X181772487Y-67605485D01*
X181605485Y-67772487D01*
X181605485Y-67772488D01*
X181605483Y-67772490D01*
X181545862Y-67854550D01*
X181466657Y-67963566D01*
X181359433Y-68174003D01*
X181286446Y-68398631D01*
X181249500Y-68631902D01*
X177750500Y-68631902D01*
X177713553Y-68398631D01*
X177661289Y-68237781D01*
X177640568Y-68174008D01*
X177640566Y-68174005D01*
X177640566Y-68174003D01*
X177533342Y-67963566D01*
X177394517Y-67772490D01*
X177227510Y-67605483D01*
X177036433Y-67466657D01*
X176825996Y-67359433D01*
X176601368Y-67286446D01*
X176368097Y-67249500D01*
X176368092Y-67249500D01*
X176131908Y-67249500D01*
X176131903Y-67249500D01*
X175898631Y-67286446D01*
X175674003Y-67359433D01*
X175463566Y-67466657D01*
X175415670Y-67501456D01*
X175272490Y-67605483D01*
X175272488Y-67605485D01*
X175272487Y-67605485D01*
X175105485Y-67772487D01*
X175105485Y-67772488D01*
X175105483Y-67772490D01*
X175045862Y-67854550D01*
X174966657Y-67963566D01*
X174859433Y-68174003D01*
X174786446Y-68398631D01*
X174749500Y-68631902D01*
X167750500Y-68631902D01*
X167713553Y-68398631D01*
X167661289Y-68237781D01*
X167640568Y-68174008D01*
X167640566Y-68174005D01*
X167640566Y-68174003D01*
X167533342Y-67963566D01*
X167394517Y-67772490D01*
X167227510Y-67605483D01*
X167036433Y-67466657D01*
X166825996Y-67359433D01*
X166601368Y-67286446D01*
X166368097Y-67249500D01*
X166368092Y-67249500D01*
X166131908Y-67249500D01*
X166131903Y-67249500D01*
X165898631Y-67286446D01*
X165674003Y-67359433D01*
X165463566Y-67466657D01*
X165415670Y-67501456D01*
X165272490Y-67605483D01*
X165272488Y-67605485D01*
X165272487Y-67605485D01*
X165105485Y-67772487D01*
X165105485Y-67772488D01*
X165105483Y-67772490D01*
X165045862Y-67854550D01*
X164966657Y-67963566D01*
X164859433Y-68174003D01*
X164786446Y-68398631D01*
X164749500Y-68631902D01*
X161250500Y-68631902D01*
X161213553Y-68398631D01*
X161161289Y-68237781D01*
X161140568Y-68174008D01*
X161140566Y-68174005D01*
X161140566Y-68174003D01*
X161033342Y-67963566D01*
X160894517Y-67772490D01*
X160727510Y-67605483D01*
X160536433Y-67466657D01*
X160325996Y-67359433D01*
X160101368Y-67286446D01*
X159868097Y-67249500D01*
X159868092Y-67249500D01*
X159631908Y-67249500D01*
X159631903Y-67249500D01*
X159398631Y-67286446D01*
X159174003Y-67359433D01*
X158963566Y-67466657D01*
X158915670Y-67501456D01*
X158772490Y-67605483D01*
X158772488Y-67605485D01*
X158772487Y-67605485D01*
X158605485Y-67772487D01*
X158605485Y-67772488D01*
X158605483Y-67772490D01*
X158545862Y-67854550D01*
X158466657Y-67963566D01*
X158359433Y-68174003D01*
X158286446Y-68398631D01*
X158249500Y-68631902D01*
X154805501Y-68631902D01*
X154805501Y-68517128D01*
X154805500Y-68517124D01*
X154805500Y-66863383D01*
X154825185Y-66796344D01*
X154841819Y-66775702D01*
X154904157Y-66713364D01*
X155086520Y-66531002D01*
X155165577Y-66394070D01*
X155206501Y-66241343D01*
X155206501Y-66083228D01*
X155206501Y-66075633D01*
X155206500Y-66075615D01*
X155206500Y-64131902D01*
X158249500Y-64131902D01*
X158249500Y-64368097D01*
X158286446Y-64601368D01*
X158359433Y-64825996D01*
X158410432Y-64926086D01*
X158466657Y-65036433D01*
X158605483Y-65227510D01*
X158772490Y-65394517D01*
X158963567Y-65533343D01*
X159020834Y-65562522D01*
X159174003Y-65640566D01*
X159174005Y-65640566D01*
X159174008Y-65640568D01*
X159245921Y-65663934D01*
X159398631Y-65713553D01*
X159631903Y-65750500D01*
X159631908Y-65750500D01*
X159868097Y-65750500D01*
X160101368Y-65713553D01*
X160325992Y-65640568D01*
X160536433Y-65533343D01*
X160727510Y-65394517D01*
X160894517Y-65227510D01*
X161033343Y-65036433D01*
X161140568Y-64825992D01*
X161213553Y-64601368D01*
X161250500Y-64368097D01*
X161250500Y-64131902D01*
X164749500Y-64131902D01*
X164749500Y-64368097D01*
X164786446Y-64601368D01*
X164859433Y-64825996D01*
X164910432Y-64926086D01*
X164966657Y-65036433D01*
X165105483Y-65227510D01*
X165272490Y-65394517D01*
X165463567Y-65533343D01*
X165520834Y-65562522D01*
X165674003Y-65640566D01*
X165674005Y-65640566D01*
X165674008Y-65640568D01*
X165745921Y-65663934D01*
X165898631Y-65713553D01*
X166131903Y-65750500D01*
X166131908Y-65750500D01*
X166368097Y-65750500D01*
X166601368Y-65713553D01*
X166825992Y-65640568D01*
X167036433Y-65533343D01*
X167227510Y-65394517D01*
X167394517Y-65227510D01*
X167533343Y-65036433D01*
X167640568Y-64825992D01*
X167713553Y-64601368D01*
X167750500Y-64368097D01*
X167750500Y-64131902D01*
X174749500Y-64131902D01*
X174749500Y-64368097D01*
X174786446Y-64601368D01*
X174859433Y-64825996D01*
X174910432Y-64926086D01*
X174966657Y-65036433D01*
X175105483Y-65227510D01*
X175272490Y-65394517D01*
X175463567Y-65533343D01*
X175520834Y-65562522D01*
X175674003Y-65640566D01*
X175674005Y-65640566D01*
X175674008Y-65640568D01*
X175745921Y-65663934D01*
X175898631Y-65713553D01*
X176131903Y-65750500D01*
X176131908Y-65750500D01*
X176368097Y-65750500D01*
X176601368Y-65713553D01*
X176825992Y-65640568D01*
X177036433Y-65533343D01*
X177227510Y-65394517D01*
X177394517Y-65227510D01*
X177533343Y-65036433D01*
X177640568Y-64825992D01*
X177713553Y-64601368D01*
X177750500Y-64368097D01*
X177750500Y-64131902D01*
X181249500Y-64131902D01*
X181249500Y-64368097D01*
X181286446Y-64601368D01*
X181359433Y-64825996D01*
X181410432Y-64926086D01*
X181466657Y-65036433D01*
X181605483Y-65227510D01*
X181772490Y-65394517D01*
X181963567Y-65533343D01*
X182020834Y-65562522D01*
X182174003Y-65640566D01*
X182174005Y-65640566D01*
X182174008Y-65640568D01*
X182245921Y-65663934D01*
X182398631Y-65713553D01*
X182631903Y-65750500D01*
X182631908Y-65750500D01*
X182868097Y-65750500D01*
X183101368Y-65713553D01*
X183325992Y-65640568D01*
X183536433Y-65533343D01*
X183727510Y-65394517D01*
X183894517Y-65227510D01*
X184033343Y-65036433D01*
X184140568Y-64825992D01*
X184213553Y-64601368D01*
X184250500Y-64368097D01*
X184250500Y-64131902D01*
X184213553Y-63898631D01*
X184140566Y-63674003D01*
X184033342Y-63463566D01*
X183894517Y-63272490D01*
X183727510Y-63105483D01*
X183536433Y-62966657D01*
X183492035Y-62944035D01*
X183325996Y-62859433D01*
X183101368Y-62786446D01*
X182868097Y-62749500D01*
X182868092Y-62749500D01*
X182631908Y-62749500D01*
X182631903Y-62749500D01*
X182398631Y-62786446D01*
X182174003Y-62859433D01*
X181963566Y-62966657D01*
X181854550Y-63045862D01*
X181772490Y-63105483D01*
X181772488Y-63105485D01*
X181772487Y-63105485D01*
X181605485Y-63272487D01*
X181605485Y-63272488D01*
X181605483Y-63272490D01*
X181547096Y-63352853D01*
X181466657Y-63463566D01*
X181359433Y-63674003D01*
X181286446Y-63898631D01*
X181249500Y-64131902D01*
X177750500Y-64131902D01*
X177713553Y-63898631D01*
X177640566Y-63674003D01*
X177533342Y-63463566D01*
X177394517Y-63272490D01*
X177227510Y-63105483D01*
X177036433Y-62966657D01*
X176992035Y-62944035D01*
X176825996Y-62859433D01*
X176601368Y-62786446D01*
X176368097Y-62749500D01*
X176368092Y-62749500D01*
X176131908Y-62749500D01*
X176131903Y-62749500D01*
X175898631Y-62786446D01*
X175674003Y-62859433D01*
X175463566Y-62966657D01*
X175354550Y-63045862D01*
X175272490Y-63105483D01*
X175272488Y-63105485D01*
X175272487Y-63105485D01*
X175105485Y-63272487D01*
X175105485Y-63272488D01*
X175105483Y-63272490D01*
X175047096Y-63352853D01*
X174966657Y-63463566D01*
X174859433Y-63674003D01*
X174786446Y-63898631D01*
X174749500Y-64131902D01*
X167750500Y-64131902D01*
X167713553Y-63898631D01*
X167640566Y-63674003D01*
X167533342Y-63463566D01*
X167394517Y-63272490D01*
X167227510Y-63105483D01*
X167036433Y-62966657D01*
X166992035Y-62944035D01*
X166825996Y-62859433D01*
X166601368Y-62786446D01*
X166368097Y-62749500D01*
X166368092Y-62749500D01*
X166131908Y-62749500D01*
X166131903Y-62749500D01*
X165898631Y-62786446D01*
X165674003Y-62859433D01*
X165463566Y-62966657D01*
X165354550Y-63045862D01*
X165272490Y-63105483D01*
X165272488Y-63105485D01*
X165272487Y-63105485D01*
X165105485Y-63272487D01*
X165105485Y-63272488D01*
X165105483Y-63272490D01*
X165047096Y-63352853D01*
X164966657Y-63463566D01*
X164859433Y-63674003D01*
X164786446Y-63898631D01*
X164749500Y-64131902D01*
X161250500Y-64131902D01*
X161213553Y-63898631D01*
X161140566Y-63674003D01*
X161033342Y-63463566D01*
X160894517Y-63272490D01*
X160727510Y-63105483D01*
X160536433Y-62966657D01*
X160492035Y-62944035D01*
X160325996Y-62859433D01*
X160101368Y-62786446D01*
X159868097Y-62749500D01*
X159868092Y-62749500D01*
X159631908Y-62749500D01*
X159631903Y-62749500D01*
X159398631Y-62786446D01*
X159174003Y-62859433D01*
X158963566Y-62966657D01*
X158854550Y-63045862D01*
X158772490Y-63105483D01*
X158772488Y-63105485D01*
X158772487Y-63105485D01*
X158605485Y-63272487D01*
X158605485Y-63272488D01*
X158605483Y-63272490D01*
X158547096Y-63352853D01*
X158466657Y-63463566D01*
X158359433Y-63674003D01*
X158286446Y-63898631D01*
X158249500Y-64131902D01*
X155206500Y-64131902D01*
X155206500Y-63758659D01*
X155206500Y-63758657D01*
X155165577Y-63605930D01*
X155165573Y-63605923D01*
X155086524Y-63469004D01*
X155086521Y-63469000D01*
X155086520Y-63468998D01*
X154974716Y-63357194D01*
X154974715Y-63357193D01*
X154970385Y-63352863D01*
X154970374Y-63352853D01*
X154842819Y-63225298D01*
X154809334Y-63163975D01*
X154806500Y-63137617D01*
X154806500Y-62995397D01*
X154826185Y-62928358D01*
X154842819Y-62907716D01*
X155707717Y-62042819D01*
X155769040Y-62009334D01*
X155795398Y-62006500D01*
X162537539Y-62006500D01*
X162537543Y-62006501D01*
X162695657Y-62006501D01*
X162699147Y-62005565D01*
X162710706Y-62005502D01*
X162710827Y-62005536D01*
X162711389Y-62005500D01*
X166476731Y-62005500D01*
X166476747Y-62005501D01*
X166484343Y-62005501D01*
X166642455Y-62005501D01*
X166642457Y-62005501D01*
X166642458Y-62005500D01*
X166649594Y-62004561D01*
X166665781Y-62003500D01*
X168459239Y-62003500D01*
X168459243Y-62003501D01*
X168617357Y-62003501D01*
X168620847Y-62002565D01*
X168632406Y-62002502D01*
X168632527Y-62002536D01*
X168633089Y-62002500D01*
X170425531Y-62002500D01*
X170425547Y-62002501D01*
X170433143Y-62002501D01*
X170591708Y-62002501D01*
X170606989Y-62001500D01*
X172407039Y-62001500D01*
X172407043Y-62001501D01*
X172565157Y-62001501D01*
X172568647Y-62000565D01*
X172580206Y-62000502D01*
X172580327Y-62000536D01*
X172580889Y-62000500D01*
X174373331Y-62000500D01*
X174373347Y-62000501D01*
X174380943Y-62000501D01*
X174539054Y-62000501D01*
X174539057Y-62000501D01*
X174691785Y-61959577D01*
X174691787Y-61959575D01*
X174691789Y-61959575D01*
X174691790Y-61959574D01*
X174745264Y-61928701D01*
X174745265Y-61928700D01*
X174828716Y-61880520D01*
X174940520Y-61768716D01*
X174940520Y-61768714D01*
X174950724Y-61758511D01*
X174950728Y-61758506D01*
X176846902Y-59862332D01*
X183899500Y-59862332D01*
X183899500Y-60137667D01*
X183899501Y-60137684D01*
X183935438Y-60410655D01*
X183935439Y-60410660D01*
X183935440Y-60410666D01*
X183935441Y-60410668D01*
X184006704Y-60676630D01*
X184112075Y-60931017D01*
X184112080Y-60931028D01*
X184186490Y-61059908D01*
X184249751Y-61169479D01*
X184249753Y-61169482D01*
X184249754Y-61169483D01*
X184417370Y-61387926D01*
X184417376Y-61387933D01*
X184612066Y-61582623D01*
X184612072Y-61582628D01*
X184830521Y-61750249D01*
X184983778Y-61838732D01*
X185068971Y-61887919D01*
X185068976Y-61887921D01*
X185068979Y-61887923D01*
X185323368Y-61993295D01*
X185589334Y-62064560D01*
X185862326Y-62100500D01*
X185862333Y-62100500D01*
X186137667Y-62100500D01*
X186137674Y-62100500D01*
X186410666Y-62064560D01*
X186676632Y-61993295D01*
X186931021Y-61887923D01*
X187169479Y-61750249D01*
X187387928Y-61582628D01*
X187582628Y-61387928D01*
X187750249Y-61169479D01*
X187887923Y-60931021D01*
X187993295Y-60676632D01*
X188064560Y-60410666D01*
X188100500Y-60137674D01*
X188100500Y-59862326D01*
X188064560Y-59589334D01*
X187993295Y-59323368D01*
X187887923Y-59068979D01*
X187887921Y-59068976D01*
X187887919Y-59068971D01*
X187838732Y-58983778D01*
X187750249Y-58830521D01*
X187681099Y-58740403D01*
X187582629Y-58612073D01*
X187582623Y-58612066D01*
X187387933Y-58417376D01*
X187387926Y-58417370D01*
X187169483Y-58249754D01*
X187169482Y-58249753D01*
X187169479Y-58249751D01*
X187046069Y-58178500D01*
X186931028Y-58112080D01*
X186931017Y-58112075D01*
X186676630Y-58006704D01*
X186543649Y-57971072D01*
X186410666Y-57935440D01*
X186410660Y-57935439D01*
X186410655Y-57935438D01*
X186137684Y-57899501D01*
X186137679Y-57899500D01*
X186137674Y-57899500D01*
X185862326Y-57899500D01*
X185862320Y-57899500D01*
X185862315Y-57899501D01*
X185589344Y-57935438D01*
X185589337Y-57935439D01*
X185589334Y-57935440D01*
X185533125Y-57950500D01*
X185323369Y-58006704D01*
X185068982Y-58112075D01*
X185068971Y-58112080D01*
X184830516Y-58249754D01*
X184612073Y-58417370D01*
X184612066Y-58417376D01*
X184417376Y-58612066D01*
X184417370Y-58612073D01*
X184249754Y-58830516D01*
X184112080Y-59068971D01*
X184112075Y-59068982D01*
X184006704Y-59323369D01*
X183935441Y-59589331D01*
X183935438Y-59589344D01*
X183899501Y-59862315D01*
X183899500Y-59862332D01*
X176846902Y-59862332D01*
X178875478Y-57833755D01*
X178936799Y-57800272D01*
X179001473Y-57803506D01*
X179043757Y-57817246D01*
X179253713Y-57850500D01*
X179253714Y-57850500D01*
X179466286Y-57850500D01*
X179466287Y-57850500D01*
X179676243Y-57817246D01*
X179878412Y-57751557D01*
X180067816Y-57655051D01*
X180154471Y-57592093D01*
X180239786Y-57530109D01*
X180239788Y-57530106D01*
X180239792Y-57530104D01*
X180390104Y-57379792D01*
X180390106Y-57379788D01*
X180390109Y-57379786D01*
X180515048Y-57207820D01*
X180515050Y-57207817D01*
X180515051Y-57207816D01*
X180611557Y-57018412D01*
X180677246Y-56816243D01*
X180710500Y-56606287D01*
X180710500Y-56393713D01*
X180677246Y-56183757D01*
X180611557Y-55981588D01*
X180515051Y-55792184D01*
X180515049Y-55792181D01*
X180515048Y-55792179D01*
X180390109Y-55620213D01*
X180239786Y-55469890D01*
X180067820Y-55344951D01*
X179878414Y-55248444D01*
X179878413Y-55248443D01*
X179878412Y-55248443D01*
X179676243Y-55182754D01*
X179676241Y-55182753D01*
X179676240Y-55182753D01*
X179514957Y-55157208D01*
X179466287Y-55149500D01*
X179253713Y-55149500D01*
X179205042Y-55157208D01*
X179043760Y-55182753D01*
X178841585Y-55248444D01*
X178652179Y-55344951D01*
X178480213Y-55469890D01*
X178329890Y-55620213D01*
X178204949Y-55792182D01*
X178200484Y-55800946D01*
X178152509Y-55851742D01*
X178084688Y-55868536D01*
X178018553Y-55845998D01*
X177979516Y-55800946D01*
X177975050Y-55792182D01*
X177850109Y-55620213D01*
X177699786Y-55469890D01*
X177527820Y-55344951D01*
X177338414Y-55248444D01*
X177338413Y-55248443D01*
X177338412Y-55248443D01*
X177136243Y-55182754D01*
X177136241Y-55182753D01*
X177136240Y-55182753D01*
X176974957Y-55157208D01*
X176926287Y-55149500D01*
X176713713Y-55149500D01*
X176665042Y-55157208D01*
X176503760Y-55182753D01*
X176301585Y-55248444D01*
X176112179Y-55344951D01*
X175940213Y-55469890D01*
X175789890Y-55620213D01*
X175664949Y-55792182D01*
X175660484Y-55800946D01*
X175612509Y-55851742D01*
X175544688Y-55868536D01*
X175478553Y-55845998D01*
X175439516Y-55800946D01*
X175435050Y-55792182D01*
X175310109Y-55620213D01*
X175159786Y-55469890D01*
X174987820Y-55344951D01*
X174798414Y-55248444D01*
X174798413Y-55248443D01*
X174798412Y-55248443D01*
X174596243Y-55182754D01*
X174596241Y-55182753D01*
X174596240Y-55182753D01*
X174434957Y-55157208D01*
X174386287Y-55149500D01*
X174173713Y-55149500D01*
X174125042Y-55157208D01*
X173963760Y-55182753D01*
X173761585Y-55248444D01*
X173572179Y-55344951D01*
X173400213Y-55469890D01*
X173249890Y-55620213D01*
X173124949Y-55792182D01*
X173120484Y-55800946D01*
X173072509Y-55851742D01*
X173004688Y-55868536D01*
X172938553Y-55845998D01*
X172899516Y-55800946D01*
X172895050Y-55792182D01*
X172770109Y-55620213D01*
X172619786Y-55469890D01*
X172447820Y-55344951D01*
X172258414Y-55248444D01*
X172258413Y-55248443D01*
X172258412Y-55248443D01*
X172056243Y-55182754D01*
X172056241Y-55182753D01*
X172056240Y-55182753D01*
X171894957Y-55157208D01*
X171846287Y-55149500D01*
X171633713Y-55149500D01*
X171585042Y-55157208D01*
X171423760Y-55182753D01*
X171221585Y-55248444D01*
X171032179Y-55344951D01*
X170860213Y-55469890D01*
X170709890Y-55620213D01*
X170584949Y-55792182D01*
X170580484Y-55800946D01*
X170532509Y-55851742D01*
X170464688Y-55868536D01*
X170398553Y-55845998D01*
X170359516Y-55800946D01*
X170355050Y-55792182D01*
X170230109Y-55620213D01*
X170079786Y-55469890D01*
X169907820Y-55344951D01*
X169718414Y-55248444D01*
X169718413Y-55248443D01*
X169718412Y-55248443D01*
X169516243Y-55182754D01*
X169516241Y-55182753D01*
X169516240Y-55182753D01*
X169354957Y-55157208D01*
X169306287Y-55149500D01*
X169093713Y-55149500D01*
X169045042Y-55157208D01*
X168883760Y-55182753D01*
X168681585Y-55248444D01*
X168492179Y-55344951D01*
X168320213Y-55469890D01*
X168169890Y-55620213D01*
X168044949Y-55792182D01*
X168040484Y-55800946D01*
X167992509Y-55851742D01*
X167924688Y-55868536D01*
X167858553Y-55845998D01*
X167819516Y-55800946D01*
X167815050Y-55792182D01*
X167690109Y-55620213D01*
X167539786Y-55469890D01*
X167367820Y-55344951D01*
X167178414Y-55248444D01*
X167178413Y-55248443D01*
X167178412Y-55248443D01*
X166976243Y-55182754D01*
X166976241Y-55182753D01*
X166976240Y-55182753D01*
X166814957Y-55157208D01*
X166766287Y-55149500D01*
X166553713Y-55149500D01*
X166505042Y-55157208D01*
X166343760Y-55182753D01*
X166141585Y-55248444D01*
X165952179Y-55344951D01*
X165780213Y-55469890D01*
X165629890Y-55620213D01*
X165504949Y-55792182D01*
X165500484Y-55800946D01*
X165452509Y-55851742D01*
X165384688Y-55868536D01*
X165318553Y-55845998D01*
X165279516Y-55800946D01*
X165275050Y-55792182D01*
X165150109Y-55620213D01*
X164999786Y-55469890D01*
X164827820Y-55344951D01*
X164638414Y-55248444D01*
X164638413Y-55248443D01*
X164638412Y-55248443D01*
X164436243Y-55182754D01*
X164436241Y-55182753D01*
X164436240Y-55182753D01*
X164274957Y-55157208D01*
X164226287Y-55149500D01*
X164013713Y-55149500D01*
X163965042Y-55157208D01*
X163803760Y-55182753D01*
X163601585Y-55248444D01*
X163412179Y-55344951D01*
X163240213Y-55469890D01*
X163089890Y-55620213D01*
X162964949Y-55792182D01*
X162960484Y-55800946D01*
X162912509Y-55851742D01*
X162844688Y-55868536D01*
X162778553Y-55845998D01*
X162739516Y-55800946D01*
X162735050Y-55792182D01*
X162610109Y-55620213D01*
X162459786Y-55469890D01*
X162287820Y-55344951D01*
X162098414Y-55248444D01*
X162098413Y-55248443D01*
X162098412Y-55248443D01*
X161896243Y-55182754D01*
X161896241Y-55182753D01*
X161896240Y-55182753D01*
X161734957Y-55157208D01*
X161686287Y-55149500D01*
X161473713Y-55149500D01*
X161425042Y-55157208D01*
X161263760Y-55182753D01*
X161061585Y-55248444D01*
X160872179Y-55344951D01*
X160700213Y-55469890D01*
X160549890Y-55620213D01*
X160424949Y-55792182D01*
X160420202Y-55801499D01*
X160372227Y-55852293D01*
X160304405Y-55869087D01*
X160238271Y-55846548D01*
X160199234Y-55801495D01*
X160194626Y-55792452D01*
X160155270Y-55738282D01*
X160155269Y-55738282D01*
X159522962Y-56370590D01*
X159505925Y-56307007D01*
X159440099Y-56192993D01*
X159347007Y-56099901D01*
X159232993Y-56034075D01*
X159169409Y-56017037D01*
X159801716Y-55384728D01*
X159747550Y-55345375D01*
X159558217Y-55248904D01*
X159356129Y-55183242D01*
X159146246Y-55150000D01*
X158933754Y-55150000D01*
X158723872Y-55183242D01*
X158723869Y-55183242D01*
X158521782Y-55248904D01*
X158332439Y-55345380D01*
X158278282Y-55384727D01*
X158278282Y-55384728D01*
X158910591Y-56017037D01*
X158847007Y-56034075D01*
X158732993Y-56099901D01*
X158639901Y-56192993D01*
X158574075Y-56307007D01*
X158557037Y-56370591D01*
X157887642Y-55701196D01*
X157854319Y-55640609D01*
X157815527Y-55467364D01*
X157793354Y-55407913D01*
X157793350Y-55407906D01*
X157707190Y-55292812D01*
X157707187Y-55292809D01*
X157592093Y-55206649D01*
X157592086Y-55206645D01*
X157457379Y-55156403D01*
X157457372Y-55156401D01*
X157397844Y-55150000D01*
X156750000Y-55150000D01*
X156750000Y-56066988D01*
X156692993Y-56034075D01*
X156565826Y-56000000D01*
X156434174Y-56000000D01*
X156307007Y-56034075D01*
X156250000Y-56066988D01*
X156250000Y-55150000D01*
X155602155Y-55150000D01*
X155542627Y-55156401D01*
X155542620Y-55156403D01*
X155407913Y-55206645D01*
X155407906Y-55206649D01*
X155292812Y-55292809D01*
X155292809Y-55292812D01*
X155206649Y-55407906D01*
X155206645Y-55407913D01*
X155156403Y-55542620D01*
X155156401Y-55542627D01*
X155150000Y-55602155D01*
X155150000Y-56250000D01*
X156066988Y-56250000D01*
X156034075Y-56307007D01*
X156000000Y-56434174D01*
X156000000Y-56565826D01*
X156034075Y-56692993D01*
X156066988Y-56750000D01*
X155150000Y-56750000D01*
X155150000Y-57397844D01*
X155156401Y-57457372D01*
X155156403Y-57457379D01*
X155206645Y-57592086D01*
X155206649Y-57592093D01*
X155292809Y-57707187D01*
X155292812Y-57707190D01*
X155407906Y-57793350D01*
X155407913Y-57793354D01*
X155542620Y-57843596D01*
X155542627Y-57843598D01*
X155602155Y-57849999D01*
X155602172Y-57850000D01*
X156250000Y-57850000D01*
X156250000Y-56933012D01*
X156307007Y-56965925D01*
X156434174Y-57000000D01*
X156565826Y-57000000D01*
X156692993Y-56965925D01*
X156750000Y-56933012D01*
X156750000Y-57850000D01*
X157397828Y-57850000D01*
X157397844Y-57849999D01*
X157457372Y-57843598D01*
X157457379Y-57843596D01*
X157592086Y-57793354D01*
X157592093Y-57793350D01*
X157707187Y-57707190D01*
X157707190Y-57707187D01*
X157793350Y-57592093D01*
X157793354Y-57592086D01*
X157815529Y-57532632D01*
X157854319Y-57359390D01*
X157854682Y-57358734D01*
X157854642Y-57357984D01*
X157887642Y-57298802D01*
X158557037Y-56629408D01*
X158574075Y-56692993D01*
X158639901Y-56807007D01*
X158732993Y-56900099D01*
X158847007Y-56965925D01*
X158910590Y-56982962D01*
X158278282Y-57615269D01*
X158278282Y-57615270D01*
X158332449Y-57654624D01*
X158521782Y-57751095D01*
X158723870Y-57816757D01*
X158933754Y-57850000D01*
X159146246Y-57850000D01*
X159356127Y-57816757D01*
X159356130Y-57816757D01*
X159558217Y-57751095D01*
X159747554Y-57654622D01*
X159801716Y-57615270D01*
X159801717Y-57615270D01*
X159169408Y-56982962D01*
X159232993Y-56965925D01*
X159347007Y-56900099D01*
X159440099Y-56807007D01*
X159505925Y-56692993D01*
X159522962Y-56629408D01*
X160155270Y-57261717D01*
X160155270Y-57261716D01*
X160194622Y-57207555D01*
X160199232Y-57198507D01*
X160247205Y-57147709D01*
X160315025Y-57130912D01*
X160381161Y-57153447D01*
X160420204Y-57198504D01*
X160424949Y-57207817D01*
X160549890Y-57379786D01*
X160700213Y-57530109D01*
X160872179Y-57655048D01*
X160872181Y-57655049D01*
X160872184Y-57655051D01*
X161061588Y-57751557D01*
X161263757Y-57817246D01*
X161473713Y-57850500D01*
X161473714Y-57850500D01*
X161620902Y-57850500D01*
X161687941Y-57870185D01*
X161733696Y-57922989D01*
X161743640Y-57992147D01*
X161714615Y-58055703D01*
X161708583Y-58062181D01*
X161407584Y-58363181D01*
X161346261Y-58396666D01*
X161319903Y-58399500D01*
X154479057Y-58399500D01*
X154320942Y-58399500D01*
X154168215Y-58440423D01*
X154168214Y-58440423D01*
X154168212Y-58440424D01*
X154168209Y-58440425D01*
X154118096Y-58469359D01*
X154118095Y-58469360D01*
X154074689Y-58494420D01*
X154031285Y-58519479D01*
X154031282Y-58519481D01*
X151319481Y-61231282D01*
X151319480Y-61231284D01*
X151282061Y-61296097D01*
X151269361Y-61318094D01*
X151269359Y-61318096D01*
X151240425Y-61368209D01*
X151240424Y-61368210D01*
X151240423Y-61368215D01*
X151199499Y-61520943D01*
X151199499Y-61520945D01*
X151199499Y-61689046D01*
X151199500Y-61689059D01*
X151199500Y-64134216D01*
X151179815Y-64201255D01*
X151163181Y-64221897D01*
X151022863Y-64362214D01*
X151022860Y-64362218D01*
X150913371Y-64526079D01*
X150913364Y-64526092D01*
X150837950Y-64708160D01*
X150837947Y-64708170D01*
X150799500Y-64901456D01*
X150799500Y-64901459D01*
X150799500Y-65098541D01*
X150799500Y-65098543D01*
X150799499Y-65098543D01*
X150837947Y-65291829D01*
X150837950Y-65291839D01*
X150913364Y-65473907D01*
X150913371Y-65473920D01*
X151022860Y-65637781D01*
X151022863Y-65637785D01*
X151162214Y-65777136D01*
X151162218Y-65777139D01*
X151326079Y-65886628D01*
X151326092Y-65886635D01*
X151417125Y-65924341D01*
X151508165Y-65962051D01*
X151508176Y-65962053D01*
X151511491Y-65963059D01*
X151513023Y-65964063D01*
X151513793Y-65964382D01*
X151513732Y-65964527D01*
X151569931Y-66001355D01*
X151598390Y-66065166D01*
X151599500Y-66081721D01*
X151599500Y-66518278D01*
X151579815Y-66585317D01*
X151527011Y-66631072D01*
X151511499Y-66636937D01*
X151508167Y-66637947D01*
X151326092Y-66713364D01*
X151326079Y-66713371D01*
X151162218Y-66822860D01*
X151162214Y-66822863D01*
X151022863Y-66962214D01*
X151022860Y-66962218D01*
X150913371Y-67126079D01*
X150913364Y-67126092D01*
X150837950Y-67308160D01*
X150837947Y-67308170D01*
X150799500Y-67501456D01*
X150799500Y-67501459D01*
X150799500Y-67698541D01*
X150799500Y-67698543D01*
X150799499Y-67698543D01*
X150837947Y-67891829D01*
X150837950Y-67891839D01*
X150913364Y-68073907D01*
X150913371Y-68073920D01*
X151022860Y-68237781D01*
X151022863Y-68237785D01*
X151162214Y-68377136D01*
X151162218Y-68377139D01*
X151326079Y-68486628D01*
X151326092Y-68486635D01*
X151381333Y-68509516D01*
X151508165Y-68562051D01*
X151508176Y-68562053D01*
X151511491Y-68563059D01*
X151513023Y-68564063D01*
X151513793Y-68564382D01*
X151513732Y-68564527D01*
X151533147Y-68577250D01*
X151556703Y-68588008D01*
X151561897Y-68596090D01*
X151569931Y-68601355D01*
X151580477Y-68625001D01*
X151594477Y-68646786D01*
X151596515Y-68660962D01*
X151598390Y-68665166D01*
X151599500Y-68681721D01*
X151599500Y-68918278D01*
X151579815Y-68985317D01*
X151527011Y-69031072D01*
X151511499Y-69036937D01*
X151508167Y-69037947D01*
X151326092Y-69113364D01*
X151326079Y-69113371D01*
X151162218Y-69222860D01*
X151162214Y-69222863D01*
X151022863Y-69362214D01*
X151022860Y-69362218D01*
X150913371Y-69526079D01*
X150913364Y-69526092D01*
X150837950Y-69708160D01*
X150837947Y-69708170D01*
X150799500Y-69901456D01*
X150799500Y-69901459D01*
X150799500Y-70098541D01*
X150799500Y-70098543D01*
X150799499Y-70098543D01*
X150837947Y-70291829D01*
X150837950Y-70291839D01*
X150913364Y-70473907D01*
X150913371Y-70473920D01*
X151022860Y-70637781D01*
X151022863Y-70637785D01*
X151162214Y-70777136D01*
X151162218Y-70777139D01*
X151326079Y-70886628D01*
X151326092Y-70886635D01*
X151417125Y-70924341D01*
X151508165Y-70962051D01*
X151508176Y-70962053D01*
X151511491Y-70963059D01*
X151513023Y-70964063D01*
X151513793Y-70964382D01*
X151513732Y-70964527D01*
X151569931Y-71001355D01*
X151598390Y-71065166D01*
X151599500Y-71081721D01*
X151599500Y-71518278D01*
X151579815Y-71585317D01*
X151527011Y-71631072D01*
X151511499Y-71636937D01*
X151508167Y-71637947D01*
X151326092Y-71713364D01*
X151326079Y-71713371D01*
X151162218Y-71822860D01*
X151162214Y-71822863D01*
X151022863Y-71962214D01*
X151022860Y-71962218D01*
X150913371Y-72126079D01*
X150913364Y-72126092D01*
X150837950Y-72308160D01*
X150837947Y-72308170D01*
X150799500Y-72501456D01*
X150799500Y-72676500D01*
X150779815Y-72743539D01*
X150727011Y-72789294D01*
X150675500Y-72800500D01*
X132901097Y-72800500D01*
X132834058Y-72780815D01*
X132813416Y-72764181D01*
X128836819Y-68787584D01*
X128803334Y-68726261D01*
X128800500Y-68699903D01*
X128800500Y-66265784D01*
X128820185Y-66198745D01*
X128836819Y-66178103D01*
X128977136Y-66037785D01*
X128977139Y-66037782D01*
X129086632Y-65873914D01*
X129162051Y-65691835D01*
X129186489Y-65568978D01*
X129200500Y-65498543D01*
X129200500Y-65301456D01*
X129162052Y-65108170D01*
X129162051Y-65108169D01*
X129162051Y-65108165D01*
X129162049Y-65108160D01*
X129086635Y-64926092D01*
X129086628Y-64926079D01*
X128977139Y-64762218D01*
X128977136Y-64762214D01*
X128837785Y-64622863D01*
X128837781Y-64622860D01*
X128673920Y-64513371D01*
X128673907Y-64513364D01*
X128491839Y-64437950D01*
X128491829Y-64437947D01*
X128298543Y-64399500D01*
X128298541Y-64399500D01*
X128101459Y-64399500D01*
X128101457Y-64399500D01*
X127908170Y-64437947D01*
X127908160Y-64437950D01*
X127726092Y-64513364D01*
X127726079Y-64513371D01*
X127562218Y-64622860D01*
X127562214Y-64622863D01*
X127422863Y-64762214D01*
X127422860Y-64762218D01*
X127313371Y-64926079D01*
X127313364Y-64926092D01*
X127237950Y-65108160D01*
X127237947Y-65108170D01*
X127199500Y-65301456D01*
X127199500Y-65301459D01*
X127199500Y-65498541D01*
X127199500Y-65498543D01*
X127199499Y-65498543D01*
X116847257Y-65498543D01*
X116750249Y-65330521D01*
X116582628Y-65112072D01*
X116582623Y-65112066D01*
X116387933Y-64917376D01*
X116387926Y-64917370D01*
X116169483Y-64749754D01*
X116169482Y-64749753D01*
X116169479Y-64749751D01*
X116074407Y-64694861D01*
X115931028Y-64612080D01*
X115931017Y-64612075D01*
X115676630Y-64506704D01*
X115543649Y-64471072D01*
X115410666Y-64435440D01*
X115410660Y-64435439D01*
X115410655Y-64435438D01*
X115137684Y-64399501D01*
X115137679Y-64399500D01*
X115137674Y-64399500D01*
X114862326Y-64399500D01*
X114862320Y-64399500D01*
X114862315Y-64399501D01*
X114589344Y-64435438D01*
X114589337Y-64435439D01*
X114589334Y-64435440D01*
X114579967Y-64437950D01*
X114323369Y-64506704D01*
X114068982Y-64612075D01*
X114068971Y-64612080D01*
X113830516Y-64749754D01*
X113612073Y-64917370D01*
X113612066Y-64917376D01*
X113417376Y-65112066D01*
X113417370Y-65112073D01*
X113249754Y-65330516D01*
X113112080Y-65568971D01*
X113112075Y-65568982D01*
X113006704Y-65823369D01*
X112935441Y-66089331D01*
X112935438Y-66089344D01*
X112899501Y-66362315D01*
X112899500Y-66362332D01*
X95500500Y-66362332D01*
X95500500Y-61059902D01*
X100249500Y-61059902D01*
X100249500Y-61296097D01*
X100286446Y-61529368D01*
X100359433Y-61753996D01*
X100464181Y-61959574D01*
X100466657Y-61964433D01*
X100605483Y-62155510D01*
X100772490Y-62322517D01*
X100963567Y-62461343D01*
X101062991Y-62512002D01*
X101174003Y-62568566D01*
X101174005Y-62568566D01*
X101174008Y-62568568D01*
X101294412Y-62607689D01*
X101398631Y-62641553D01*
X101631903Y-62678500D01*
X101631908Y-62678500D01*
X101868097Y-62678500D01*
X102101368Y-62641553D01*
X102325992Y-62568568D01*
X102536433Y-62461343D01*
X102727510Y-62322517D01*
X102894517Y-62155510D01*
X103033343Y-61964433D01*
X103140568Y-61753992D01*
X103213553Y-61529368D01*
X103235955Y-61387928D01*
X103250500Y-61296097D01*
X103250500Y-61059902D01*
X106749500Y-61059902D01*
X106749500Y-61296097D01*
X106786446Y-61529368D01*
X106859433Y-61753996D01*
X106964181Y-61959574D01*
X106966657Y-61964433D01*
X107105483Y-62155510D01*
X107272490Y-62322517D01*
X107463567Y-62461343D01*
X107562991Y-62512002D01*
X107674003Y-62568566D01*
X107674005Y-62568566D01*
X107674008Y-62568568D01*
X107794412Y-62607689D01*
X107898631Y-62641553D01*
X108131903Y-62678500D01*
X108131908Y-62678500D01*
X108368097Y-62678500D01*
X108601368Y-62641553D01*
X108825992Y-62568568D01*
X109036433Y-62461343D01*
X109227510Y-62322517D01*
X109394517Y-62155510D01*
X109533343Y-61964433D01*
X109640568Y-61753992D01*
X109713553Y-61529368D01*
X109735955Y-61387928D01*
X109750500Y-61296097D01*
X109750500Y-61059902D01*
X109713553Y-60826631D01*
X109640566Y-60602003D01*
X109584002Y-60490991D01*
X109533343Y-60391567D01*
X109394517Y-60200490D01*
X109227510Y-60033483D01*
X109036433Y-59894657D01*
X108972980Y-59862326D01*
X108825996Y-59787433D01*
X108601368Y-59714446D01*
X108368097Y-59677500D01*
X108368092Y-59677500D01*
X108131908Y-59677500D01*
X108131903Y-59677500D01*
X107898631Y-59714446D01*
X107674003Y-59787433D01*
X107463566Y-59894657D01*
X107354550Y-59973862D01*
X107272490Y-60033483D01*
X107272488Y-60033485D01*
X107272487Y-60033485D01*
X107105485Y-60200487D01*
X107105485Y-60200488D01*
X107105483Y-60200490D01*
X107064664Y-60256673D01*
X106966657Y-60391566D01*
X106859433Y-60602003D01*
X106786446Y-60826631D01*
X106749500Y-61059902D01*
X103250500Y-61059902D01*
X103213553Y-60826631D01*
X103140566Y-60602003D01*
X103084002Y-60490991D01*
X103033343Y-60391567D01*
X102894517Y-60200490D01*
X102727510Y-60033483D01*
X102536433Y-59894657D01*
X102472980Y-59862326D01*
X102325996Y-59787433D01*
X102101368Y-59714446D01*
X101868097Y-59677500D01*
X101868092Y-59677500D01*
X101631908Y-59677500D01*
X101631903Y-59677500D01*
X101398631Y-59714446D01*
X101174003Y-59787433D01*
X100963566Y-59894657D01*
X100854550Y-59973862D01*
X100772490Y-60033483D01*
X100772488Y-60033485D01*
X100772487Y-60033485D01*
X100605485Y-60200487D01*
X100605485Y-60200488D01*
X100605483Y-60200490D01*
X100564664Y-60256673D01*
X100466657Y-60391566D01*
X100359433Y-60602003D01*
X100286446Y-60826631D01*
X100249500Y-61059902D01*
X95500500Y-61059902D01*
X95500500Y-56559902D01*
X100249500Y-56559902D01*
X100249500Y-56796097D01*
X100286446Y-57029368D01*
X100359433Y-57253996D01*
X100423527Y-57379786D01*
X100466657Y-57464433D01*
X100605483Y-57655510D01*
X100772490Y-57822517D01*
X100963567Y-57961343D01*
X101052593Y-58006704D01*
X101174003Y-58068566D01*
X101174005Y-58068566D01*
X101174008Y-58068568D01*
X101294412Y-58107689D01*
X101398631Y-58141553D01*
X101631903Y-58178500D01*
X101631908Y-58178500D01*
X101868097Y-58178500D01*
X102101368Y-58141553D01*
X102325992Y-58068568D01*
X102536433Y-57961343D01*
X102727510Y-57822517D01*
X102894517Y-57655510D01*
X103033343Y-57464433D01*
X103140568Y-57253992D01*
X103213553Y-57029368D01*
X103218204Y-57000000D01*
X103250500Y-56796097D01*
X103250500Y-56559902D01*
X106749500Y-56559902D01*
X106749500Y-56796097D01*
X106786446Y-57029368D01*
X106859433Y-57253996D01*
X106923527Y-57379786D01*
X106966657Y-57464433D01*
X107105483Y-57655510D01*
X107272490Y-57822517D01*
X107463567Y-57961343D01*
X107552593Y-58006704D01*
X107674003Y-58068566D01*
X107674005Y-58068566D01*
X107674008Y-58068568D01*
X107794412Y-58107689D01*
X107898631Y-58141553D01*
X108131903Y-58178500D01*
X108131908Y-58178500D01*
X108368097Y-58178500D01*
X108601368Y-58141553D01*
X108825992Y-58068568D01*
X109036433Y-57961343D01*
X109227510Y-57822517D01*
X109394517Y-57655510D01*
X109533343Y-57464433D01*
X109640568Y-57253992D01*
X109713553Y-57029368D01*
X109718204Y-57000000D01*
X109750500Y-56796097D01*
X109750500Y-56559902D01*
X109713553Y-56326631D01*
X109640566Y-56102003D01*
X109533342Y-55891566D01*
X109516610Y-55868536D01*
X109394517Y-55700490D01*
X109227510Y-55533483D01*
X109036433Y-55394657D01*
X109016944Y-55384727D01*
X108825996Y-55287433D01*
X108601368Y-55214446D01*
X108368097Y-55177500D01*
X108368092Y-55177500D01*
X108131908Y-55177500D01*
X108131903Y-55177500D01*
X107898631Y-55214446D01*
X107674003Y-55287433D01*
X107463566Y-55394657D01*
X107363495Y-55467364D01*
X107272490Y-55533483D01*
X107272488Y-55533485D01*
X107272487Y-55533485D01*
X107105485Y-55700487D01*
X107105485Y-55700488D01*
X107105483Y-55700490D01*
X107045862Y-55782550D01*
X106966657Y-55891566D01*
X106859433Y-56102003D01*
X106786446Y-56326631D01*
X106749500Y-56559902D01*
X103250500Y-56559902D01*
X103213553Y-56326631D01*
X103140566Y-56102003D01*
X103033342Y-55891566D01*
X103016610Y-55868536D01*
X102894517Y-55700490D01*
X102727510Y-55533483D01*
X102536433Y-55394657D01*
X102516944Y-55384727D01*
X102325996Y-55287433D01*
X102101368Y-55214446D01*
X101868097Y-55177500D01*
X101868092Y-55177500D01*
X101631908Y-55177500D01*
X101631903Y-55177500D01*
X101398631Y-55214446D01*
X101174003Y-55287433D01*
X100963566Y-55394657D01*
X100863495Y-55467364D01*
X100772490Y-55533483D01*
X100772488Y-55533485D01*
X100772487Y-55533485D01*
X100605485Y-55700487D01*
X100605485Y-55700488D01*
X100605483Y-55700490D01*
X100545862Y-55782550D01*
X100466657Y-55891566D01*
X100359433Y-56102003D01*
X100286446Y-56326631D01*
X100249500Y-56559902D01*
X95500500Y-56559902D01*
X95500500Y-56503246D01*
X95500670Y-56496756D01*
X95516592Y-56192953D01*
X95517949Y-56180046D01*
X95530310Y-56102003D01*
X95565029Y-55882786D01*
X95567723Y-55870107D01*
X95645627Y-55579368D01*
X95649636Y-55567033D01*
X95659005Y-55542627D01*
X95757493Y-55286054D01*
X95762763Y-55274215D01*
X95899415Y-55006023D01*
X95905891Y-54994808D01*
X96069819Y-54742380D01*
X96077434Y-54731899D01*
X96266858Y-54497979D01*
X96275525Y-54488354D01*
X96488354Y-54275525D01*
X96497979Y-54266858D01*
X96731899Y-54077434D01*
X96742380Y-54069819D01*
X96994808Y-53905891D01*
X97006023Y-53899415D01*
X97274215Y-53762763D01*
X97286054Y-53757493D01*
X97567040Y-53649633D01*
X97579368Y-53645627D01*
X97870107Y-53567723D01*
X97882786Y-53565029D01*
X98180046Y-53517949D01*
X98192951Y-53516592D01*
X98496756Y-53500669D01*
X98503246Y-53500500D01*
X98565892Y-53500500D01*
X133375500Y-53500500D01*
X133442539Y-53520185D01*
G37*
%TD.AperFunction*%
%TD*%
M02*
