%TF.GenerationSoftware,KiCad,Pcbnew,9.0.1*%
%TF.CreationDate,2025-07-14T13:59:50-05:00*%
%TF.ProjectId,Cardbot Controller,43617264-626f-4742-9043-6f6e74726f6c,rev?*%
%TF.SameCoordinates,Original*%
%TF.FileFunction,Legend,Top*%
%TF.FilePolarity,Positive*%
%FSLAX46Y46*%
G04 Gerber Fmt 4.6, Leading zero omitted, Abs format (unit mm)*
G04 Created by KiCad (PCBNEW 9.0.1) date 2025-07-14 13:59:50*
%MOMM*%
%LPD*%
G01*
G04 APERTURE LIST*
%ADD10C,0.361156*%
%ADD11C,0.100000*%
%ADD12C,0.000000*%
%ADD13C,0.347662*%
%ADD14C,0.150000*%
%ADD15C,0.120000*%
G04 APERTURE END LIST*
D10*
X122989888Y-62269871D02*
X122984580Y-62271053D01*
X122979303Y-62272208D01*
X122974071Y-62273332D01*
X122968868Y-62274430D01*
X122963710Y-62275498D01*
X122958582Y-62276539D01*
X122953497Y-62277552D01*
X122948441Y-62278538D01*
X122943429Y-62279495D01*
X122938446Y-62280426D01*
X122933505Y-62281329D01*
X122928594Y-62282206D01*
X122923724Y-62283056D01*
X122918883Y-62283880D01*
X122914083Y-62284677D01*
X122909312Y-62285449D01*
X122904581Y-62286195D01*
X122899879Y-62286915D01*
X122895217Y-62287610D01*
X122890583Y-62288279D01*
X122885988Y-62288923D01*
X122881421Y-62289543D01*
X122876894Y-62290138D01*
X122872393Y-62290708D01*
X122867931Y-62291254D01*
X122863497Y-62291776D01*
X122859100Y-62292274D01*
X122854730Y-62292749D01*
X122850398Y-62293199D01*
X122846092Y-62293627D01*
X122841823Y-62294030D01*
X122837580Y-62294412D01*
X122833375Y-62294769D01*
X122829194Y-62295105D01*
X122825050Y-62295418D01*
X122820932Y-62295709D01*
X122816849Y-62295977D01*
X122812792Y-62296223D01*
X122808769Y-62296448D01*
X122804772Y-62296651D01*
X122800809Y-62296832D01*
X122796871Y-62296992D01*
X122792967Y-62297131D01*
X122789088Y-62297249D01*
X122785242Y-62297346D01*
X122781420Y-62297422D01*
X122777632Y-62297478D01*
X122773867Y-62297513D01*
X122770135Y-62297528D01*
X122766427Y-62297523D01*
X122762751Y-62297498D01*
X122759098Y-62297454D01*
X122755477Y-62297389D01*
X122751879Y-62297305D01*
X122748313Y-62297202D01*
X122744769Y-62297080D01*
X122741256Y-62296938D01*
X122737765Y-62296778D01*
X122734305Y-62296599D01*
X122730868Y-62296401D01*
X122727459Y-62296185D01*
X122724074Y-62295950D01*
X122720717Y-62295697D01*
X122717382Y-62295426D01*
X122714076Y-62295138D01*
X122710792Y-62294831D01*
X122707536Y-62294506D01*
X122704302Y-62294164D01*
X122701095Y-62293805D01*
X122697910Y-62293427D01*
X122694752Y-62293033D01*
X122691615Y-62292622D01*
X122688505Y-62292194D01*
X122685416Y-62291748D01*
X122682353Y-62291287D01*
X122679311Y-62290808D01*
X122676295Y-62290313D01*
X122673299Y-62289801D01*
X122670328Y-62289273D01*
X122667378Y-62288729D01*
X122664453Y-62288169D01*
X122661548Y-62287592D01*
X122658667Y-62287000D01*
X122655807Y-62286392D01*
X122652970Y-62285768D01*
X122650153Y-62285128D01*
X122647360Y-62284473D01*
X122644586Y-62283802D01*
X122641835Y-62283116D01*
X122639104Y-62282415D01*
X122636395Y-62281699D01*
X122633705Y-62280967D01*
X122631038Y-62280220D01*
X122628390Y-62279458D01*
X122625763Y-62278682D01*
X122623155Y-62277890D01*
X122620569Y-62277084D01*
X122618001Y-62276263D01*
X122615454Y-62275427D01*
X122612926Y-62274577D01*
X122610418Y-62273712D01*
X122607929Y-62272833D01*
X122605459Y-62271940D01*
X122603008Y-62271032D01*
X122600577Y-62270110D01*
X122598163Y-62269173D01*
X122595769Y-62268223D01*
X122593393Y-62267258D01*
X122591035Y-62266279D01*
X122588696Y-62265286D01*
X122586375Y-62264280D01*
X122584071Y-62263259D01*
X122581786Y-62262224D01*
X122579518Y-62261175D01*
X122577267Y-62260113D01*
X122575035Y-62259037D01*
X122572819Y-62257946D01*
X122570621Y-62256843D01*
X122568439Y-62255725D01*
X122566275Y-62254594D01*
X122564127Y-62253448D01*
X122561997Y-62252290D01*
X122559882Y-62251117D01*
X122557785Y-62249931D01*
X122555703Y-62248731D01*
X122553638Y-62247518D01*
X122551588Y-62246290D01*
X122549556Y-62245050D01*
X122547538Y-62243795D01*
X122545538Y-62242528D01*
X122541583Y-62239951D01*
X122537689Y-62237319D01*
X122533857Y-62234633D01*
X122530086Y-62231891D01*
X122526374Y-62229095D01*
X122522722Y-62226243D01*
X122519128Y-62223336D01*
X122515592Y-62220374D01*
X122512113Y-62217355D01*
X122508691Y-62214280D01*
X122505324Y-62211148D01*
X122502014Y-62207959D01*
X122498758Y-62204712D01*
X122495558Y-62201408D01*
X122492411Y-62198044D01*
X122489319Y-62194622D01*
X122486280Y-62191140D01*
X122483294Y-62187598D01*
X122480361Y-62183995D01*
X122477481Y-62180330D01*
X122474653Y-62176603D01*
X122471878Y-62172813D01*
X122469155Y-62168960D01*
X122466484Y-62165041D01*
X122463865Y-62161058D01*
X122461298Y-62157009D01*
X122458783Y-62152892D01*
X122456320Y-62148708D01*
X122453909Y-62144455D01*
X122451550Y-62140132D01*
X122449244Y-62135739D01*
X122446990Y-62131274D01*
X122444789Y-62126737D01*
X122442640Y-62122126D01*
X122440545Y-62117440D01*
X122438504Y-62112679D01*
X122436516Y-62107841D01*
X122434583Y-62102925D01*
X122432704Y-62097930D01*
X122430880Y-62092855D01*
X122429112Y-62087699D01*
X122427399Y-62082460D01*
X122425744Y-62077138D01*
X122424145Y-62071731D01*
X122422604Y-62066238D01*
X122421122Y-62060658D01*
X122419698Y-62054989D01*
X122418334Y-62049231D01*
X122417030Y-62043382D01*
X122415788Y-62037440D01*
X122414607Y-62031405D01*
X122413489Y-62025275D01*
X122412434Y-62019048D01*
X122411444Y-62012724D01*
X122410518Y-62006301D01*
X122409659Y-61999778D01*
X122408867Y-61993153D01*
X122408142Y-61986425D01*
X122407486Y-61979593D01*
X122406900Y-61972655D01*
X122406385Y-61965609D01*
X122405941Y-61958454D01*
X122405571Y-61951189D01*
X122405274Y-61943812D01*
X122405052Y-61936321D01*
X122404907Y-61928716D01*
X122404838Y-61920993D01*
X122404848Y-61913153D01*
X122404938Y-61905192D01*
X122405108Y-61897109D01*
X122405360Y-61888903D01*
X122405696Y-61880571D01*
X122406116Y-61872111D01*
X122406622Y-61863522D01*
X122407214Y-61854800D01*
X122407896Y-61845944D01*
X122408667Y-61836951D01*
X122409530Y-61827818D01*
X122410485Y-61818543D01*
X122411535Y-61809120D01*
X122412682Y-61799548D01*
X122413926Y-61789821D01*
X122415270Y-61779934D01*
X122416716Y-61769882D01*
X122418266Y-61759657D01*
X122419922Y-61749251D01*
X122421689Y-61738654D01*
X122423569Y-61727852D01*
X122425566Y-61716830D01*
X122427687Y-61705566D01*
X122429937Y-61694032D01*
X122432326Y-61682186D01*
X122434869Y-61669972D01*
X122437584Y-61657300D01*
X122439145Y-61650164D01*
D11*
X160300000Y-57700000D02*
X160300000Y-56600000D01*
D10*
X123094024Y-61022547D02*
X123099236Y-61021339D01*
X123104423Y-61020158D01*
X123109574Y-61019006D01*
X123114700Y-61017879D01*
X123119792Y-61016781D01*
X123124858Y-61015708D01*
X123129889Y-61014663D01*
X123134896Y-61013644D01*
X123139868Y-61012652D01*
X123144816Y-61011686D01*
X123149730Y-61010746D01*
X123154619Y-61009831D01*
X123159476Y-61008943D01*
X123164307Y-61008080D01*
X123169106Y-61007243D01*
X123173881Y-61006430D01*
X123178623Y-61005643D01*
X123183341Y-61004881D01*
X123188026Y-61004143D01*
X123192688Y-61003430D01*
X123197318Y-61002742D01*
X123201925Y-61002077D01*
X123206500Y-61001438D01*
X123211052Y-61000821D01*
X123215572Y-61000229D01*
X123220069Y-60999661D01*
X123224536Y-60999116D01*
X123228979Y-60998594D01*
X123233392Y-60998096D01*
X123237783Y-60997620D01*
X123242143Y-60997168D01*
X123246480Y-60996738D01*
X123250788Y-60996332D01*
X123255074Y-60995947D01*
X123259330Y-60995585D01*
X123263564Y-60995245D01*
X123267769Y-60994928D01*
X123271951Y-60994632D01*
X123276106Y-60994358D01*
X123280238Y-60994106D01*
X123284342Y-60993875D01*
X123288424Y-60993665D01*
X123292479Y-60993477D01*
X123296512Y-60993310D01*
X123300517Y-60993164D01*
X123304502Y-60993039D01*
X123308459Y-60992935D01*
X123312394Y-60992851D01*
X123316303Y-60992788D01*
X123320191Y-60992745D01*
X123324053Y-60992722D01*
X123327893Y-60992720D01*
X123331708Y-60992737D01*
X123335502Y-60992774D01*
X123339270Y-60992831D01*
X123343018Y-60992908D01*
X123346740Y-60993004D01*
X123350442Y-60993119D01*
X123354119Y-60993254D01*
X123357776Y-60993408D01*
X123361408Y-60993581D01*
X123365020Y-60993773D01*
X123368608Y-60993983D01*
X123372176Y-60994213D01*
X123375720Y-60994461D01*
X123379244Y-60994727D01*
X123382745Y-60995012D01*
X123386226Y-60995315D01*
X123389684Y-60995637D01*
X123393122Y-60995976D01*
X123396538Y-60996333D01*
X123399934Y-60996709D01*
X123403308Y-60997102D01*
X123406663Y-60997512D01*
X123409995Y-60997941D01*
X123413308Y-60998387D01*
X123416600Y-60998850D01*
X123419873Y-60999330D01*
X123423124Y-60999828D01*
X123426357Y-61000343D01*
X123429568Y-61000874D01*
X123432761Y-61001423D01*
X123435933Y-61001989D01*
X123439087Y-61002572D01*
X123442220Y-61003171D01*
X123445335Y-61003787D01*
X123448429Y-61004419D01*
X123451506Y-61005068D01*
X123454563Y-61005733D01*
X123457601Y-61006415D01*
X123460620Y-61007112D01*
X123463621Y-61007826D01*
X123466604Y-61008556D01*
X123469568Y-61009303D01*
X123472514Y-61010065D01*
X123475441Y-61010843D01*
X123478351Y-61011637D01*
X123481242Y-61012446D01*
X123484116Y-61013272D01*
X123486972Y-61014113D01*
X123489810Y-61014970D01*
X123492631Y-61015842D01*
X123495434Y-61016729D01*
X123498220Y-61017633D01*
X123500989Y-61018551D01*
X123503741Y-61019485D01*
X123506476Y-61020434D01*
X123509193Y-61021399D01*
X123511895Y-61022378D01*
X123514578Y-61023373D01*
X123517247Y-61024383D01*
X123519897Y-61025408D01*
X123522533Y-61026448D01*
X123525150Y-61027503D01*
X123527753Y-61028574D01*
X123530339Y-61029658D01*
X123532910Y-61030759D01*
X123535463Y-61031873D01*
X123538002Y-61033003D01*
X123540524Y-61034147D01*
X123543032Y-61035307D01*
X123545522Y-61036480D01*
X123547999Y-61037670D01*
X123550458Y-61038873D01*
X123552904Y-61040091D01*
X123555333Y-61041324D01*
X123557749Y-61042572D01*
X123560148Y-61043834D01*
X123564902Y-61046402D01*
X123569597Y-61049029D01*
X123574234Y-61051715D01*
X123578812Y-61054458D01*
X123583333Y-61057261D01*
X123587797Y-61060122D01*
X123592204Y-61063041D01*
X123596556Y-61066019D01*
X123600852Y-61069055D01*
X123605093Y-61072151D01*
X123609280Y-61075305D01*
X123613413Y-61078519D01*
X123617493Y-61081791D01*
X123621519Y-61085124D01*
X123625492Y-61088516D01*
X123629413Y-61091968D01*
X123633282Y-61095480D01*
X123637099Y-61099053D01*
X123640864Y-61102687D01*
X123644578Y-61106382D01*
X123648241Y-61110139D01*
X123651853Y-61113958D01*
X123655414Y-61117839D01*
X123658925Y-61121783D01*
X123662385Y-61125790D01*
X123665795Y-61129861D01*
X123669155Y-61133996D01*
X123672464Y-61138195D01*
X123675723Y-61142460D01*
X123678932Y-61146790D01*
X123682091Y-61151187D01*
X123685199Y-61155650D01*
X123688257Y-61160180D01*
X123691265Y-61164778D01*
X123694222Y-61169444D01*
X123697128Y-61174179D01*
X123699983Y-61178983D01*
X123702786Y-61183857D01*
X123705539Y-61188801D01*
X123708239Y-61193817D01*
X123710888Y-61198904D01*
X123713484Y-61204063D01*
X123716028Y-61209295D01*
X123718518Y-61214599D01*
X123720955Y-61219978D01*
X123723339Y-61225431D01*
X123725667Y-61230958D01*
X123727941Y-61236561D01*
X123730160Y-61242239D01*
X123732323Y-61247993D01*
X123734429Y-61253824D01*
X123736479Y-61259732D01*
X123738471Y-61265718D01*
X123740405Y-61271781D01*
X123742280Y-61277922D01*
X123744096Y-61284141D01*
X123745852Y-61290439D01*
X123747547Y-61296816D01*
X123749181Y-61303271D01*
X123750753Y-61309806D01*
X123752261Y-61316419D01*
X123753706Y-61323112D01*
X123755087Y-61329884D01*
X123756402Y-61336734D01*
X123757652Y-61343663D01*
X123758834Y-61350671D01*
X123759949Y-61357756D01*
X123760996Y-61364918D01*
X123761974Y-61372157D01*
X123762881Y-61379473D01*
X123763718Y-61386863D01*
X123764483Y-61394327D01*
X123765176Y-61401865D01*
X123765795Y-61409475D01*
X123766341Y-61417154D01*
X123766811Y-61424903D01*
X123767206Y-61432718D01*
X123767525Y-61440598D01*
X123767767Y-61448541D01*
X123767931Y-61456544D01*
X123768017Y-61464605D01*
X123768025Y-61472720D01*
X123767952Y-61480885D01*
X123767801Y-61489099D01*
X123767569Y-61497355D01*
X123767256Y-61505651D01*
X123766863Y-61513980D01*
X123766389Y-61522339D01*
X123765835Y-61530721D01*
X123765200Y-61539119D01*
X123764484Y-61547529D01*
X123763689Y-61555941D01*
X123762815Y-61564349D01*
X123761863Y-61572744D01*
X123760834Y-61581116D01*
X123759729Y-61589456D01*
X123758550Y-61597753D01*
X123757298Y-61605997D01*
X123755977Y-61614174D01*
X123754589Y-61622273D01*
X123753136Y-61630279D01*
X123751622Y-61638179D01*
X123750052Y-61645957D01*
X123749166Y-61650173D01*
X120777304Y-68236537D02*
X120839591Y-68240560D01*
X120902197Y-68247971D01*
X120965238Y-68258492D01*
X121093090Y-68287755D01*
X121224078Y-68326128D01*
X121359134Y-68371389D01*
X121499188Y-68421316D01*
X121757505Y-68512056D01*
X120466569Y-68276963D01*
X120529010Y-68259880D01*
X120591188Y-68247574D01*
X120653218Y-68239766D01*
X120715218Y-68236180D01*
X120777304Y-68236537D01*
X120788037Y-66006365D02*
X120790245Y-66005119D01*
X120792445Y-66003901D01*
X120794629Y-66002714D01*
X120796805Y-66001554D01*
X120798966Y-66000425D01*
X120801119Y-65999322D01*
X120803257Y-65998250D01*
X120805388Y-65997204D01*
X120807504Y-65996187D01*
X120809612Y-65995196D01*
X120811706Y-65994234D01*
X120813792Y-65993298D01*
X120815864Y-65992389D01*
X120817929Y-65991506D01*
X120819980Y-65990651D01*
X120822024Y-65989820D01*
X120824054Y-65989016D01*
X120826077Y-65988236D01*
X120828087Y-65987483D01*
X120830091Y-65986754D01*
X120832081Y-65986050D01*
X120834064Y-65985371D01*
X120836035Y-65984716D01*
X120837999Y-65984086D01*
X120839951Y-65983479D01*
X120841896Y-65982896D01*
X120843830Y-65982338D01*
X120845757Y-65981802D01*
X120847672Y-65981290D01*
X120849581Y-65980800D01*
X120851479Y-65980334D01*
X120853371Y-65979890D01*
X120855252Y-65979469D01*
X120857127Y-65979069D01*
X120858991Y-65978693D01*
X120860849Y-65978338D01*
X120862697Y-65978005D01*
X120864539Y-65977694D01*
X120866372Y-65977404D01*
X120868198Y-65977136D01*
X120870016Y-65976889D01*
X120871827Y-65976664D01*
X120873630Y-65976459D01*
X120875426Y-65976275D01*
X120877215Y-65976112D01*
X120878997Y-65975970D01*
X120880772Y-65975848D01*
X120882541Y-65975747D01*
X120884303Y-65975666D01*
X120886058Y-65975606D01*
X120887807Y-65975566D01*
X120889549Y-65975545D01*
X120891286Y-65975545D01*
X120893016Y-65975565D01*
X120894741Y-65975605D01*
X120896459Y-65975664D01*
X120898173Y-65975743D01*
X120899880Y-65975842D01*
X120901582Y-65975961D01*
X120903278Y-65976099D01*
X120904970Y-65976257D01*
X120906656Y-65976435D01*
X120910013Y-65976848D01*
X120913352Y-65977340D01*
X120916671Y-65977909D01*
X120919974Y-65978557D01*
X120923260Y-65979282D01*
X120926530Y-65980086D01*
X120929785Y-65980968D01*
X120933026Y-65981929D01*
X120936253Y-65982969D01*
X120939467Y-65984090D01*
X120942670Y-65985290D01*
X120945861Y-65986571D01*
X120949041Y-65987935D01*
X120952211Y-65989380D01*
X120955372Y-65990910D01*
X120958523Y-65992523D01*
X120961667Y-65994222D01*
X120964802Y-65996008D01*
X120967929Y-65997881D01*
X120971050Y-65999843D01*
X120974163Y-66001895D01*
X120977271Y-66004039D01*
X120980372Y-66006276D01*
X120983467Y-66008607D01*
X120986557Y-66011034D01*
X120989642Y-66013558D01*
X120992721Y-66016182D01*
X120995795Y-66018906D01*
X120998864Y-66021732D01*
X121001929Y-66024663D01*
X121004988Y-66027700D01*
X121008042Y-66030844D01*
X121011092Y-66034098D01*
X121014136Y-66037464D01*
X121017175Y-66040943D01*
X121020208Y-66044537D01*
X121023236Y-66048248D01*
X121026258Y-66052079D01*
X121029273Y-66056031D01*
X121032282Y-66060106D01*
X121035284Y-66064306D01*
X121038279Y-66068633D01*
X121041266Y-66073090D01*
X121044245Y-66077678D01*
X121047214Y-66082399D01*
X121050175Y-66087256D01*
X121053125Y-66092250D01*
X121056065Y-66097383D01*
X121058994Y-66102657D01*
X121061910Y-66108074D01*
X121064814Y-66113636D01*
X121067704Y-66119345D01*
X121070581Y-66125203D01*
X121073441Y-66131211D01*
X121076286Y-66137371D01*
X121079114Y-66143685D01*
X121081923Y-66150155D01*
X121084714Y-66156781D01*
X121087485Y-66163565D01*
X121090234Y-66170509D01*
X121092962Y-66177614D01*
X121095666Y-66184880D01*
X121098345Y-66192310D01*
X121100998Y-66199903D01*
X121103624Y-66207661D01*
X121106222Y-66215584D01*
X121108790Y-66223672D01*
X121111327Y-66231926D01*
X121113832Y-66240346D01*
X121116302Y-66248931D01*
X121118737Y-66257682D01*
X121121135Y-66266597D01*
X121123494Y-66275676D01*
X121125813Y-66284918D01*
X121128091Y-66294321D01*
X121130325Y-66303884D01*
X121132514Y-66313605D01*
X121134656Y-66323481D01*
X121136749Y-66333509D01*
X121138793Y-66343687D01*
X121140784Y-66354011D01*
X121142722Y-66364478D01*
X121144604Y-66375083D01*
X121146428Y-66385821D01*
X121148194Y-66396687D01*
X121149899Y-66407675D01*
X121151541Y-66418780D01*
X121153119Y-66429994D01*
X121154631Y-66441311D01*
X121156075Y-66452722D01*
X121157450Y-66464220D01*
X121158754Y-66475795D01*
X121159985Y-66487438D01*
X121161142Y-66499138D01*
X121162224Y-66510887D01*
X121163230Y-66522671D01*
X121164157Y-66534481D01*
X121165006Y-66546303D01*
X121165775Y-66558125D01*
X121166463Y-66569934D01*
X121167070Y-66581717D01*
X121167595Y-66593459D01*
X121168038Y-66605147D01*
X121168229Y-66610969D01*
X121168399Y-66616767D01*
X121168548Y-66622548D01*
X121168677Y-66628303D01*
X121168786Y-66634036D01*
X121168874Y-66639742D01*
X121168942Y-66645420D01*
X121168989Y-66651069D01*
X121169016Y-66656684D01*
X121169023Y-66662269D01*
X121169010Y-66667814D01*
X121168977Y-66673327D01*
X121168924Y-66678796D01*
X121168852Y-66684231D01*
X121168761Y-66689616D01*
X121168650Y-66694965D01*
X121168520Y-66700260D01*
X121168371Y-66705518D01*
X121168204Y-66710715D01*
X121168018Y-66715875D01*
X121167814Y-66720970D01*
X121167592Y-66726025D01*
X121167353Y-66731011D01*
X121167096Y-66735956D01*
X121166822Y-66740828D01*
X121166531Y-66745657D01*
X121166225Y-66750410D01*
X121165901Y-66755119D01*
X121165563Y-66759748D01*
X121165207Y-66764333D01*
X121164839Y-66768833D01*
X121164453Y-66773289D01*
X121164056Y-66777659D01*
X121163642Y-66781982D01*
X121163560Y-66782811D01*
X123163255Y-62297485D02*
X123346055Y-64842724D01*
X122514270Y-64107052D02*
X122363214Y-64690494D01*
X122360156Y-64700333D01*
X122357667Y-64711797D01*
X122355723Y-64726881D01*
X122355233Y-64735606D01*
X122355213Y-64745028D01*
X122355773Y-64755076D01*
X122357025Y-64765681D01*
X122359080Y-64776774D01*
X122362048Y-64788284D01*
X122366042Y-64800142D01*
X122371171Y-64812279D01*
X122377548Y-64824625D01*
X122385283Y-64837110D01*
X122394487Y-64849664D01*
X122405272Y-64862219D01*
X122417748Y-64874704D01*
X122432027Y-64887050D01*
X122448219Y-64899187D01*
X122466437Y-64911046D01*
X122486790Y-64922557D01*
X122509390Y-64933650D01*
X122534348Y-64944255D01*
X122561776Y-64954304D01*
X122591783Y-64963727D01*
X122624482Y-64972453D01*
X122659983Y-64980414D01*
X122698398Y-64987539D01*
X122737712Y-64993403D01*
X122775830Y-64997674D01*
X122812746Y-65000446D01*
X122848459Y-65001809D01*
X122916261Y-65000680D01*
X122979207Y-64995026D01*
X123037271Y-64985584D01*
X123090426Y-64973092D01*
X123138646Y-64958288D01*
X123181904Y-64941910D01*
X123220173Y-64924696D01*
X123253426Y-64907383D01*
X123281636Y-64890709D01*
X123304777Y-64875413D01*
X123335745Y-64851902D01*
X123346116Y-64842753D01*
X123298049Y-64173111D01*
X125994654Y-64400323D01*
X124085015Y-65603961D01*
X119827886Y-65195889D01*
X122215029Y-64081853D01*
X122514270Y-64107052D01*
D12*
G36*
X120794677Y-66516537D02*
G01*
X120801228Y-66517567D01*
X120807683Y-66519262D01*
X120814035Y-66521607D01*
X120820275Y-66524584D01*
X120826396Y-66528177D01*
X120832389Y-66532369D01*
X120838246Y-66537143D01*
X120843960Y-66542482D01*
X120849521Y-66548370D01*
X120854923Y-66554790D01*
X120860156Y-66561725D01*
X120865213Y-66569158D01*
X120870086Y-66577074D01*
X120874766Y-66585454D01*
X120879246Y-66594282D01*
X120883516Y-66603541D01*
X120887570Y-66613216D01*
X120891400Y-66623288D01*
X120894996Y-66633741D01*
X120898351Y-66644559D01*
X120901456Y-66655724D01*
X120904305Y-66667220D01*
X120906888Y-66679030D01*
X120909197Y-66691138D01*
X120911225Y-66703526D01*
X120912963Y-66716179D01*
X120914404Y-66729078D01*
X120915538Y-66742208D01*
X120916358Y-66755551D01*
X120916856Y-66769091D01*
X120917024Y-66782811D01*
X120916358Y-66810072D01*
X120914404Y-66836545D01*
X120911225Y-66862096D01*
X120906888Y-66886592D01*
X120901456Y-66909898D01*
X120894996Y-66931881D01*
X120887570Y-66952407D01*
X120879246Y-66971340D01*
X120870086Y-66988549D01*
X120860156Y-67003897D01*
X120849521Y-67017252D01*
X120838246Y-67028479D01*
X120832389Y-67033253D01*
X120826396Y-67037445D01*
X120820275Y-67041038D01*
X120814035Y-67044015D01*
X120807683Y-67046360D01*
X120801228Y-67048055D01*
X120794677Y-67049085D01*
X120788040Y-67049432D01*
X120781402Y-67049085D01*
X120774852Y-67048055D01*
X120768397Y-67046360D01*
X120762045Y-67044015D01*
X120755805Y-67041038D01*
X120749684Y-67037445D01*
X120743691Y-67033253D01*
X120737833Y-67028479D01*
X120732120Y-67023140D01*
X120726558Y-67017252D01*
X120721157Y-67010832D01*
X120715924Y-67003897D01*
X120710867Y-66996464D01*
X120705994Y-66988549D01*
X120701314Y-66980169D01*
X120696834Y-66971340D01*
X120692563Y-66962081D01*
X120688509Y-66952407D01*
X120684680Y-66942335D01*
X120681084Y-66931881D01*
X120677729Y-66921064D01*
X120674623Y-66909898D01*
X120671775Y-66898402D01*
X120669192Y-66886592D01*
X120666882Y-66874484D01*
X120664854Y-66862096D01*
X120663116Y-66849444D01*
X120661676Y-66836545D01*
X120660542Y-66823415D01*
X120659721Y-66810072D01*
X120659223Y-66796532D01*
X120659056Y-66782811D01*
X120659721Y-66755551D01*
X120661676Y-66729078D01*
X120664854Y-66703526D01*
X120669192Y-66679030D01*
X120674623Y-66655724D01*
X120681084Y-66633741D01*
X120688509Y-66613216D01*
X120696834Y-66594282D01*
X120705994Y-66577074D01*
X120715924Y-66561725D01*
X120726558Y-66548370D01*
X120737833Y-66537143D01*
X120743691Y-66532369D01*
X120749684Y-66528177D01*
X120755805Y-66524584D01*
X120762045Y-66521607D01*
X120768397Y-66519262D01*
X120774852Y-66517567D01*
X120781402Y-66516537D01*
X120788040Y-66516190D01*
X120794677Y-66516537D01*
G37*
D10*
X119828000Y-65195864D02*
X119829385Y-65190373D01*
X119830845Y-65184912D01*
X119832379Y-65179480D01*
X119833989Y-65174076D01*
X119835673Y-65168701D01*
X119837433Y-65163352D01*
X119839268Y-65158030D01*
X119841179Y-65152733D01*
X119843166Y-65147461D01*
X119845229Y-65142215D01*
X119847368Y-65136991D01*
X119849584Y-65131792D01*
X119851877Y-65126614D01*
X119854247Y-65121459D01*
X119856696Y-65116326D01*
X119859224Y-65111213D01*
X119861830Y-65106121D01*
X119864516Y-65101048D01*
X119867282Y-65095995D01*
X119870129Y-65090961D01*
X119873057Y-65085945D01*
X119876068Y-65080947D01*
X119879161Y-65075966D01*
X119882338Y-65071002D01*
X119885599Y-65066054D01*
X119888946Y-65061122D01*
X119892378Y-65056206D01*
X119895898Y-65051304D01*
X119899505Y-65046418D01*
X119903202Y-65041545D01*
X119906988Y-65036687D01*
X119910865Y-65031841D01*
X119914834Y-65027009D01*
X119918896Y-65022190D01*
X119923052Y-65017383D01*
X119927303Y-65012588D01*
X119931651Y-65007805D01*
X119936096Y-65003033D01*
X119940640Y-64998272D01*
X119945285Y-64993522D01*
X119950031Y-64988782D01*
X119954880Y-64984053D01*
X119959833Y-64979333D01*
X119964893Y-64974623D01*
X119970059Y-64969923D01*
X119975334Y-64965231D01*
X119980719Y-64960549D01*
X119986217Y-64955875D01*
X119991828Y-64951209D01*
X119997554Y-64946552D01*
X120003396Y-64941903D01*
X120009358Y-64937261D01*
X120015440Y-64932627D01*
X120021644Y-64928001D01*
X120027972Y-64923381D01*
X120034427Y-64918768D01*
X120041009Y-64914162D01*
X120047722Y-64909563D01*
X120054567Y-64904970D01*
X120061546Y-64900383D01*
X120068661Y-64895802D01*
X120075915Y-64891226D01*
X120083311Y-64886657D01*
X120090850Y-64882092D01*
X120098534Y-64877533D01*
X120106367Y-64872978D01*
X120114351Y-64868428D01*
X120122489Y-64863882D01*
X120130783Y-64859341D01*
X120139236Y-64854804D01*
X120147851Y-64850270D01*
X120156631Y-64845740D01*
X120165579Y-64841212D01*
X120174699Y-64836688D01*
X120183993Y-64832166D01*
X120193466Y-64827646D01*
X120203120Y-64823128D01*
X120212960Y-64818612D01*
X120222988Y-64814096D01*
X120233210Y-64809581D01*
X120243630Y-64805066D01*
X120254251Y-64800551D01*
X120265078Y-64796034D01*
X120276116Y-64791516D01*
X120287371Y-64786996D01*
X120298846Y-64782473D01*
X120310548Y-64777947D01*
X120322483Y-64773416D01*
X120334656Y-64768879D01*
X120347074Y-64764337D01*
X120359745Y-64759787D01*
X120372674Y-64755229D01*
X120385870Y-64750661D01*
X120399341Y-64746083D01*
X120413096Y-64741492D01*
X120427144Y-64736887D01*
X120441496Y-64732267D01*
X120456162Y-64727628D01*
X120471155Y-64722970D01*
X120486488Y-64718290D01*
X120502174Y-64713585D01*
X120518229Y-64708853D01*
X120534670Y-64704089D01*
X120551517Y-64699291D01*
X120568791Y-64694453D01*
X120586514Y-64689572D01*
X120604715Y-64684642D01*
X120623422Y-64679657D01*
X120642672Y-64674610D01*
X120662503Y-64669491D01*
X120682964Y-64664292D01*
X120704109Y-64659000D01*
X120726005Y-64653602D01*
X120748733Y-64648080D01*
X120772393Y-64642413D01*
X120797110Y-64636572D01*
X120823051Y-64630524D01*
X120850436Y-64624218D01*
X120879577Y-64617588D01*
X120910937Y-64610532D01*
X120945262Y-64602887D01*
X120983916Y-64594354D01*
X121029978Y-64584260D01*
X121077344Y-64573923D01*
X121124943Y-64563535D01*
X121172416Y-64553129D01*
X121196085Y-64547911D01*
X121219697Y-64542677D01*
X121243246Y-64537423D01*
X121266722Y-64532146D01*
X121290118Y-64526841D01*
X121313426Y-64521506D01*
X121336636Y-64516136D01*
X121359742Y-64510728D01*
X121382735Y-64505277D01*
X121405608Y-64499780D01*
X121416996Y-64497012D01*
X121428350Y-64494232D01*
X121439671Y-64491439D01*
X121450956Y-64488631D01*
X121462205Y-64485810D01*
X121473416Y-64482973D01*
X121484589Y-64480121D01*
X121495723Y-64477253D01*
X121506816Y-64474369D01*
X121517867Y-64471468D01*
X121528877Y-64468550D01*
X121539842Y-64465614D01*
X121550764Y-64462659D01*
X121561639Y-64459686D01*
X121572468Y-64456694D01*
X121583250Y-64453683D01*
X121593983Y-64450651D01*
X121604667Y-64447598D01*
X121615300Y-64444525D01*
X121625881Y-64441430D01*
X121636410Y-64438313D01*
X121646885Y-64435173D01*
X121657305Y-64432011D01*
X121667670Y-64428825D01*
X121677978Y-64425615D01*
X121688228Y-64422380D01*
X121698419Y-64419121D01*
X121708551Y-64415837D01*
X121718622Y-64412526D01*
X121728632Y-64409190D01*
X121738578Y-64405826D01*
X121748461Y-64402435D01*
X121758278Y-64399017D01*
X121768030Y-64395570D01*
X121777716Y-64392095D01*
X121787333Y-64388590D01*
X121796881Y-64385056D01*
X121806359Y-64381492D01*
X121815767Y-64377897D01*
X121825102Y-64374271D01*
X121834365Y-64370613D01*
X121843554Y-64366924D01*
X121852667Y-64363201D01*
X121861705Y-64359446D01*
X121870665Y-64355658D01*
X121879548Y-64351835D01*
X121888351Y-64347979D01*
X121897075Y-64344087D01*
X121905717Y-64340160D01*
X121914277Y-64336197D01*
X121922754Y-64332198D01*
X121931147Y-64328162D01*
X121939455Y-64324088D01*
X121947676Y-64319977D01*
X121955811Y-64315828D01*
X121963857Y-64311640D01*
X121971814Y-64307413D01*
X121979680Y-64303146D01*
X121987456Y-64298840D01*
X121991309Y-64296671D01*
X121995139Y-64294492D01*
X121998945Y-64292303D01*
X122002729Y-64290104D01*
X122006488Y-64287894D01*
X122010224Y-64285674D01*
X122013936Y-64283443D01*
X122017624Y-64281201D01*
X122021288Y-64278949D01*
X122024928Y-64276687D01*
X122028543Y-64274413D01*
X122032134Y-64272129D01*
X122035701Y-64269834D01*
X122039242Y-64267528D01*
X122042759Y-64265211D01*
X122046251Y-64262883D01*
X122049718Y-64260544D01*
X122053159Y-64258194D01*
X122056576Y-64255832D01*
X122059966Y-64253460D01*
X122063331Y-64251076D01*
X122066671Y-64248680D01*
X122069984Y-64246273D01*
X122073271Y-64243855D01*
X122076533Y-64241425D01*
X122079768Y-64238983D01*
X122082977Y-64236529D01*
X122086159Y-64234064D01*
X122089314Y-64231587D01*
X122092443Y-64229099D01*
X122095545Y-64226598D01*
X122098620Y-64224085D01*
X122101668Y-64221560D01*
X122104688Y-64219023D01*
X122107682Y-64216474D01*
X122110647Y-64213913D01*
X122113585Y-64211339D01*
X122116495Y-64208753D01*
X122119378Y-64206155D01*
X122122232Y-64203544D01*
X122125058Y-64200920D01*
X122127856Y-64198285D01*
X122130625Y-64195636D01*
X122133366Y-64192975D01*
X122136079Y-64190300D01*
X122138762Y-64187613D01*
X122141417Y-64184914D01*
X122144042Y-64182201D01*
X122146638Y-64179475D01*
X122149205Y-64176736D01*
X122151743Y-64173984D01*
X122154251Y-64171219D01*
X122156730Y-64168441D01*
X122159178Y-64165649D01*
X122161597Y-64162844D01*
X122163985Y-64160025D01*
X122166344Y-64157193D01*
X122168672Y-64154348D01*
X122170969Y-64151489D01*
X122173236Y-64148616D01*
X122175473Y-64145730D01*
X122177678Y-64142829D01*
X122179853Y-64139915D01*
X122181997Y-64136987D01*
X122184109Y-64134045D01*
X122186190Y-64131089D01*
X122188239Y-64128119D01*
X122190257Y-64125135D01*
X122192244Y-64122136D01*
X122194198Y-64119124D01*
X122196120Y-64116097D01*
X122198011Y-64113055D01*
X122199869Y-64110000D01*
X122201695Y-64106929D01*
X122203488Y-64103844D01*
X122205249Y-64100745D01*
X122206977Y-64097631D01*
X122208672Y-64094502D01*
X122210334Y-64091358D01*
X122211963Y-64088200D01*
X122213559Y-64085026D01*
X122215121Y-64081838D01*
X122911306Y-68722199D02*
X122894257Y-68719134D01*
X122876311Y-68715990D01*
X122857410Y-68712759D01*
X122837489Y-68709434D01*
X122816476Y-68706008D01*
X122794286Y-68702471D01*
X122770822Y-68698811D01*
X122745967Y-68695015D01*
X122719585Y-68691065D01*
X122691505Y-68686942D01*
X122661518Y-68682618D01*
X122629353Y-68678059D01*
X122594652Y-68673221D01*
X122556919Y-68668039D01*
X122515429Y-68662419D01*
X122469032Y-68656213D01*
X122415677Y-68649151D01*
X122350887Y-68640650D01*
X122274075Y-68630624D01*
X122217264Y-68623211D01*
X122159634Y-68615670D01*
X122101271Y-68607990D01*
X122042258Y-68600161D01*
X122012534Y-68596187D01*
X121982678Y-68592172D01*
X121952703Y-68588113D01*
X121922617Y-68584011D01*
X121892431Y-68579864D01*
X121862157Y-68575669D01*
X121831803Y-68571427D01*
X121801382Y-68567135D01*
X121770903Y-68562793D01*
X121740377Y-68558399D01*
X121709814Y-68553951D01*
X121679225Y-68549448D01*
X121648620Y-68544890D01*
X121618011Y-68540274D01*
X121587406Y-68535600D01*
X121556817Y-68530865D01*
X121526255Y-68526069D01*
X121495729Y-68521211D01*
X121465250Y-68516288D01*
X121434829Y-68511300D01*
X121404477Y-68506246D01*
X121389329Y-68503693D01*
X121374203Y-68501123D01*
X121359099Y-68498536D01*
X121344018Y-68495931D01*
X121328962Y-68493309D01*
X121313933Y-68490668D01*
X121298931Y-68488010D01*
X121283958Y-68485334D01*
X121269015Y-68482639D01*
X121254104Y-68479926D01*
X121239225Y-68477194D01*
X121224381Y-68474443D01*
X121209572Y-68471674D01*
X121194799Y-68468885D01*
X121180065Y-68466077D01*
X121165370Y-68463249D01*
X121150716Y-68460402D01*
X121136103Y-68457535D01*
X121121534Y-68454647D01*
X121107010Y-68451740D01*
X121092531Y-68448812D01*
X121078100Y-68445864D01*
X121063717Y-68442895D01*
X121049384Y-68439906D01*
X121035102Y-68436895D01*
X121020872Y-68433863D01*
X121006696Y-68430810D01*
X120992576Y-68427736D01*
X120978511Y-68424639D01*
X120964505Y-68421521D01*
X120950557Y-68418381D01*
X120936670Y-68415219D01*
X120922844Y-68412034D01*
X120909082Y-68408827D01*
X120895383Y-68405598D01*
X120881750Y-68402345D01*
X120868184Y-68399070D01*
X120854686Y-68395771D01*
X120841258Y-68392449D01*
X120827901Y-68389103D01*
X120814615Y-68385734D01*
X120801403Y-68382341D01*
X120788266Y-68378924D01*
X120775205Y-68375483D01*
X120762221Y-68372018D01*
X120749316Y-68368528D01*
X120736490Y-68365013D01*
X120723747Y-68361474D01*
X120711085Y-68357910D01*
X120698508Y-68354320D01*
X120686016Y-68350705D01*
X120673610Y-68347065D01*
X120661292Y-68343399D01*
X120649064Y-68339707D01*
X120636926Y-68335989D01*
X120624879Y-68332245D01*
X120612926Y-68328475D01*
X120601067Y-68324678D01*
X120589304Y-68320855D01*
X120577638Y-68317005D01*
X120566070Y-68313127D01*
X120554602Y-68309223D01*
X120543234Y-68305291D01*
X120531970Y-68301332D01*
X120520808Y-68297346D01*
X120509752Y-68293331D01*
X120498801Y-68289288D01*
X120487959Y-68285218D01*
X120477225Y-68281119D01*
X120466601Y-68276991D01*
X120470454Y-65044898D02*
X120755424Y-65087720D01*
X121072579Y-65150939D01*
X121768368Y-65314915D01*
X122487661Y-65489514D01*
X122834196Y-65566012D01*
X123160297Y-65627423D01*
X123457193Y-65667835D01*
X123716116Y-65681332D01*
X123828596Y-65676140D01*
X123928294Y-65662002D01*
X124014113Y-65638178D01*
X124084957Y-65603930D01*
X124142301Y-65578207D01*
X124188838Y-65579318D01*
X124225279Y-65605563D01*
X124252335Y-65655239D01*
X124270716Y-65726646D01*
X124281133Y-65818081D01*
X124280919Y-66054234D01*
X124257378Y-66350085D01*
X124216196Y-66692023D01*
X124103650Y-67459717D01*
X123988768Y-68248425D01*
X123944665Y-68616632D01*
X123917034Y-68949258D01*
X123911563Y-69232693D01*
X123918913Y-69351710D01*
X123933936Y-69453325D01*
X123957340Y-69535837D01*
X123989838Y-69597543D01*
X123996645Y-69603850D01*
X123682148Y-69531842D01*
X122189611Y-69243541D01*
X119827838Y-68816474D01*
X119775005Y-68750535D01*
X119727912Y-68675447D01*
X119686326Y-68591820D01*
X119650013Y-68500265D01*
X119618741Y-68401392D01*
X119592277Y-68295812D01*
X119552837Y-68066969D01*
X119529830Y-67818620D01*
X119521389Y-67555648D01*
X119525651Y-67282935D01*
X119540749Y-67005365D01*
X119564818Y-66727819D01*
X119595994Y-66455182D01*
X119672205Y-65944162D01*
X119754460Y-65511368D01*
X119827838Y-65195863D01*
X119853144Y-65141033D01*
X119896363Y-65097956D01*
X119956398Y-65065892D01*
X120032154Y-65044102D01*
X120122533Y-65031847D01*
X120226441Y-65028387D01*
X120470454Y-65044898D01*
X123346055Y-64842724D02*
X123345405Y-64843342D01*
X123343458Y-64845134D01*
X123341999Y-64846441D01*
X123340216Y-64848008D01*
X123338111Y-64849822D01*
X123335684Y-64851872D01*
X123332935Y-64854146D01*
X123329864Y-64856633D01*
X123326473Y-64859322D01*
X123322761Y-64862200D01*
X123318728Y-64865257D01*
X123314376Y-64868480D01*
X123309705Y-64871858D01*
X123304714Y-64875381D01*
X123299406Y-64879035D01*
X123296632Y-64880908D01*
X123293779Y-64882810D01*
X123290846Y-64884739D01*
X123287834Y-64886694D01*
X123284743Y-64888674D01*
X123281572Y-64890676D01*
X123278322Y-64892700D01*
X123274994Y-64894744D01*
X123271586Y-64896806D01*
X123268099Y-64898886D01*
X123264532Y-64900982D01*
X123260887Y-64903092D01*
X123257164Y-64905214D01*
X123253361Y-64907348D01*
X123249479Y-64909493D01*
X123245519Y-64911645D01*
X123241480Y-64913805D01*
X123237363Y-64915970D01*
X123233167Y-64918140D01*
X123228892Y-64920313D01*
X123224539Y-64922486D01*
X123220107Y-64924660D01*
X123215597Y-64926832D01*
X123211009Y-64929001D01*
X123206343Y-64931166D01*
X123201598Y-64933325D01*
X123196775Y-64935477D01*
X123191874Y-64937620D01*
X123186895Y-64939752D01*
X123181838Y-64941873D01*
X123176703Y-64943981D01*
X123171491Y-64946075D01*
X123166200Y-64948152D01*
X123160832Y-64950212D01*
X123155385Y-64952254D01*
X123149861Y-64954275D01*
X123144260Y-64956274D01*
X123138581Y-64958250D01*
X123132824Y-64960202D01*
X123126990Y-64962127D01*
X123121079Y-64964025D01*
X123115090Y-64965895D01*
X123109024Y-64967733D01*
X123102880Y-64969540D01*
X123096660Y-64971314D01*
X123090362Y-64973053D01*
X123083987Y-64974756D01*
X123077535Y-64976422D01*
X123071006Y-64978048D01*
X123064400Y-64979634D01*
X123057717Y-64981178D01*
X123050957Y-64982679D01*
X123044121Y-64984135D01*
X123037208Y-64985544D01*
X123030218Y-64986907D01*
X123023151Y-64988220D01*
X123016008Y-64989482D01*
X123008788Y-64990693D01*
X123001492Y-64991850D01*
X122994120Y-64992952D01*
X122986671Y-64993998D01*
X122979146Y-64994986D01*
X122971544Y-64995915D01*
X122963866Y-64996784D01*
X122956113Y-64997590D01*
X122948283Y-64998333D01*
X122940377Y-64999011D01*
X122932394Y-64999623D01*
X122924336Y-65000166D01*
X122916203Y-65000641D01*
X122907993Y-65001045D01*
X122899707Y-65001376D01*
X122891346Y-65001634D01*
X122882909Y-65001817D01*
X122874396Y-65001924D01*
X122865808Y-65001953D01*
X122857144Y-65001902D01*
X122852784Y-65001846D01*
X122848405Y-65001771D01*
X122844007Y-65001674D01*
X122839591Y-65001557D01*
X122835155Y-65001419D01*
X122830700Y-65001259D01*
X122826227Y-65001079D01*
X122821735Y-65000877D01*
X122817224Y-65000653D01*
X122812695Y-65000408D01*
X122808146Y-65000141D01*
X122803579Y-64999851D01*
X122798993Y-64999539D01*
X122794388Y-64999204D01*
X122789764Y-64998847D01*
X122785122Y-64998467D01*
X122780460Y-64998064D01*
X122775780Y-64997637D01*
X122771082Y-64997188D01*
X122766364Y-64996714D01*
X122761628Y-64996217D01*
X122756873Y-64995695D01*
X122752099Y-64995150D01*
X122747307Y-64994580D01*
X122742496Y-64993986D01*
X122737666Y-64993367D01*
X122732818Y-64992723D01*
X122727950Y-64992054D01*
X122723064Y-64991360D01*
X122718160Y-64990640D01*
X122713237Y-64989895D01*
X122708295Y-64989124D01*
X122703334Y-64988327D01*
X122698355Y-64987504D01*
D11*
X155000000Y-57700000D02*
X160250000Y-57700000D01*
D10*
X123163255Y-62297485D02*
X122989888Y-62269871D01*
X122911319Y-68722177D02*
X122802921Y-68720308D01*
X122697751Y-68714885D01*
X122595694Y-68706186D01*
X122496632Y-68694488D01*
X122400450Y-68680070D01*
X122307031Y-68663208D01*
X122128015Y-68623267D01*
X121958654Y-68576886D01*
X121798017Y-68526287D01*
X121757505Y-68512056D01*
X122911319Y-68722177D01*
X122911319Y-66188687D02*
X122914142Y-66188457D01*
X122916952Y-66188249D01*
X122919745Y-66188062D01*
X122922526Y-66187895D01*
X122925290Y-66187750D01*
X122928041Y-66187625D01*
X122930777Y-66187521D01*
X122933499Y-66187438D01*
X122936207Y-66187375D01*
X122938901Y-66187332D01*
X122941581Y-66187309D01*
X122944248Y-66187307D01*
X122946900Y-66187324D01*
X122949539Y-66187361D01*
X122952165Y-66187418D01*
X122954777Y-66187495D01*
X122957376Y-66187591D01*
X122959963Y-66187707D01*
X122962536Y-66187842D01*
X122965096Y-66187997D01*
X122967644Y-66188171D01*
X122970179Y-66188364D01*
X122972701Y-66188576D01*
X122975211Y-66188807D01*
X122977709Y-66189056D01*
X122980194Y-66189325D01*
X122982668Y-66189613D01*
X122985129Y-66189919D01*
X122987579Y-66190244D01*
X122990017Y-66190587D01*
X122992443Y-66190949D01*
X122994857Y-66191329D01*
X122997261Y-66191728D01*
X122999652Y-66192145D01*
X123002033Y-66192581D01*
X123004402Y-66193034D01*
X123006761Y-66193506D01*
X123009108Y-66193996D01*
X123011445Y-66194504D01*
X123013770Y-66195030D01*
X123016086Y-66195575D01*
X123018390Y-66196137D01*
X123020685Y-66196717D01*
X123022968Y-66197315D01*
X123027505Y-66198565D01*
X123032001Y-66199887D01*
X123036458Y-66201280D01*
X123040876Y-66202745D01*
X123045256Y-66204281D01*
X123049598Y-66205888D01*
X123053903Y-66207566D01*
X123058173Y-66209316D01*
X123062406Y-66211138D01*
X123066605Y-66213031D01*
X123070769Y-66214997D01*
X123074900Y-66217035D01*
X123078997Y-66219145D01*
X123083061Y-66221328D01*
X123087094Y-66223584D01*
X123091094Y-66225914D01*
X123095063Y-66228318D01*
X123099002Y-66230797D01*
X123102910Y-66233350D01*
X123106788Y-66235980D01*
X123110636Y-66238685D01*
X123114455Y-66241468D01*
X123118245Y-66244328D01*
X123122006Y-66247266D01*
X123125739Y-66250284D01*
X123129443Y-66253381D01*
X123133120Y-66256559D01*
X123136769Y-66259819D01*
X123140390Y-66263160D01*
X123143984Y-66266585D01*
X123147550Y-66270094D01*
X123151089Y-66273689D01*
X123154601Y-66277369D01*
X123158086Y-66281137D01*
X123161543Y-66284992D01*
X123164973Y-66288937D01*
X123168376Y-66292972D01*
X123171752Y-66297099D01*
X123175101Y-66301318D01*
X123178421Y-66305631D01*
X123181715Y-66310038D01*
X123184980Y-66314542D01*
X123188217Y-66319143D01*
X123191426Y-66323842D01*
X123194607Y-66328641D01*
X123197758Y-66333542D01*
X123200881Y-66338544D01*
X123203974Y-66343650D01*
X123207037Y-66348861D01*
X123210071Y-66354177D01*
X123213073Y-66359602D01*
X123216045Y-66365135D01*
X123218985Y-66370778D01*
X123221894Y-66376532D01*
X123224770Y-66382400D01*
X123227613Y-66388381D01*
X123230422Y-66394477D01*
X123233198Y-66400691D01*
X123235939Y-66407022D01*
X123238645Y-66413472D01*
X123241315Y-66420044D01*
X123243948Y-66426737D01*
X123246544Y-66433553D01*
X123249103Y-66440494D01*
X123251623Y-66447560D01*
X123254103Y-66454754D01*
X123256544Y-66462075D01*
X123258943Y-66469526D01*
X123261301Y-66477107D01*
X123263617Y-66484820D01*
X123265889Y-66492665D01*
X123268117Y-66500644D01*
X123270300Y-66508758D01*
X123272437Y-66517007D01*
X123274528Y-66525393D01*
X123276571Y-66533915D01*
X123278564Y-66542576D01*
X123280509Y-66551376D01*
X123282402Y-66560315D01*
X123284245Y-66569393D01*
X123286034Y-66578612D01*
X123287770Y-66587971D01*
X123289451Y-66597470D01*
X123291077Y-66607111D01*
X123292646Y-66616891D01*
X123294157Y-66626812D01*
X123295609Y-66636873D01*
X123297001Y-66647072D01*
X123298332Y-66657410D01*
X123299601Y-66667885D01*
X123300807Y-66678496D01*
X123301948Y-66689240D01*
X123303024Y-66700117D01*
X123304033Y-66711123D01*
X123304975Y-66722255D01*
X123305848Y-66733512D01*
X123306652Y-66744888D01*
X123307384Y-66756379D01*
X123308045Y-66767980D01*
X123308633Y-66779686D01*
X123309147Y-66791489D01*
X123309587Y-66803382D01*
X123309952Y-66815356D01*
X123310240Y-66827400D01*
X123310452Y-66839502D01*
X123310587Y-66851649D01*
X123310645Y-66863823D01*
X123310625Y-66876006D01*
X123310528Y-66888174D01*
X123310354Y-66900301D01*
X123310105Y-66912353D01*
X123309782Y-66924290D01*
X123309389Y-66936060D01*
X123308928Y-66947601D01*
X123308405Y-66958827D01*
X123307830Y-66969624D01*
X123307215Y-66979826D01*
X123306584Y-66989175D01*
X123305979Y-66997215D01*
X123305504Y-67002892D01*
X123305415Y-67003868D01*
D12*
G36*
X122920027Y-66648098D02*
G01*
X122928774Y-66649474D01*
X122937394Y-66651739D01*
X122945877Y-66654872D01*
X122954210Y-66658850D01*
X122962383Y-66663650D01*
X122970387Y-66669251D01*
X122978208Y-66675629D01*
X122985838Y-66682763D01*
X122993265Y-66690630D01*
X123000478Y-66699208D01*
X123007466Y-66708474D01*
X123014220Y-66718406D01*
X123020726Y-66728981D01*
X123026976Y-66740178D01*
X123032958Y-66751973D01*
X123038661Y-66764345D01*
X123044075Y-66777271D01*
X123049188Y-66790728D01*
X123053991Y-66804695D01*
X123058471Y-66819148D01*
X123062618Y-66834066D01*
X123066422Y-66849427D01*
X123069871Y-66865206D01*
X123072955Y-66881383D01*
X123075663Y-66897936D01*
X123077984Y-66914840D01*
X123079908Y-66932075D01*
X123081422Y-66949618D01*
X123082518Y-66967446D01*
X123083183Y-66985537D01*
X123083407Y-67003869D01*
X123082518Y-67040292D01*
X123079908Y-67075663D01*
X123075663Y-67109802D01*
X123069871Y-67142532D01*
X123062618Y-67173672D01*
X123053991Y-67203043D01*
X123044075Y-67230468D01*
X123032958Y-67255765D01*
X123020726Y-67278757D01*
X123007466Y-67299265D01*
X122993265Y-67317109D01*
X122978208Y-67332110D01*
X122970387Y-67338488D01*
X122962383Y-67344089D01*
X122954210Y-67348889D01*
X122945877Y-67352867D01*
X122937394Y-67356000D01*
X122928774Y-67358265D01*
X122920027Y-67359641D01*
X122911164Y-67360104D01*
X122902300Y-67359641D01*
X122893553Y-67358265D01*
X122884933Y-67356000D01*
X122876450Y-67352867D01*
X122868117Y-67348889D01*
X122859944Y-67344089D01*
X122851940Y-67338488D01*
X122844119Y-67332110D01*
X122836489Y-67324976D01*
X122829062Y-67317109D01*
X122821849Y-67308531D01*
X122814861Y-67299265D01*
X122808108Y-67289333D01*
X122801601Y-67278757D01*
X122795351Y-67267561D01*
X122789369Y-67255765D01*
X122783666Y-67243394D01*
X122778252Y-67230468D01*
X122773139Y-67217010D01*
X122768336Y-67203043D01*
X122763856Y-67188590D01*
X122759709Y-67173672D01*
X122755905Y-67158312D01*
X122752456Y-67142532D01*
X122749372Y-67126354D01*
X122746664Y-67109802D01*
X122744343Y-67092898D01*
X122742419Y-67075663D01*
X122740905Y-67058120D01*
X122739809Y-67040292D01*
X122739144Y-67022201D01*
X122738920Y-67003869D01*
X122739809Y-66967446D01*
X122742419Y-66932075D01*
X122746664Y-66897936D01*
X122752456Y-66865206D01*
X122759709Y-66834066D01*
X122768336Y-66804695D01*
X122778252Y-66777271D01*
X122789369Y-66751973D01*
X122801601Y-66728981D01*
X122814861Y-66708474D01*
X122829062Y-66690630D01*
X122844119Y-66675629D01*
X122851940Y-66669251D01*
X122859944Y-66663650D01*
X122868117Y-66658850D01*
X122876450Y-66654872D01*
X122884933Y-66651739D01*
X122893553Y-66649474D01*
X122902300Y-66648098D01*
X122911164Y-66647635D01*
X122920027Y-66648098D01*
G37*
D10*
X120412594Y-66782811D02*
X120413408Y-66773048D01*
X120414182Y-66762818D01*
X120414919Y-66752040D01*
X120415623Y-66740604D01*
X120416300Y-66728352D01*
X120416959Y-66715038D01*
X120417614Y-66700249D01*
X120418298Y-66683160D01*
X120419093Y-66661559D01*
X120419388Y-66653313D01*
X120420199Y-66630898D01*
X120420625Y-66619658D01*
X120421075Y-66608400D01*
X120421558Y-66597127D01*
X120422081Y-66585842D01*
X120422651Y-66574548D01*
X120423277Y-66563246D01*
X120423967Y-66551941D01*
X120424727Y-66540635D01*
X120425137Y-66534982D01*
X120425567Y-66529330D01*
X120426019Y-66523680D01*
X120426493Y-66518030D01*
X120426992Y-66512383D01*
X120427515Y-66506738D01*
X120428063Y-66501095D01*
X120428638Y-66495456D01*
X120429241Y-66489819D01*
X120429872Y-66484186D01*
X120430533Y-66478557D01*
X120431224Y-66472933D01*
X120431947Y-66467313D01*
X120432702Y-66461698D01*
X120433491Y-66456088D01*
X120434314Y-66450484D01*
X120435172Y-66444886D01*
X120436067Y-66439295D01*
X120436999Y-66433710D01*
X120437969Y-66428132D01*
X120438979Y-66422562D01*
X120440029Y-66417000D01*
X120441120Y-66411446D01*
X120442253Y-66405900D01*
X120443430Y-66400363D01*
X120444650Y-66394835D01*
X120445916Y-66389317D01*
X120447228Y-66383809D01*
X120448587Y-66378311D01*
X120449994Y-66372824D01*
X120451450Y-66367348D01*
X120452957Y-66361883D01*
X120454514Y-66356430D01*
X120456123Y-66350988D01*
X120457785Y-66345559D01*
X120459501Y-66340143D01*
X120461272Y-66334740D01*
X120463098Y-66329350D01*
X120464982Y-66323975D01*
X120466924Y-66318613D01*
X120468924Y-66313266D01*
X120470984Y-66307933D01*
X120473105Y-66302616D01*
X120475287Y-66297314D01*
X120477532Y-66292028D01*
X120479841Y-66286758D01*
X120482215Y-66281505D01*
X120484654Y-66276269D01*
X120487160Y-66271050D01*
X120489733Y-66265849D01*
X120492375Y-66260666D01*
X120495087Y-66255501D01*
X120497869Y-66250355D01*
X120500722Y-66245228D01*
X120503648Y-66240120D01*
X120506647Y-66235032D01*
X120509721Y-66229964D01*
X120512870Y-66224917D01*
X120516096Y-66219890D01*
X120519399Y-66214884D01*
X120522780Y-66209900D01*
X120526241Y-66204938D01*
X120529782Y-66199998D01*
X120533404Y-66195081D01*
X120535246Y-66192630D01*
X120537108Y-66190186D01*
X120538992Y-66187747D01*
X120540896Y-66185315D01*
X120542821Y-66182888D01*
X120544768Y-66180467D01*
X120546735Y-66178052D01*
X120548724Y-66175643D01*
X120550735Y-66173241D01*
X120552768Y-66170844D01*
X120554822Y-66168453D01*
X120556898Y-66166069D01*
X120558996Y-66163691D01*
X120561116Y-66161319D01*
X120563258Y-66158954D01*
X120565423Y-66156595D01*
X120567611Y-66154242D01*
X120569821Y-66151896D01*
X120572053Y-66149557D01*
X120574309Y-66147224D01*
X120576588Y-66144897D01*
X120578889Y-66142577D01*
X120581214Y-66140264D01*
X120583563Y-66137958D01*
X120585934Y-66135658D01*
X120588330Y-66133365D01*
X120590749Y-66131080D01*
X120593192Y-66128801D01*
X120595659Y-66126529D01*
X120598150Y-66124263D01*
X120600665Y-66122005D01*
X120603205Y-66119755D01*
X120605769Y-66117511D01*
X120608358Y-66115274D01*
X120610971Y-66113045D01*
X120613609Y-66110823D01*
X120616273Y-66108608D01*
X120618961Y-66106400D01*
X120621674Y-66104200D01*
X120624413Y-66102008D01*
X120627177Y-66099822D01*
X120629967Y-66097645D01*
X120632782Y-66095475D01*
X120635624Y-66093312D01*
X120638491Y-66091157D01*
X120641384Y-66089010D01*
X120644303Y-66086871D01*
X120647249Y-66084739D01*
X120650221Y-66082616D01*
X120653220Y-66080500D01*
X120656245Y-66078392D01*
X120659297Y-66076292D01*
X120662376Y-66074200D01*
X120665482Y-66072116D01*
X120668615Y-66070040D01*
X120671776Y-66067972D01*
X120674964Y-66065913D01*
X120678179Y-66063861D01*
X120681422Y-66061818D01*
X120684693Y-66059784D01*
X120687991Y-66057757D01*
X120691318Y-66055739D01*
X120694672Y-66053730D01*
X120698055Y-66051729D01*
X120701467Y-66049736D01*
X120704907Y-66047752D01*
X120708375Y-66045777D01*
X120711872Y-66043810D01*
X120715398Y-66041853D01*
X120718953Y-66039903D01*
X120722537Y-66037963D01*
X120726150Y-66036031D01*
X120729793Y-66034109D01*
X120733465Y-66032195D01*
X120737167Y-66030290D01*
X120740898Y-66028395D01*
X120744660Y-66026508D01*
X120748451Y-66024630D01*
X120752272Y-66022762D01*
X120756124Y-66020903D01*
X120760005Y-66019053D01*
X120763918Y-66017212D01*
X120767860Y-66015381D01*
X120771834Y-66013559D01*
X120775838Y-66011746D01*
X120779873Y-66009943D01*
X120783940Y-66008149D01*
X120788037Y-66006365D01*
X123568624Y-64200663D02*
X123582790Y-64204760D01*
X123597022Y-64208855D01*
X123610838Y-64212809D01*
X123624715Y-64216759D01*
X123638229Y-64220585D01*
X123651802Y-64224405D01*
X123665053Y-64228114D01*
X123678360Y-64231817D01*
X123691380Y-64235420D01*
X123704452Y-64239015D01*
X123717267Y-64242519D01*
X123730131Y-64246015D01*
X123742760Y-64249426D01*
X123755437Y-64252829D01*
X123767901Y-64256153D01*
X123780409Y-64259468D01*
X123792721Y-64262711D01*
X123805076Y-64265943D01*
X123817250Y-64269108D01*
X123829465Y-64272262D01*
X123841512Y-64275351D01*
X123853599Y-64278430D01*
X123865529Y-64281449D01*
X123877498Y-64284456D01*
X123889320Y-64287405D01*
X123901180Y-64290343D01*
X123912902Y-64293225D01*
X123924660Y-64296096D01*
X123936289Y-64298915D01*
X123947953Y-64301721D01*
X123959494Y-64304477D01*
X123971071Y-64307220D01*
X123982531Y-64309915D01*
X123994025Y-64312597D01*
X124005408Y-64315233D01*
X124016825Y-64317856D01*
X124028137Y-64320434D01*
X124039481Y-64322998D01*
X124050726Y-64325519D01*
X124062001Y-64328027D01*
X124073182Y-64330493D01*
X124084394Y-64332944D01*
X124095514Y-64335356D01*
X124106665Y-64337753D01*
X124117728Y-64340111D01*
X124128821Y-64342454D01*
X124139831Y-64344759D01*
X124150868Y-64347050D01*
X124161827Y-64349303D01*
X124172813Y-64351542D01*
X124183723Y-64353744D01*
X124194659Y-64355932D01*
X124205523Y-64358084D01*
X124216412Y-64360221D01*
X124227232Y-64362323D01*
X124238077Y-64364410D01*
X124248854Y-64366463D01*
X124259656Y-64368501D01*
X124270393Y-64370505D01*
X124281155Y-64372494D01*
X124291853Y-64374451D01*
X124302576Y-64376392D01*
X124313238Y-64378301D01*
X124323924Y-64380194D01*
X124334550Y-64382056D01*
X124345200Y-64383902D01*
X124355793Y-64385717D01*
X124366409Y-64387516D01*
X124376969Y-64389285D01*
X124387553Y-64391038D01*
X124398082Y-64392761D01*
X124408635Y-64394467D01*
X124419134Y-64396145D01*
X124429656Y-64397806D01*
X124440128Y-64399438D01*
X124450621Y-64401054D01*
X124461065Y-64402641D01*
X124471530Y-64404212D01*
X124481948Y-64405755D01*
X124492387Y-64407281D01*
X124502779Y-64408779D01*
X124513192Y-64410261D01*
X124523560Y-64411715D01*
X124533948Y-64413152D01*
X124544292Y-64414563D01*
X124554657Y-64415956D01*
X124564979Y-64417323D01*
X124575321Y-64418673D01*
X124585621Y-64419997D01*
X124595940Y-64421303D01*
X124606219Y-64422584D01*
X124616518Y-64423846D01*
X124626777Y-64425084D01*
X124637055Y-64426304D01*
X124647294Y-64427499D01*
X124657552Y-64428676D01*
X124667773Y-64429828D01*
X124678012Y-64430962D01*
X124688215Y-64432072D01*
X124698436Y-64433164D01*
X124708620Y-64434232D01*
X124718824Y-64435281D01*
X124728992Y-64436307D01*
X124739178Y-64437314D01*
X124749329Y-64438297D01*
X124759499Y-64439262D01*
X124769635Y-64440204D01*
X124779789Y-64441127D01*
X124789909Y-64442028D01*
X124800048Y-64442909D01*
X124810154Y-64443768D01*
X124820277Y-64444607D01*
X124830369Y-64445424D01*
X124840478Y-64446223D01*
X124850557Y-64446998D01*
X124860652Y-64447755D01*
X124870717Y-64448490D01*
X124880799Y-64449205D01*
X124890852Y-64449898D01*
X124900921Y-64450573D01*
X124910961Y-64451225D01*
X124921017Y-64451858D01*
X124931046Y-64452470D01*
X124941090Y-64453062D01*
X124951107Y-64453632D01*
X124961140Y-64454183D01*
X124971146Y-64454713D01*
X124981167Y-64455223D01*
X124991162Y-64455712D01*
X125001173Y-64456182D01*
X125011158Y-64456630D01*
X125021159Y-64457059D01*
X125031134Y-64457467D01*
X125041124Y-64457855D01*
X125051089Y-64458222D01*
X125061070Y-64458570D01*
X125071026Y-64458896D01*
X125080998Y-64459203D01*
X125090945Y-64459490D01*
X125100907Y-64459756D01*
X125110846Y-64460002D01*
X125120800Y-64460228D01*
X125130730Y-64460434D01*
X125140675Y-64460620D01*
X125150598Y-64460785D01*
X125160535Y-64460931D01*
X125170450Y-64461056D01*
X125180379Y-64461161D01*
X125190287Y-64461246D01*
X125200209Y-64461311D01*
X125210109Y-64461355D01*
X125220024Y-64461380D01*
X125229918Y-64461385D01*
X125239826Y-64461369D01*
X125249713Y-64461334D01*
X125259615Y-64461278D01*
X125269496Y-64461203D01*
X125279391Y-64461107D01*
X125289266Y-64460991D01*
X125299154Y-64460856D01*
X125309024Y-64460700D01*
X125318907Y-64460524D01*
X125328771Y-64460328D01*
X125338648Y-64460112D01*
X125348507Y-64459877D01*
X125358379Y-64459621D01*
X125368232Y-64459345D01*
X125378099Y-64459049D01*
X125387948Y-64458733D01*
X125397811Y-64458397D01*
X125407655Y-64458042D01*
X125417512Y-64457666D01*
X125427352Y-64457270D01*
X125437205Y-64456854D01*
X125447041Y-64456419D01*
X125456890Y-64455962D01*
X125466722Y-64455487D01*
X125476567Y-64454991D01*
X125486396Y-64454476D01*
X125496237Y-64453939D01*
X125506062Y-64453384D01*
X125515899Y-64452808D01*
X125525721Y-64452213D01*
X125535555Y-64451596D01*
X125545374Y-64450961D01*
X125555205Y-64450305D01*
X125565021Y-64449630D01*
X125574849Y-64448934D01*
X125584662Y-64448218D01*
X125594487Y-64447482D01*
X125604298Y-64446727D01*
X125614121Y-64445950D01*
X125623929Y-64445155D01*
X125633750Y-64444339D01*
X125643556Y-64443503D01*
X125653374Y-64442647D01*
X125663178Y-64441771D01*
X125672994Y-64440875D01*
X125682797Y-64439959D01*
X125692611Y-64439023D01*
X125702412Y-64438067D01*
X125712225Y-64437090D01*
X125722024Y-64436094D01*
X125731835Y-64435077D01*
X125741633Y-64434041D01*
X125751443Y-64432984D01*
X125761240Y-64431908D01*
X125771049Y-64430810D01*
X125780845Y-64429694D01*
X125790653Y-64428556D01*
X125800449Y-64427400D01*
X125810255Y-64426222D01*
X125820050Y-64425025D01*
X125829857Y-64423806D01*
X125839651Y-64422569D01*
X125849457Y-64421310D01*
X125859251Y-64420033D01*
X125869056Y-64418734D01*
X125878850Y-64417416D01*
X125888655Y-64416076D01*
X125898449Y-64414718D01*
X125908254Y-64413337D01*
X125918048Y-64411938D01*
X125927853Y-64410518D01*
X125937648Y-64409078D01*
X125947453Y-64407617D01*
X125957248Y-64406137D01*
X125967054Y-64404635D01*
X125976849Y-64403115D01*
X125986655Y-64401572D01*
X125994721Y-64400288D01*
X122334663Y-63957379D02*
X122573271Y-63878866D01*
X124080588Y-69623070D02*
X124139634Y-69646503D01*
X124084957Y-69651736D01*
X124032140Y-69636744D01*
X123996645Y-69603850D01*
X124080588Y-69623070D01*
X122215121Y-64081838D02*
X122216289Y-64079450D01*
X122217469Y-64077084D01*
X122218658Y-64074746D01*
X122219858Y-64072428D01*
X122221066Y-64070139D01*
X122222286Y-64067871D01*
X122223514Y-64065629D01*
X122224754Y-64063408D01*
X122226001Y-64061213D01*
X122227261Y-64059039D01*
X122228528Y-64056890D01*
X122229807Y-64054761D01*
X122231095Y-64052657D01*
X122232393Y-64050573D01*
X122233700Y-64048513D01*
X122235019Y-64046473D01*
X122236346Y-64044457D01*
X122237684Y-64042459D01*
X122239030Y-64040486D01*
X122240388Y-64038530D01*
X122241755Y-64036598D01*
X122243133Y-64034684D01*
X122244519Y-64032793D01*
X122245917Y-64030920D01*
X122247323Y-64029069D01*
X122248741Y-64027236D01*
X122250168Y-64025424D01*
X122251606Y-64023630D01*
X122253053Y-64021856D01*
X122254511Y-64020101D01*
X122255978Y-64018366D01*
X122257457Y-64016648D01*
X122258945Y-64014950D01*
X122260445Y-64013269D01*
X122261954Y-64011608D01*
X122263474Y-64009964D01*
X122265005Y-64008339D01*
X122266546Y-64006731D01*
X122268098Y-64005141D01*
X122269661Y-64003568D01*
X122271234Y-64002014D01*
X122272819Y-64000476D01*
X122274414Y-63998955D01*
X122276021Y-63997452D01*
X122277638Y-63995965D01*
X122279267Y-63994496D01*
X122280908Y-63993042D01*
X122282559Y-63991606D01*
X122285897Y-63988782D01*
X122289282Y-63986024D01*
X122292714Y-63983329D01*
X122296196Y-63980698D01*
X122299726Y-63978130D01*
X122303307Y-63975624D01*
X122306940Y-63973179D01*
X122310625Y-63970796D01*
X122314363Y-63968473D01*
X122318157Y-63966210D01*
X122322006Y-63964007D01*
X122325912Y-63961863D01*
X122329877Y-63959778D01*
X122333902Y-63957752D01*
X122334663Y-63957379D01*
X122516984Y-67003868D02*
X122517380Y-66997922D01*
X122517713Y-66991726D01*
X122517981Y-66985260D01*
X122518181Y-66978504D01*
X122518312Y-66971429D01*
X122518370Y-66964003D01*
X122518352Y-66956190D01*
X122518254Y-66947939D01*
X122518071Y-66939192D01*
X122517798Y-66929867D01*
X122517426Y-66919856D01*
X122516946Y-66909004D01*
X122516340Y-66897074D01*
X122515584Y-66883666D01*
X122514625Y-66867994D01*
X122513331Y-66847977D01*
X122512778Y-66839573D01*
X122511264Y-66816397D01*
X122510523Y-66804672D01*
X122509807Y-66792866D01*
X122509127Y-66780985D01*
X122508492Y-66769036D01*
X122507914Y-66757025D01*
X122507404Y-66744958D01*
X122507177Y-66738907D01*
X122506970Y-66732844D01*
X122506786Y-66726771D01*
X122506626Y-66720688D01*
X122506489Y-66714597D01*
X122506379Y-66708498D01*
X122506297Y-66702392D01*
X122506242Y-66696279D01*
X122506218Y-66690162D01*
X122506225Y-66684039D01*
X122506265Y-66677913D01*
X122506339Y-66671785D01*
X122506448Y-66665654D01*
X122506593Y-66659522D01*
X122506776Y-66653390D01*
X122506999Y-66647258D01*
X122507262Y-66641128D01*
X122507567Y-66635000D01*
X122507915Y-66628875D01*
X122508307Y-66622754D01*
X122508745Y-66616638D01*
X122509230Y-66610527D01*
X122509764Y-66604422D01*
X122510348Y-66598325D01*
X122510982Y-66592236D01*
X122511669Y-66586156D01*
X122512409Y-66580085D01*
X122513205Y-66574026D01*
X122514057Y-66567977D01*
X122514966Y-66561941D01*
X122515935Y-66555918D01*
X122516964Y-66549909D01*
X122518054Y-66543915D01*
X122519207Y-66537936D01*
X122520425Y-66531974D01*
X122521708Y-66526029D01*
X122523058Y-66520103D01*
X122524476Y-66514195D01*
X122525963Y-66508307D01*
X122527522Y-66502440D01*
X122529153Y-66496594D01*
X122530857Y-66490771D01*
X122532635Y-66484970D01*
X122533553Y-66482079D01*
X122534490Y-66479194D01*
X122535447Y-66476315D01*
X122536423Y-66473443D01*
X122537418Y-66470577D01*
X122538434Y-66467717D01*
X122539469Y-66464864D01*
X122540525Y-66462018D01*
X122541601Y-66459179D01*
X122542698Y-66456347D01*
X122543815Y-66453521D01*
X122544953Y-66450703D01*
X122546112Y-66447892D01*
X122547292Y-66445089D01*
X122548493Y-66442293D01*
X122549717Y-66439504D01*
X122550961Y-66436723D01*
X122552228Y-66433950D01*
X122553516Y-66431185D01*
X122554827Y-66428428D01*
X122556160Y-66425679D01*
X122557515Y-66422938D01*
X122558893Y-66420206D01*
X122560294Y-66417482D01*
X122561718Y-66414766D01*
X122563165Y-66412059D01*
X122564636Y-66409361D01*
X122566130Y-66406672D01*
X122567647Y-66403991D01*
X122569188Y-66401320D01*
X122570754Y-66398658D01*
X122572343Y-66396005D01*
X122573957Y-66393361D01*
X122575595Y-66390727D01*
X122577258Y-66388102D01*
X122578945Y-66385487D01*
X122580658Y-66382882D01*
X122582395Y-66380287D01*
X122584158Y-66377702D01*
X122585947Y-66375127D01*
X122587761Y-66372562D01*
X122589600Y-66370007D01*
X122591466Y-66367463D01*
X122593358Y-66364929D01*
X122595276Y-66362406D01*
X122597221Y-66359894D01*
X122599192Y-66357392D01*
X122601190Y-66354902D01*
X122603215Y-66352422D01*
X122605266Y-66349954D01*
X122607346Y-66347496D01*
X122609452Y-66345050D01*
X122611587Y-66342616D01*
X122613749Y-66340193D01*
X122615939Y-66337782D01*
X122618157Y-66335383D01*
X122620403Y-66332995D01*
X122622677Y-66330620D01*
X122624981Y-66328256D01*
X122627313Y-66325905D01*
X122629674Y-66323566D01*
X122632064Y-66321240D01*
X122634483Y-66318926D01*
X122636932Y-66316624D01*
X122639410Y-66314335D01*
X122641918Y-66312060D01*
X122644456Y-66309797D01*
X122647024Y-66307547D01*
X122649622Y-66305310D01*
X122652250Y-66303086D01*
X122654909Y-66300876D01*
X122657599Y-66298679D01*
X122660320Y-66296496D01*
X122663072Y-66294327D01*
X122665855Y-66292171D01*
X122668669Y-66290029D01*
X122671515Y-66287901D01*
X122674393Y-66285787D01*
X122677302Y-66283688D01*
X122680244Y-66281602D01*
X122683218Y-66279531D01*
X122686224Y-66277475D01*
X122689262Y-66275433D01*
X122692334Y-66273406D01*
X122695438Y-66271393D01*
X122698575Y-66269396D01*
X122701746Y-66267413D01*
X122704950Y-66265446D01*
X122708187Y-66263494D01*
X122711458Y-66261557D01*
X122714763Y-66259636D01*
X122718102Y-66257730D01*
X122721475Y-66255840D01*
X122724883Y-66253966D01*
X122728324Y-66252107D01*
X122731801Y-66250265D01*
X122735313Y-66248439D01*
X122738859Y-66246628D01*
X122742441Y-66244834D01*
X122746058Y-66243057D01*
X122749710Y-66241296D01*
X122753399Y-66239551D01*
X122757123Y-66237823D01*
X122760883Y-66236112D01*
X122764679Y-66234418D01*
X122768511Y-66232741D01*
X122772380Y-66231081D01*
X122776286Y-66229439D01*
X122780229Y-66227813D01*
X122784208Y-66226205D01*
X122788225Y-66224615D01*
X122792279Y-66223042D01*
X122796370Y-66221487D01*
X122800499Y-66219950D01*
X122804666Y-66218431D01*
X122808871Y-66216930D01*
X122813114Y-66215447D01*
X122817395Y-66213982D01*
X122821715Y-66212536D01*
X122826073Y-66211108D01*
X122830471Y-66209699D01*
X122834907Y-66208308D01*
X122839382Y-66206936D01*
X122843897Y-66205583D01*
X122848451Y-66204250D01*
X122853044Y-66202935D01*
X122857678Y-66201639D01*
X122862351Y-66200363D01*
X122867065Y-66199106D01*
X122871819Y-66197869D01*
X122876613Y-66196652D01*
X122881448Y-66195454D01*
X122886323Y-66194276D01*
X122891240Y-66193118D01*
X122896198Y-66191980D01*
X122901197Y-66190862D01*
X122906237Y-66189764D01*
X122911319Y-66188687D01*
X122911319Y-67818653D02*
X122907805Y-67819560D01*
X122904311Y-67820442D01*
X122900846Y-67821296D01*
X122897400Y-67822124D01*
X122893984Y-67822925D01*
X122890587Y-67823701D01*
X122887218Y-67824449D01*
X122883868Y-67825173D01*
X122880547Y-67825871D01*
X122877244Y-67826544D01*
X122873969Y-67827191D01*
X122870712Y-67827814D01*
X122867483Y-67828412D01*
X122864272Y-67828986D01*
X122861087Y-67829535D01*
X122857921Y-67830060D01*
X122854781Y-67830561D01*
X122851659Y-67831039D01*
X122848562Y-67831492D01*
X122845484Y-67831923D01*
X122842430Y-67832330D01*
X122839394Y-67832715D01*
X122836383Y-67833076D01*
X122833389Y-67833415D01*
X122830420Y-67833731D01*
X122827468Y-67834026D01*
X122824540Y-67834298D01*
X122821628Y-67834548D01*
X122818740Y-67834776D01*
X122815869Y-67834983D01*
X122813021Y-67835168D01*
X122810189Y-67835332D01*
X122807380Y-67835475D01*
X122804587Y-67835597D01*
X122801816Y-67835698D01*
X122799061Y-67835778D01*
X122796328Y-67835838D01*
X122793611Y-67835877D01*
X122790916Y-67835897D01*
X122788236Y-67835896D01*
X122785576Y-67835875D01*
X122782933Y-67835834D01*
X122780309Y-67835774D01*
X122777701Y-67835694D01*
X122775113Y-67835594D01*
X122772541Y-67835475D01*
X122769987Y-67835338D01*
X122767449Y-67835181D01*
X122764930Y-67835005D01*
X122762425Y-67834810D01*
X122759940Y-67834596D01*
X122757469Y-67834364D01*
X122755016Y-67834114D01*
X122752578Y-67833844D01*
X122750157Y-67833557D01*
X122747751Y-67833251D01*
X122745362Y-67832928D01*
X122742988Y-67832586D01*
X122740630Y-67832226D01*
X122738287Y-67831849D01*
X122735960Y-67831454D01*
X122733647Y-67831041D01*
X122731350Y-67830610D01*
X122729067Y-67830162D01*
X122726799Y-67829696D01*
X122724546Y-67829213D01*
X122722307Y-67828713D01*
X122720082Y-67828196D01*
X122717872Y-67827661D01*
X122715676Y-67827109D01*
X122713493Y-67826540D01*
X122711325Y-67825954D01*
X122709170Y-67825351D01*
X122707028Y-67824732D01*
X122704900Y-67824095D01*
X122702786Y-67823441D01*
X122700684Y-67822771D01*
X122698596Y-67822084D01*
X122696520Y-67821380D01*
X122694457Y-67820659D01*
X122692407Y-67819921D01*
X122690370Y-67819167D01*
X122688344Y-67818397D01*
X122686332Y-67817609D01*
X122684331Y-67816805D01*
X122682344Y-67815985D01*
X122678403Y-67814293D01*
X122674509Y-67812536D01*
X122670662Y-67810712D01*
X122666861Y-67808821D01*
X122663104Y-67806863D01*
X122659392Y-67804838D01*
X122655723Y-67802747D01*
X122652096Y-67800587D01*
X122648511Y-67798360D01*
X122644968Y-67796065D01*
X122641466Y-67793701D01*
X122638003Y-67791268D01*
X122634580Y-67788765D01*
X122631197Y-67786192D01*
X122627852Y-67783548D01*
X122624545Y-67780832D01*
X122621276Y-67778045D01*
X122618044Y-67775184D01*
X122614849Y-67772249D01*
X122611691Y-67769240D01*
X122608570Y-67766155D01*
X122605484Y-67762994D01*
X122602435Y-67759755D01*
X122599421Y-67756438D01*
X122596443Y-67753041D01*
X122593500Y-67749564D01*
X122590593Y-67746005D01*
X122587721Y-67742363D01*
X122584885Y-67738637D01*
X122582083Y-67734825D01*
X122579318Y-67730927D01*
X122576587Y-67726941D01*
X122573893Y-67722866D01*
X122571234Y-67718700D01*
X122568611Y-67714442D01*
X122566024Y-67710090D01*
X122563474Y-67705643D01*
X122560960Y-67701100D01*
X122558483Y-67696459D01*
X122556044Y-67691718D01*
X122553642Y-67686876D01*
X122551279Y-67681931D01*
X122548953Y-67676881D01*
X122546667Y-67671726D01*
X122544421Y-67666462D01*
X122542214Y-67661089D01*
X122540048Y-67655604D01*
X122537922Y-67650006D01*
X122535839Y-67644292D01*
X122533798Y-67638462D01*
X122531799Y-67632513D01*
X122529844Y-67626443D01*
X122527934Y-67620250D01*
X122526068Y-67613932D01*
X122524249Y-67607488D01*
X122522475Y-67600914D01*
X122520749Y-67594210D01*
X122519071Y-67587372D01*
X122517442Y-67580399D01*
X122515862Y-67573289D01*
X122514333Y-67566038D01*
X122512856Y-67558646D01*
X122511431Y-67551108D01*
X122510059Y-67543424D01*
X122508742Y-67535591D01*
X122507479Y-67527605D01*
X122506273Y-67519465D01*
X122505124Y-67511168D01*
X122504033Y-67502711D01*
X122503002Y-67494090D01*
X122502030Y-67485304D01*
X122501120Y-67476349D01*
X122500273Y-67467222D01*
X122499489Y-67457919D01*
X122498769Y-67448437D01*
X122498116Y-67438772D01*
X122497529Y-67428921D01*
X122497010Y-67418879D01*
X122496561Y-67408641D01*
X122496183Y-67398204D01*
X122495876Y-67387561D01*
X122495643Y-67376707D01*
X122495484Y-67365636D01*
X122495400Y-67354341D01*
X122495395Y-67342814D01*
X122495468Y-67331046D01*
X122495622Y-67319028D01*
X122495857Y-67306749D01*
X122496177Y-67294194D01*
X122496583Y-67281349D01*
X122497078Y-67268195D01*
X122497663Y-67254708D01*
X122498342Y-67240860D01*
X122499119Y-67226614D01*
X122499999Y-67211924D01*
X122500986Y-67196724D01*
X122502090Y-67180926D01*
X122503321Y-67164397D01*
X122504699Y-67146928D01*
X122506254Y-67128154D01*
X122508052Y-67107330D01*
X122510272Y-67082399D01*
X122511065Y-67073593D01*
X122512773Y-67054555D01*
X122514356Y-67036540D01*
X122515088Y-67027938D01*
X122515773Y-67019620D01*
X122516407Y-67011593D01*
X122516984Y-67003868D01*
X122931605Y-66189747D02*
X122951625Y-66192895D01*
X122971352Y-66198079D01*
X122990763Y-66205248D01*
X123009834Y-66214351D01*
X123028538Y-66225335D01*
X123046851Y-66238151D01*
X123064749Y-66252747D01*
X123082207Y-66269072D01*
X123099200Y-66287074D01*
X123115704Y-66306703D01*
X123131693Y-66327906D01*
X123147144Y-66350634D01*
X123162031Y-66374834D01*
X123176329Y-66400455D01*
X123190014Y-66427447D01*
X123203061Y-66455757D01*
X123215446Y-66485336D01*
X123227143Y-66516131D01*
X123238129Y-66548091D01*
X123248377Y-66581166D01*
X123257864Y-66615303D01*
X123266565Y-66650452D01*
X123274455Y-66686562D01*
X123281510Y-66723580D01*
X123287704Y-66761457D01*
X123293013Y-66800141D01*
X123297412Y-66839580D01*
X123300876Y-66879723D01*
X123303381Y-66920520D01*
X123304903Y-66961919D01*
X123305415Y-67003868D01*
X123303381Y-67087212D01*
X123297412Y-67168139D01*
X123287704Y-67246243D01*
X123274455Y-67321113D01*
X123257864Y-67392341D01*
X123238129Y-67459520D01*
X123215446Y-67522239D01*
X123190014Y-67580091D01*
X123162031Y-67632667D01*
X123131693Y-67679559D01*
X123099200Y-67720357D01*
X123064749Y-67754654D01*
X123046851Y-67769237D01*
X123028538Y-67782041D01*
X123009834Y-67793015D01*
X122990763Y-67802108D01*
X122971352Y-67809270D01*
X122951625Y-67814448D01*
X122931605Y-67817593D01*
X122911319Y-67818653D01*
X122891038Y-67817593D01*
X122871023Y-67814448D01*
X122851297Y-67809270D01*
X122831886Y-67802108D01*
X122812814Y-67793015D01*
X122794107Y-67782041D01*
X122775789Y-67769237D01*
X122757884Y-67754654D01*
X122740419Y-67738344D01*
X122723417Y-67720357D01*
X122706903Y-67700745D01*
X122690903Y-67679559D01*
X122675441Y-67656849D01*
X122660543Y-67632667D01*
X122646232Y-67607064D01*
X122632534Y-67580091D01*
X122619473Y-67551799D01*
X122607075Y-67522239D01*
X122595365Y-67491462D01*
X122584366Y-67459520D01*
X122574105Y-67426462D01*
X122564606Y-67392341D01*
X122555893Y-67357208D01*
X122547992Y-67321113D01*
X122540927Y-67284107D01*
X122534724Y-67246243D01*
X122529407Y-67207570D01*
X122525001Y-67168139D01*
X122521530Y-67128003D01*
X122519021Y-67087212D01*
X122517497Y-67045816D01*
X122516984Y-67003868D01*
X122519021Y-66920520D01*
X122525001Y-66839580D01*
X122534724Y-66761457D01*
X122547992Y-66686562D01*
X122564606Y-66615303D01*
X122584366Y-66548091D01*
X122607075Y-66485336D01*
X122632534Y-66427447D01*
X122660543Y-66374834D01*
X122690903Y-66327906D01*
X122723417Y-66287074D01*
X122757884Y-66252747D01*
X122775789Y-66238151D01*
X122794107Y-66225335D01*
X122812814Y-66214351D01*
X122831886Y-66205248D01*
X122851297Y-66198079D01*
X122871023Y-66192895D01*
X122891038Y-66189747D01*
X122911319Y-66188687D01*
X122931605Y-66189747D01*
X124084957Y-65603931D02*
X124084957Y-69651739D01*
X119827838Y-68816476D01*
X119827838Y-65195865D01*
X124084957Y-65603931D01*
X123305415Y-67003868D02*
X123305766Y-67005819D01*
X123306179Y-67008216D01*
X123306725Y-67011524D01*
X123307388Y-67015714D01*
X123308150Y-67020758D01*
X123308992Y-67026629D01*
X123309897Y-67033298D01*
X123310847Y-67040738D01*
X123311824Y-67048921D01*
X123312810Y-67057818D01*
X123313302Y-67062526D01*
X123313789Y-67067402D01*
X123314269Y-67072443D01*
X123314741Y-67077645D01*
X123315201Y-67083005D01*
X123315649Y-67088518D01*
X123316081Y-67094183D01*
X123316495Y-67099995D01*
X123316889Y-67105950D01*
X123317262Y-67112046D01*
X123317610Y-67118279D01*
X123317931Y-67124645D01*
X123318223Y-67131140D01*
X123318485Y-67137762D01*
X123318713Y-67144506D01*
X123318906Y-67151370D01*
X123319061Y-67158350D01*
X123319176Y-67165442D01*
X123319249Y-67172642D01*
X123319277Y-67179948D01*
X123319259Y-67187356D01*
X123319192Y-67194862D01*
X123319074Y-67202463D01*
X123318903Y-67210155D01*
X123318676Y-67217935D01*
X123318391Y-67225799D01*
X123318046Y-67233744D01*
X123317640Y-67241766D01*
X123317168Y-67249862D01*
X123316630Y-67258029D01*
X123316023Y-67266262D01*
X123315346Y-67274559D01*
X123314594Y-67282916D01*
X123313767Y-67291329D01*
X123312863Y-67299795D01*
X123311878Y-67308310D01*
X123310811Y-67316871D01*
X123309660Y-67325474D01*
X123309052Y-67329791D01*
X123308422Y-67334117D01*
X123307769Y-67338451D01*
X123307095Y-67342794D01*
X123306397Y-67347145D01*
X123305677Y-67351504D01*
X123304933Y-67355870D01*
X123304165Y-67360242D01*
X123303374Y-67364621D01*
X123302558Y-67369005D01*
X123301718Y-67373395D01*
X123300853Y-67377789D01*
X123299963Y-67382189D01*
X123299048Y-67386592D01*
X123298107Y-67390999D01*
X123297141Y-67395409D01*
X123296148Y-67399821D01*
X123295129Y-67404236D01*
X123294083Y-67408653D01*
X123293010Y-67413071D01*
X123291910Y-67417491D01*
X123290783Y-67421910D01*
X123289627Y-67426330D01*
X123288444Y-67430750D01*
X123287232Y-67435169D01*
X123285992Y-67439586D01*
X123284722Y-67444002D01*
X123283424Y-67448416D01*
X123282096Y-67452828D01*
X123280738Y-67457236D01*
X123279351Y-67461641D01*
X123277933Y-67466043D01*
X123276484Y-67470440D01*
X123275005Y-67474832D01*
X123273494Y-67479219D01*
X123271952Y-67483601D01*
X123270378Y-67487976D01*
X123268773Y-67492345D01*
X123267135Y-67496708D01*
X123265464Y-67501063D01*
X123263761Y-67505410D01*
X123262025Y-67509749D01*
X123260255Y-67514080D01*
X123258452Y-67518401D01*
X123256614Y-67522713D01*
X123254743Y-67527015D01*
X123252837Y-67531306D01*
X123250896Y-67535587D01*
X123248920Y-67539857D01*
X123246909Y-67544114D01*
X123244863Y-67548360D01*
X123242780Y-67552593D01*
X123240662Y-67556813D01*
X123238507Y-67561020D01*
X123236315Y-67565213D01*
X123234086Y-67569392D01*
X123231820Y-67573555D01*
X123229516Y-67577704D01*
X123227175Y-67581837D01*
X123224796Y-67585954D01*
X123222378Y-67590055D01*
X123219921Y-67594138D01*
X123217426Y-67598204D01*
X123214891Y-67602253D01*
X123212317Y-67606283D01*
X123209703Y-67610295D01*
X123207049Y-67614287D01*
X123204355Y-67618260D01*
X123201620Y-67622213D01*
X123198844Y-67626145D01*
X123196028Y-67630057D01*
X123193169Y-67633947D01*
X123190269Y-67637816D01*
X123187327Y-67641662D01*
X123184343Y-67645486D01*
X123181316Y-67649287D01*
X123178246Y-67653064D01*
X123175134Y-67656818D01*
X123171978Y-67660547D01*
X123168778Y-67664251D01*
X123165534Y-67667930D01*
X123162246Y-67671583D01*
X123158914Y-67675211D01*
X123155536Y-67678811D01*
X123152114Y-67682385D01*
X123148646Y-67685932D01*
X123145133Y-67689450D01*
X123141574Y-67692940D01*
X123137969Y-67696402D01*
X123134317Y-67699834D01*
X123130619Y-67703237D01*
X123126873Y-67706610D01*
X123123081Y-67709952D01*
X123119240Y-67713263D01*
X123115352Y-67716544D01*
X123111416Y-67719792D01*
X123107431Y-67723008D01*
X123103398Y-67726191D01*
X123099316Y-67729342D01*
X123095184Y-67732458D01*
X123091003Y-67735541D01*
X123086773Y-67738590D01*
X123082492Y-67741603D01*
X123078161Y-67744582D01*
X123073779Y-67747524D01*
X123069346Y-67750431D01*
X123064862Y-67753301D01*
X123060327Y-67756134D01*
X123055740Y-67758929D01*
X123051101Y-67761687D01*
X123046410Y-67764406D01*
X123041666Y-67767087D01*
X123036869Y-67769728D01*
X123032019Y-67772329D01*
X123027116Y-67774891D01*
X123022159Y-67777412D01*
X123017148Y-67779892D01*
X123012083Y-67782331D01*
X123006963Y-67784728D01*
X123001789Y-67787082D01*
X122996559Y-67789394D01*
X122991275Y-67791663D01*
X122985934Y-67793888D01*
X122980538Y-67796070D01*
X122975085Y-67798206D01*
X122969576Y-67800298D01*
X122964010Y-67802345D01*
X122958387Y-67804346D01*
X122952707Y-67806300D01*
X122946970Y-67808208D01*
X122941174Y-67810069D01*
X122935321Y-67811883D01*
X122929408Y-67813648D01*
X122923438Y-67815366D01*
X122917408Y-67817034D01*
X122911319Y-67818653D01*
D13*
X122409907Y-64509906D02*
X122363155Y-64690484D01*
X122362461Y-64692393D01*
X122360760Y-64697881D01*
X122359710Y-64701856D01*
X122358621Y-64706591D01*
X122357567Y-64712043D01*
X122356616Y-64718166D01*
X122355842Y-64724917D01*
X122355314Y-64732249D01*
X122355165Y-64736120D01*
X122355105Y-64740119D01*
X122355142Y-64744242D01*
X122355285Y-64748483D01*
X122355544Y-64752835D01*
X122355927Y-64757294D01*
X122356443Y-64761854D01*
X122357100Y-64766510D01*
X122357909Y-64771255D01*
X122358877Y-64776084D01*
X122360014Y-64780992D01*
X122361329Y-64785973D01*
X121408194Y-64607379D01*
X121744268Y-64409894D01*
X122409907Y-64509906D01*
D10*
X122408002Y-63933247D02*
X122363155Y-64690483D01*
X125942420Y-64392169D02*
X125994561Y-64400290D01*
X126041470Y-64419734D01*
X126080389Y-64454501D01*
X126111813Y-64503598D01*
X126136239Y-64566033D01*
X126154163Y-64640816D01*
X126166082Y-64726953D01*
X126173891Y-64929323D01*
X126163637Y-65165209D01*
X126139292Y-65426675D01*
X126064213Y-65994606D01*
X125980427Y-66569633D01*
X125945198Y-66839968D01*
X125919708Y-67088271D01*
X125907927Y-67306606D01*
X125913828Y-67487037D01*
X125924650Y-67560560D01*
X125941382Y-67621630D01*
X125964520Y-67669257D01*
X125994561Y-67702449D01*
X126020564Y-67730423D01*
X126031808Y-67762912D01*
X126029209Y-67799678D01*
X126013684Y-67840478D01*
X125986147Y-67885073D01*
X125947515Y-67933223D01*
X125840629Y-68039222D01*
X125700352Y-68156553D01*
X125534011Y-68283291D01*
X125152442Y-68557297D01*
X124754535Y-68845852D01*
X124567772Y-68990775D01*
X124398904Y-69133565D01*
X124255258Y-69272297D01*
X124195183Y-69339541D01*
X124144162Y-69405048D01*
X124103109Y-69468580D01*
X124079135Y-69517305D01*
X124098854Y-69320568D01*
X124139567Y-68736897D01*
X124176923Y-68005571D01*
X124200531Y-67226603D01*
X124200000Y-66500000D01*
X124187435Y-66187589D01*
X124164939Y-65925773D01*
X124131213Y-65727054D01*
X124109732Y-65655262D01*
X124084957Y-65603932D01*
X124173892Y-65542725D01*
X124272675Y-65466447D01*
X124494820Y-65279998D01*
X124741462Y-65067213D01*
X124870866Y-64958017D01*
X125002671Y-64850723D01*
X125135635Y-64748160D01*
X125268516Y-64653156D01*
X125400074Y-64568541D01*
X125464968Y-64531013D01*
X125529066Y-64497142D01*
X125592213Y-64467283D01*
X125654253Y-64441789D01*
X125715030Y-64421014D01*
X125774391Y-64405310D01*
X125832180Y-64395033D01*
X125888241Y-64390534D01*
X125942420Y-64392169D01*
X123319308Y-64125731D02*
X123568624Y-64200663D01*
X124065175Y-69656577D02*
X124054221Y-69700455D01*
X124048921Y-69644913D01*
X124054573Y-69588753D01*
X124072940Y-69529895D01*
X124079135Y-69517305D01*
X124065175Y-69656577D01*
X125994561Y-67702446D02*
X124084957Y-69651737D01*
X124084957Y-65603930D01*
X125994561Y-64400288D01*
X125994561Y-67702446D01*
X122439145Y-61650164D02*
X122440830Y-61642661D01*
X122442636Y-61634988D01*
X122444564Y-61627151D01*
X122446612Y-61619160D01*
X122448780Y-61611023D01*
X122451069Y-61602749D01*
X122453477Y-61594346D01*
X122454725Y-61590097D01*
X122456002Y-61585824D01*
X122457309Y-61581521D01*
X122458644Y-61577194D01*
X122460008Y-61572840D01*
X122461400Y-61568464D01*
X122462820Y-61564065D01*
X122464268Y-61559645D01*
X122465744Y-61555206D01*
X122467248Y-61550747D01*
X122468778Y-61546272D01*
X122470335Y-61541779D01*
X122471918Y-61537274D01*
X122473528Y-61532752D01*
X122475162Y-61528221D01*
X122476824Y-61523675D01*
X122478509Y-61519123D01*
X122480220Y-61514557D01*
X122481954Y-61509990D01*
X122483714Y-61505409D01*
X122485495Y-61500830D01*
X122487302Y-61496239D01*
X122489129Y-61491653D01*
X122490981Y-61487056D01*
X122492852Y-61482467D01*
X122494749Y-61477869D01*
X122496663Y-61473282D01*
X122498602Y-61468686D01*
X122500557Y-61464104D01*
X122502538Y-61459515D01*
X122504532Y-61454943D01*
X122506552Y-61450364D01*
X122508585Y-61445805D01*
X122510642Y-61441241D01*
X122512712Y-61436698D01*
X122514805Y-61432151D01*
X122516910Y-61427628D01*
X122519038Y-61423102D01*
X122521176Y-61418602D01*
X122523338Y-61414101D01*
X122525508Y-61409627D01*
X122527701Y-61405152D01*
X122529902Y-61400707D01*
X122532125Y-61396263D01*
X122534355Y-61391849D01*
X122536607Y-61387437D01*
X122538865Y-61383058D01*
X122541144Y-61378681D01*
X122543429Y-61374338D01*
X122545734Y-61369998D01*
X122548043Y-61365693D01*
X122550373Y-61361393D01*
X122552706Y-61357129D01*
X122555060Y-61352870D01*
X122557415Y-61348649D01*
X122559791Y-61344433D01*
X122562168Y-61340256D01*
X122564564Y-61336085D01*
X122566961Y-61331954D01*
X122569377Y-61327830D01*
X122571792Y-61323746D01*
X122574227Y-61319670D01*
X122576660Y-61315635D01*
X122579112Y-61311608D01*
X122581563Y-61307623D01*
X122584031Y-61303647D01*
X122586497Y-61299712D01*
X122588980Y-61295788D01*
X122591461Y-61291905D01*
X122593959Y-61288034D01*
X122596453Y-61284204D01*
X122598965Y-61280386D01*
X122601472Y-61276610D01*
X122603995Y-61272846D01*
X122606515Y-61269125D01*
X122609050Y-61265416D01*
X122611580Y-61261750D01*
X122614126Y-61258097D01*
X122616666Y-61254487D01*
X122619222Y-61250889D01*
X122621772Y-61247335D01*
X122624337Y-61243795D01*
X122626896Y-61240297D01*
X122629469Y-61236814D01*
X122632036Y-61233373D01*
X122634617Y-61229947D01*
X122637190Y-61226564D01*
X122639779Y-61223195D01*
X122642359Y-61219869D01*
X122644953Y-61216558D01*
X122647540Y-61213290D01*
X122650140Y-61210037D01*
X122652732Y-61206826D01*
X122655337Y-61203631D01*
X122657934Y-61200478D01*
X122660544Y-61197341D01*
X122663145Y-61194246D01*
X122665759Y-61191167D01*
X122668364Y-61188129D01*
X122670981Y-61185108D01*
X122673590Y-61182128D01*
X122676210Y-61179165D01*
X122678821Y-61176243D01*
X122681444Y-61173337D01*
X122684058Y-61170473D01*
X122686683Y-61167625D01*
X122689298Y-61164817D01*
X122691925Y-61162027D01*
X122694542Y-61159276D01*
X122697171Y-61156543D01*
X122699789Y-61153849D01*
X122702419Y-61151172D01*
X122705038Y-61148535D01*
X122707668Y-61145915D01*
X122710288Y-61143334D01*
X122712918Y-61140771D01*
X122715538Y-61138246D01*
X122718169Y-61135738D01*
X122720789Y-61133269D01*
X122723419Y-61130817D01*
X122726039Y-61128403D01*
X122728668Y-61126007D01*
X122731287Y-61123647D01*
X122733917Y-61121306D01*
X122736535Y-61119001D01*
X122739163Y-61116715D01*
X122741780Y-61114464D01*
X122744407Y-61112232D01*
X122747024Y-61110035D01*
X122749649Y-61107857D01*
X122752264Y-61105713D01*
X122754888Y-61103588D01*
X122757502Y-61101498D01*
X122760124Y-61099426D01*
X122762736Y-61097388D01*
X122765356Y-61095369D01*
X122767966Y-61093383D01*
X122770585Y-61091416D01*
X122773193Y-61089482D01*
X122775810Y-61087567D01*
X122778416Y-61085684D01*
X122781030Y-61083820D01*
X122783634Y-61081988D01*
X122786246Y-61080175D01*
X122788848Y-61078393D01*
X122791458Y-61076631D01*
X122794058Y-61074899D01*
X122796665Y-61073187D01*
X122799263Y-61071505D01*
X122801868Y-61069842D01*
X122804463Y-61068209D01*
X122807066Y-61066595D01*
X122809659Y-61065011D01*
X122812259Y-61063446D01*
X122814850Y-61061911D01*
X122817448Y-61060394D01*
X122820036Y-61058906D01*
X122822632Y-61057438D01*
X122825217Y-61055997D01*
X122827811Y-61054576D01*
X122830394Y-61053183D01*
X122832985Y-61051808D01*
X122835567Y-61050462D01*
X122838155Y-61049134D01*
X122840734Y-61047834D01*
X122843320Y-61046553D01*
X122845898Y-61045298D01*
X122848481Y-61044063D01*
X122851057Y-61042854D01*
X122853638Y-61041664D01*
X122856212Y-61040500D01*
X122858791Y-61039356D01*
X122861363Y-61038237D01*
X122863940Y-61037137D01*
X122866510Y-61036062D01*
X122869086Y-61035007D01*
X122871654Y-61033976D01*
X122874228Y-61032965D01*
X122876794Y-61031978D01*
X122879367Y-61031011D01*
X122881932Y-61030067D01*
X122884503Y-61029143D01*
X122887066Y-61028243D01*
X122889636Y-61027362D01*
X122892198Y-61026505D01*
X122894767Y-61025667D01*
X122897328Y-61024852D01*
X122899895Y-61024057D01*
X122902456Y-61023284D01*
X122905022Y-61022531D01*
X122907582Y-61021800D01*
X122910148Y-61021089D01*
X122912707Y-61020401D01*
X122915272Y-61019731D01*
X122917831Y-61019084D01*
X122920396Y-61018457D01*
X122922955Y-61017851D01*
X122925519Y-61017264D01*
X122928078Y-61016700D01*
X122930642Y-61016155D01*
X122933201Y-61015631D01*
X122935766Y-61015127D01*
X122938325Y-61014644D01*
X122940890Y-61014181D01*
X122943450Y-61013739D01*
X122946015Y-61013316D01*
X122948576Y-61012915D01*
X122951142Y-61012533D01*
X122953704Y-61012171D01*
X122956271Y-61011830D01*
X122958834Y-61011509D01*
X122961402Y-61011208D01*
X122963967Y-61010927D01*
X122966536Y-61010666D01*
X122969103Y-61010425D01*
X122971674Y-61010204D01*
X122974242Y-61010004D01*
X122976815Y-61009823D01*
X122979385Y-61009663D01*
X122981960Y-61009522D01*
X122984533Y-61009402D01*
X122987110Y-61009301D01*
X122989685Y-61009221D01*
X122992265Y-61009160D01*
X122994843Y-61009120D01*
X122997426Y-61009099D01*
X123000007Y-61009099D01*
X123002593Y-61009119D01*
X123005177Y-61009159D01*
X123007766Y-61009218D01*
X123010354Y-61009298D01*
X123012947Y-61009399D01*
X123015538Y-61009519D01*
X123018135Y-61009659D01*
X123020730Y-61009820D01*
X123023330Y-61010000D01*
X123025930Y-61010201D01*
X123028535Y-61010423D01*
X123031139Y-61010664D01*
X123033748Y-61010926D01*
X123036357Y-61011209D01*
X123038971Y-61011511D01*
X123041585Y-61011835D01*
X123044204Y-61012178D01*
X123046823Y-61012543D01*
X123049447Y-61012928D01*
X123052072Y-61013333D01*
X123054701Y-61013759D01*
X123057332Y-61014206D01*
X123059967Y-61014674D01*
X123062603Y-61015163D01*
X123065244Y-61015673D01*
X123067887Y-61016204D01*
X123070534Y-61016755D01*
X123073183Y-61017328D01*
X123075836Y-61017923D01*
X123078492Y-61018538D01*
X123081152Y-61019175D01*
X123083815Y-61019833D01*
X123086482Y-61020513D01*
X123089152Y-61021214D01*
X123091826Y-61021937D01*
X123094024Y-61022547D01*
X120807370Y-66007375D02*
X120826447Y-66010373D01*
X120845247Y-66015310D01*
X120863744Y-66022137D01*
X120881917Y-66030806D01*
X120899740Y-66041268D01*
X120917191Y-66053474D01*
X120934246Y-66067375D01*
X120950882Y-66082923D01*
X120967074Y-66100069D01*
X120982800Y-66118763D01*
X120998036Y-66138958D01*
X121012758Y-66160604D01*
X121026942Y-66183653D01*
X121040567Y-66208056D01*
X121053606Y-66233764D01*
X121066038Y-66260728D01*
X121077838Y-66288901D01*
X121088984Y-66318232D01*
X121099451Y-66348673D01*
X121109216Y-66380176D01*
X121118255Y-66412691D01*
X121126545Y-66446170D01*
X121134063Y-66480564D01*
X121140784Y-66515825D01*
X121146685Y-66551903D01*
X121151744Y-66588750D01*
X121155935Y-66626317D01*
X121159236Y-66664555D01*
X121161623Y-66703416D01*
X121163072Y-66742851D01*
X121163560Y-66782811D01*
X121161623Y-66862191D01*
X121155935Y-66939278D01*
X121146685Y-67013681D01*
X121134063Y-67085011D01*
X121118255Y-67152877D01*
X121099451Y-67216888D01*
X121077838Y-67276655D01*
X121053606Y-67331788D01*
X121026942Y-67381896D01*
X120998036Y-67426588D01*
X120967074Y-67465476D01*
X120934246Y-67498168D01*
X120917191Y-67512069D01*
X120899740Y-67524274D01*
X120881917Y-67534736D01*
X120863744Y-67543405D01*
X120845247Y-67550232D01*
X120826447Y-67555169D01*
X120807370Y-67558167D01*
X120788037Y-67559177D01*
X120768740Y-67558167D01*
X120749694Y-67555169D01*
X120730922Y-67550232D01*
X120712448Y-67543405D01*
X120694296Y-67534736D01*
X120676489Y-67524274D01*
X120659052Y-67512069D01*
X120642008Y-67498168D01*
X120625381Y-67482621D01*
X120609195Y-67465476D01*
X120593473Y-67446782D01*
X120578238Y-67426588D01*
X120563516Y-67404943D01*
X120549329Y-67381896D01*
X120535702Y-67357494D01*
X120522657Y-67331788D01*
X120510219Y-67304825D01*
X120498411Y-67276655D01*
X120487258Y-67247327D01*
X120476783Y-67216888D01*
X120467009Y-67185389D01*
X120457960Y-67152877D01*
X120449661Y-67119401D01*
X120442135Y-67085011D01*
X120435405Y-67049755D01*
X120429495Y-67013681D01*
X120424430Y-66976840D01*
X120420232Y-66939278D01*
X120416926Y-66901046D01*
X120414535Y-66862191D01*
X120413083Y-66822763D01*
X120412594Y-66782811D01*
X120414535Y-66703416D01*
X120420232Y-66626317D01*
X120429495Y-66551903D01*
X120442135Y-66480564D01*
X120457960Y-66412691D01*
X120476783Y-66348673D01*
X120498411Y-66288901D01*
X120522657Y-66233764D01*
X120549329Y-66183653D01*
X120578238Y-66138958D01*
X120609195Y-66100069D01*
X120642008Y-66067375D01*
X120659052Y-66053474D01*
X120676489Y-66041268D01*
X120694296Y-66030806D01*
X120712448Y-66022137D01*
X120730922Y-66015310D01*
X120749694Y-66010373D01*
X120768740Y-66007375D01*
X120788037Y-66006365D01*
X120807370Y-66007375D01*
X122989888Y-62269871D02*
X122989820Y-62269862D01*
X123749166Y-61650173D02*
X123745196Y-61668815D01*
X123744256Y-61673255D01*
X123739529Y-61695480D01*
X123737142Y-61706531D01*
X123734721Y-61717541D01*
X123732252Y-61728507D01*
X123730995Y-61733974D01*
X123729720Y-61739430D01*
X123728427Y-61744875D01*
X123727112Y-61750308D01*
X123725774Y-61755730D01*
X123724412Y-61761141D01*
X123723024Y-61766540D01*
X123721608Y-61771928D01*
X123720161Y-61777304D01*
X123718683Y-61782668D01*
X123717172Y-61788020D01*
X123715626Y-61793360D01*
X123714042Y-61798688D01*
X123712420Y-61804003D01*
X123710757Y-61809306D01*
X123709052Y-61814597D01*
X123707303Y-61819875D01*
X123705508Y-61825141D01*
X123703666Y-61830393D01*
X123701774Y-61835633D01*
X123699831Y-61840860D01*
X123697835Y-61846074D01*
X123695785Y-61851274D01*
X123693678Y-61856461D01*
X123691513Y-61861635D01*
X123689287Y-61866796D01*
X123687000Y-61871942D01*
X123684649Y-61877075D01*
X123682233Y-61882194D01*
X123679750Y-61887300D01*
X123677198Y-61892391D01*
X123674576Y-61897468D01*
X123671880Y-61902531D01*
X123669111Y-61907579D01*
X123666266Y-61912613D01*
X123663342Y-61917633D01*
X123660340Y-61922638D01*
X123657256Y-61927628D01*
X123654089Y-61932603D01*
X123652473Y-61935085D01*
X123650837Y-61937564D01*
X123649178Y-61940038D01*
X123647498Y-61942509D01*
X123645796Y-61944976D01*
X123644071Y-61947439D01*
X123642324Y-61949898D01*
X123640554Y-61952354D01*
X123638761Y-61954805D01*
X123636945Y-61957253D01*
X123635105Y-61959697D01*
X123633242Y-61962137D01*
X123631354Y-61964573D01*
X123629443Y-61967006D01*
X123627508Y-61969434D01*
X123625547Y-61971858D01*
X123623563Y-61974279D01*
X123621553Y-61976695D01*
X123619518Y-61979108D01*
X123617457Y-61981516D01*
X123615371Y-61983921D01*
X123613259Y-61986321D01*
X123611121Y-61988718D01*
X123608956Y-61991110D01*
X123606765Y-61993499D01*
X123604547Y-61995883D01*
X123602302Y-61998263D01*
X123600030Y-62000639D01*
X123597731Y-62003012D01*
X123595404Y-62005379D01*
X123593049Y-62007743D01*
X123590666Y-62010103D01*
X123588255Y-62012459D01*
X123585815Y-62014810D01*
X123583346Y-62017157D01*
X123580848Y-62019500D01*
X123578322Y-62021839D01*
X123575765Y-62024173D01*
X123573179Y-62026504D01*
X123570564Y-62028830D01*
X123567918Y-62031152D01*
X123565242Y-62033469D01*
X123562535Y-62035783D01*
X123559797Y-62038092D01*
X123557029Y-62040396D01*
X123554229Y-62042697D01*
X123551398Y-62044993D01*
X123548535Y-62047284D01*
X123545641Y-62049572D01*
X123542714Y-62051855D01*
X123539755Y-62054133D01*
X123536764Y-62056407D01*
X123533739Y-62058677D01*
X123530682Y-62060942D01*
X123527592Y-62063203D01*
X123524468Y-62065460D01*
X123521310Y-62067712D01*
X123518119Y-62069959D01*
X123514894Y-62072202D01*
X123511634Y-62074441D01*
X123508340Y-62076675D01*
X123505011Y-62078904D01*
X123501647Y-62081129D01*
X123498247Y-62083349D01*
X123494813Y-62085565D01*
X123491342Y-62087776D01*
X123487836Y-62089983D01*
X123484294Y-62092185D01*
X123480716Y-62094382D01*
X123477101Y-62096575D01*
X123473449Y-62098763D01*
X123469760Y-62100946D01*
X123466034Y-62103125D01*
X123462271Y-62105299D01*
X123458470Y-62107469D01*
X123454631Y-62109633D01*
X123450754Y-62111793D01*
X123446839Y-62113948D01*
X123442885Y-62116099D01*
X123438893Y-62118245D01*
X123434862Y-62120386D01*
X123430791Y-62122522D01*
X123426681Y-62124653D01*
X123422531Y-62126779D01*
X123418342Y-62128901D01*
X123414112Y-62131018D01*
X123409842Y-62133130D01*
X123405532Y-62135237D01*
X123401181Y-62137339D01*
X123396789Y-62139437D01*
X123392355Y-62141529D01*
X123387881Y-62143617D01*
X123383364Y-62145699D01*
X123378806Y-62147777D01*
X123374206Y-62149850D01*
X123369564Y-62151917D01*
X123364879Y-62153980D01*
X123360151Y-62156038D01*
X123355380Y-62158091D01*
X123350566Y-62160138D01*
X123345709Y-62162181D01*
X123340808Y-62164219D01*
X123335863Y-62166251D01*
X123330874Y-62168279D01*
X123325841Y-62170301D01*
X123320764Y-62172319D01*
X123315641Y-62174331D01*
X123310474Y-62176338D01*
X123305261Y-62178340D01*
X123300003Y-62180337D01*
X123294700Y-62182328D01*
X123289351Y-62184315D01*
X123283955Y-62186296D01*
X123278513Y-62188272D01*
X123273025Y-62190243D01*
X123267490Y-62192208D01*
X123261908Y-62194169D01*
X123256279Y-62196124D01*
X123250603Y-62198074D01*
X123244879Y-62200018D01*
X123239107Y-62201958D01*
X123233287Y-62203892D01*
X123227419Y-62205820D01*
X123221502Y-62207744D01*
X123215536Y-62209662D01*
X123209522Y-62211574D01*
X123197345Y-62215383D01*
X123184970Y-62219171D01*
X123172395Y-62222937D01*
X123159618Y-62226681D01*
X123146637Y-62230403D01*
X123133450Y-62234103D01*
X123120056Y-62237781D01*
X123106453Y-62241437D01*
X123092639Y-62245070D01*
X123078612Y-62248681D01*
X123064371Y-62252270D01*
X123049914Y-62255836D01*
X123035239Y-62259379D01*
X123020344Y-62262899D01*
X123005228Y-62266397D01*
X122989888Y-62269871D01*
X123127678Y-61023301D02*
X123160953Y-61025724D01*
X123193743Y-61029714D01*
X123226008Y-61035232D01*
X123257707Y-61042239D01*
X123288798Y-61050694D01*
X123319241Y-61060559D01*
X123348993Y-61071794D01*
X123378015Y-61084360D01*
X123406265Y-61098218D01*
X123433701Y-61113327D01*
X123460283Y-61129649D01*
X123485969Y-61147145D01*
X123510718Y-61165775D01*
X123534490Y-61185499D01*
X123557243Y-61206278D01*
X123578935Y-61228073D01*
X123599526Y-61250844D01*
X123618975Y-61274552D01*
X123637240Y-61299158D01*
X123654280Y-61324622D01*
X123670054Y-61350905D01*
X123684522Y-61377967D01*
X123697641Y-61405769D01*
X123709371Y-61434272D01*
X123719670Y-61463437D01*
X123728498Y-61493223D01*
X123735813Y-61523591D01*
X123741574Y-61554503D01*
X123745740Y-61585918D01*
X123748269Y-61617798D01*
X123749122Y-61650103D01*
X123748269Y-61682429D01*
X123745740Y-61714329D01*
X123741574Y-61745764D01*
X123735813Y-61776693D01*
X123728498Y-61807078D01*
X123719670Y-61836880D01*
X123709371Y-61866058D01*
X123697641Y-61894574D01*
X123684522Y-61922389D01*
X123670054Y-61949462D01*
X123654280Y-61975755D01*
X123637240Y-62001228D01*
X123618975Y-62025842D01*
X123599526Y-62049558D01*
X123578935Y-62072336D01*
X123557243Y-62094137D01*
X123534490Y-62114921D01*
X123510718Y-62134650D01*
X123485969Y-62153283D01*
X123460283Y-62170782D01*
X123433701Y-62187107D01*
X123406265Y-62202219D01*
X123378015Y-62216079D01*
X123348993Y-62228646D01*
X123319241Y-62239883D01*
X123288798Y-62249748D01*
X123257707Y-62258204D01*
X123226008Y-62265211D01*
X123193743Y-62270729D01*
X123160953Y-62274720D01*
X123127678Y-62277143D01*
X123093960Y-62277959D01*
X123060251Y-62277143D01*
X123026985Y-62274720D01*
X122994204Y-62270729D01*
X122961949Y-62265211D01*
X122930261Y-62258204D01*
X122899181Y-62249748D01*
X122868751Y-62239883D01*
X122839010Y-62228646D01*
X122810001Y-62216079D01*
X122781765Y-62202219D01*
X122754342Y-62187107D01*
X122727773Y-62170782D01*
X122702101Y-62153283D01*
X122677364Y-62134650D01*
X122653606Y-62114921D01*
X122630867Y-62094137D01*
X122609187Y-62072336D01*
X122588609Y-62049558D01*
X122569172Y-62025842D01*
X122550919Y-62001228D01*
X122533890Y-61975755D01*
X122518126Y-61949462D01*
X122503669Y-61922389D01*
X122490559Y-61894574D01*
X122478838Y-61866058D01*
X122468546Y-61836880D01*
X122459725Y-61807078D01*
X122452415Y-61776693D01*
X122446659Y-61745764D01*
X122442496Y-61714329D01*
X122439968Y-61682429D01*
X122439116Y-61650103D01*
X122439968Y-61617798D01*
X122442496Y-61585918D01*
X122446659Y-61554503D01*
X122452415Y-61523591D01*
X122459725Y-61493223D01*
X122468546Y-61463437D01*
X122478838Y-61434272D01*
X122490559Y-61405769D01*
X122503669Y-61377967D01*
X122518126Y-61350905D01*
X122533890Y-61324622D01*
X122550919Y-61299158D01*
X122569172Y-61274552D01*
X122588609Y-61250844D01*
X122609187Y-61228073D01*
X122630867Y-61206278D01*
X122653606Y-61185499D01*
X122677364Y-61165775D01*
X122702101Y-61147145D01*
X122727773Y-61129649D01*
X122754342Y-61113327D01*
X122781765Y-61098218D01*
X122810001Y-61084360D01*
X122839010Y-61071794D01*
X122868751Y-61060559D01*
X122899181Y-61050694D01*
X122930261Y-61042239D01*
X122961949Y-61035232D01*
X122994204Y-61029714D01*
X123026985Y-61025724D01*
X123060251Y-61023301D01*
X123093960Y-61022485D01*
X123127678Y-61023301D01*
X120788037Y-67559178D02*
X120784955Y-67559469D01*
X120781888Y-67559739D01*
X120778844Y-67559987D01*
X120775815Y-67560213D01*
X120772808Y-67560418D01*
X120769817Y-67560601D01*
X120766846Y-67560764D01*
X120763892Y-67560905D01*
X120760958Y-67561026D01*
X120758039Y-67561126D01*
X120755140Y-67561205D01*
X120752257Y-67561264D01*
X120749394Y-67561302D01*
X120746546Y-67561320D01*
X120743717Y-67561319D01*
X120740903Y-67561297D01*
X120738109Y-67561255D01*
X120735329Y-67561194D01*
X120732568Y-67561113D01*
X120729821Y-67561013D01*
X120727093Y-67560893D01*
X120724379Y-67560754D01*
X120721684Y-67560595D01*
X120719002Y-67560418D01*
X120716339Y-67560222D01*
X120713689Y-67560007D01*
X120711057Y-67559773D01*
X120708438Y-67559520D01*
X120705837Y-67559249D01*
X120703250Y-67558960D01*
X120700678Y-67558652D01*
X120698121Y-67558325D01*
X120695580Y-67557981D01*
X120693053Y-67557618D01*
X120690541Y-67557237D01*
X120688043Y-67556839D01*
X120685560Y-67556422D01*
X120683090Y-67555988D01*
X120680636Y-67555535D01*
X120678195Y-67555065D01*
X120675768Y-67554578D01*
X120673355Y-67554073D01*
X120670956Y-67553550D01*
X120668570Y-67553010D01*
X120666198Y-67552452D01*
X120663839Y-67551877D01*
X120661493Y-67551285D01*
X120659161Y-67550676D01*
X120656841Y-67550049D01*
X120654535Y-67549405D01*
X120652241Y-67548744D01*
X120649960Y-67548066D01*
X120647692Y-67547370D01*
X120645436Y-67546658D01*
X120643192Y-67545929D01*
X120640961Y-67545182D01*
X120638741Y-67544419D01*
X120636535Y-67543639D01*
X120634339Y-67542842D01*
X120632157Y-67542028D01*
X120627825Y-67540349D01*
X120623540Y-67538602D01*
X120619301Y-67536788D01*
X120615106Y-67534907D01*
X120610956Y-67532958D01*
X120606848Y-67530941D01*
X120602784Y-67528856D01*
X120598761Y-67526703D01*
X120594780Y-67524482D01*
X120590840Y-67522192D01*
X120586940Y-67519834D01*
X120583080Y-67517406D01*
X120579259Y-67514909D01*
X120575477Y-67512341D01*
X120571732Y-67509703D01*
X120568026Y-67506994D01*
X120564357Y-67504214D01*
X120560724Y-67501361D01*
X120557128Y-67498436D01*
X120553569Y-67495437D01*
X120550045Y-67492364D01*
X120546557Y-67489216D01*
X120543104Y-67485992D01*
X120539686Y-67482692D01*
X120536303Y-67479315D01*
X120532955Y-67475860D01*
X120529641Y-67472325D01*
X120526362Y-67468711D01*
X120523117Y-67465016D01*
X120519907Y-67461238D01*
X120516730Y-67457378D01*
X120513588Y-67453434D01*
X120510480Y-67449404D01*
X120507407Y-67445289D01*
X120504367Y-67441086D01*
X120501363Y-67436794D01*
X120498393Y-67432413D01*
X120495458Y-67427941D01*
X120492557Y-67423377D01*
X120489692Y-67418719D01*
X120486863Y-67413967D01*
X120484069Y-67409119D01*
X120481312Y-67404173D01*
X120478590Y-67399129D01*
X120475906Y-67393985D01*
X120473258Y-67388739D01*
X120470648Y-67383391D01*
X120468076Y-67377938D01*
X120465543Y-67372380D01*
X120463048Y-67366715D01*
X120460593Y-67360941D01*
X120458177Y-67355057D01*
X120455803Y-67349062D01*
X120453469Y-67342953D01*
X120451176Y-67336730D01*
X120448926Y-67330391D01*
X120446719Y-67323935D01*
X120444556Y-67317359D01*
X120442437Y-67310662D01*
X120440362Y-67303843D01*
X120438333Y-67296901D01*
X120436351Y-67289833D01*
X120434416Y-67282637D01*
X120432529Y-67275314D01*
X120430690Y-67267859D01*
X120428901Y-67260273D01*
X120427163Y-67252554D01*
X120425475Y-67244699D01*
X120423840Y-67236708D01*
X120422258Y-67228578D01*
X120420730Y-67220309D01*
X120419256Y-67211897D01*
X120417838Y-67203343D01*
X120416477Y-67194643D01*
X120415173Y-67185797D01*
X120413928Y-67176802D01*
X120412742Y-67167658D01*
X120411617Y-67158362D01*
X120410554Y-67148913D01*
X120409553Y-67139309D01*
X120408615Y-67129548D01*
X120407742Y-67119629D01*
X120406935Y-67109550D01*
X120406194Y-67099309D01*
X120405521Y-67088905D01*
X120404917Y-67078335D01*
X120404383Y-67067598D01*
X120403920Y-67056692D01*
X120403528Y-67045615D01*
X120403210Y-67034365D01*
X120402966Y-67022939D01*
X120402797Y-67011336D01*
X120402705Y-66999552D01*
X120402690Y-66987585D01*
X120402754Y-66975433D01*
X120402897Y-66963091D01*
X120403122Y-66950555D01*
X120403428Y-66937821D01*
X120403819Y-66924884D01*
X120404294Y-66911737D01*
X120404855Y-66898372D01*
X120405504Y-66884778D01*
X120406243Y-66870943D01*
X120407073Y-66856850D01*
X120407998Y-66842475D01*
X120409021Y-66827786D01*
X120410145Y-66812736D01*
X120411378Y-66797257D01*
X120412594Y-66782811D01*
X121163560Y-66782811D02*
X121162621Y-66792807D01*
X121161718Y-66803262D01*
X121160850Y-66814232D01*
X121160014Y-66825791D01*
X121159207Y-66838036D01*
X121158423Y-66851103D01*
X121157657Y-66865185D01*
X121156896Y-66880582D01*
X121156119Y-66897816D01*
X121155286Y-66917945D01*
X121154062Y-66949593D01*
X121153067Y-66975452D01*
X121152548Y-66988422D01*
X121152005Y-67001409D01*
X121151431Y-67014407D01*
X121150817Y-67027409D01*
X121150156Y-67040408D01*
X121149440Y-67053399D01*
X121148663Y-67066373D01*
X121147815Y-67079325D01*
X121147363Y-67085790D01*
X121146890Y-67092247D01*
X121146397Y-67098695D01*
X121145881Y-67105133D01*
X121145342Y-67111561D01*
X121144778Y-67117977D01*
X121144190Y-67124380D01*
X121143576Y-67130771D01*
X121142935Y-67137147D01*
X121142266Y-67143508D01*
X121141568Y-67149854D01*
X121140841Y-67156183D01*
X121140082Y-67162495D01*
X121139292Y-67168789D01*
X121138470Y-67175063D01*
X121137613Y-67181318D01*
X121136723Y-67187551D01*
X121135797Y-67193764D01*
X121134834Y-67199953D01*
X121133834Y-67206120D01*
X121132796Y-67212262D01*
X121131718Y-67218380D01*
X121130601Y-67224471D01*
X121129442Y-67230536D01*
X121128241Y-67236574D01*
X121126997Y-67242583D01*
X121125708Y-67248563D01*
X121124375Y-67254514D01*
X121122996Y-67260433D01*
X121121571Y-67266321D01*
X121120097Y-67272176D01*
X121118575Y-67277998D01*
X121117003Y-67283786D01*
X121115380Y-67289538D01*
X121113706Y-67295255D01*
X121111979Y-67300935D01*
X121110198Y-67306578D01*
X121108364Y-67312183D01*
X121106473Y-67317748D01*
X121104527Y-67323273D01*
X121102523Y-67328757D01*
X121100461Y-67334200D01*
X121098340Y-67339600D01*
X121096158Y-67344956D01*
X121093916Y-67350269D01*
X121091611Y-67355536D01*
X121089244Y-67360757D01*
X121086812Y-67365932D01*
X121084316Y-67371059D01*
X121083043Y-67373604D01*
X121081754Y-67376138D01*
X121080448Y-67378659D01*
X121079125Y-67381167D01*
X121077785Y-67383663D01*
X121076428Y-67386146D01*
X121075054Y-67388617D01*
X121073663Y-67391075D01*
X121072254Y-67393520D01*
X121070828Y-67395952D01*
X121069384Y-67398370D01*
X121067922Y-67400776D01*
X121066443Y-67403168D01*
X121064945Y-67405546D01*
X121063430Y-67407911D01*
X121061896Y-67410262D01*
X121060344Y-67412600D01*
X121058773Y-67414924D01*
X121057183Y-67417233D01*
X121055575Y-67419529D01*
X121053949Y-67421810D01*
X121052303Y-67424077D01*
X121050638Y-67426330D01*
X121048954Y-67428568D01*
X121047250Y-67430792D01*
X121045528Y-67433000D01*
X121043785Y-67435194D01*
X121042023Y-67437373D01*
X121040241Y-67439537D01*
X121038440Y-67441686D01*
X121036618Y-67443820D01*
X121034776Y-67445938D01*
X121032914Y-67448041D01*
X121031032Y-67450128D01*
X121029129Y-67452200D01*
X121027205Y-67454256D01*
X121025261Y-67456295D01*
X121023296Y-67458319D01*
X121021310Y-67460327D01*
X121019303Y-67462319D01*
X121017274Y-67464294D01*
X121015224Y-67466253D01*
X121013153Y-67468196D01*
X121011061Y-67470122D01*
X121008946Y-67472031D01*
X121006810Y-67473923D01*
X121004652Y-67475798D01*
X121002472Y-67477657D01*
X121000270Y-67479498D01*
X120998045Y-67481322D01*
X120995798Y-67483129D01*
X120993529Y-67484918D01*
X120991237Y-67486690D01*
X120988922Y-67488444D01*
X120986584Y-67490180D01*
X120984223Y-67491898D01*
X120981840Y-67493599D01*
X120979433Y-67495281D01*
X120977002Y-67496945D01*
X120974549Y-67498591D01*
X120972071Y-67500218D01*
X120969570Y-67501827D01*
X120967045Y-67503418D01*
X120964497Y-67504989D01*
X120961924Y-67506542D01*
X120959327Y-67508076D01*
X120956705Y-67509591D01*
X120954060Y-67511087D01*
X120951390Y-67512564D01*
X120948695Y-67514021D01*
X120945975Y-67515459D01*
X120943231Y-67516877D01*
X120940461Y-67518275D01*
X120937666Y-67519654D01*
X120934847Y-67521013D01*
X120932001Y-67522352D01*
X120929131Y-67523671D01*
X120926234Y-67524970D01*
X120923312Y-67526249D01*
X120920365Y-67527507D01*
X120917391Y-67528744D01*
X120914391Y-67529961D01*
X120911365Y-67531158D01*
X120908313Y-67532333D01*
X120905234Y-67533488D01*
X120902129Y-67534622D01*
X120898997Y-67535734D01*
X120895838Y-67536826D01*
X120892652Y-67537896D01*
X120889440Y-67538944D01*
X120886200Y-67539971D01*
X120882933Y-67540976D01*
X120879639Y-67541960D01*
X120876317Y-67542922D01*
X120872967Y-67543862D01*
X120869590Y-67544780D01*
X120866185Y-67545675D01*
X120862752Y-67546549D01*
X120859291Y-67547399D01*
X120855802Y-67548228D01*
X120852284Y-67549034D01*
X120848738Y-67549817D01*
X120845164Y-67550578D01*
X120841560Y-67551315D01*
X120837928Y-67552030D01*
X120834267Y-67552721D01*
X120830577Y-67553389D01*
X120826858Y-67554034D01*
X120823110Y-67554656D01*
X120819332Y-67555254D01*
X120815524Y-67555828D01*
X120811687Y-67556379D01*
X120807821Y-67556905D01*
X120803924Y-67557408D01*
X120799998Y-67557887D01*
X120796041Y-67558342D01*
X120792054Y-67558772D01*
X120788037Y-67559178D01*
X122698355Y-64987504D02*
X122693593Y-64986697D01*
X122688875Y-64985876D01*
X122684203Y-64985044D01*
X122679575Y-64984199D01*
X122674993Y-64983342D01*
X122670454Y-64982473D01*
X122665960Y-64981593D01*
X122661508Y-64980700D01*
X122657102Y-64979796D01*
X122652737Y-64978880D01*
X122648417Y-64977954D01*
X122644137Y-64977015D01*
X122639902Y-64976066D01*
X122635708Y-64975106D01*
X122631556Y-64974135D01*
X122627445Y-64973153D01*
X122623377Y-64972161D01*
X122619349Y-64971158D01*
X122615362Y-64970145D01*
X122611415Y-64969121D01*
X122607510Y-64968088D01*
X122603643Y-64967044D01*
X122599817Y-64965991D01*
X122596030Y-64964927D01*
X122592283Y-64963854D01*
X122588574Y-64962772D01*
X122584904Y-64961680D01*
X122581273Y-64960578D01*
X122577680Y-64959468D01*
X122574125Y-64958348D01*
X122570608Y-64957220D01*
X122567128Y-64956082D01*
X122563685Y-64954936D01*
X122560279Y-64953781D01*
X122556911Y-64952618D01*
X122553578Y-64951445D01*
X122550282Y-64950265D01*
X122547022Y-64949076D01*
X122543797Y-64947880D01*
X122540608Y-64946675D01*
X122537455Y-64945462D01*
X122534336Y-64944241D01*
X122531252Y-64943013D01*
X122528203Y-64941777D01*
X122525187Y-64940533D01*
X122522206Y-64939281D01*
X122519259Y-64938023D01*
X122516345Y-64936757D01*
X122513465Y-64935484D01*
X122510617Y-64934203D01*
X122507803Y-64932916D01*
X122505021Y-64931621D01*
X122502271Y-64930320D01*
X122499554Y-64929012D01*
X122496869Y-64927697D01*
X122494215Y-64926376D01*
X122491593Y-64925048D01*
X122489002Y-64923713D01*
X122486442Y-64922372D01*
X122483913Y-64921025D01*
X122481414Y-64919672D01*
X122478946Y-64918312D01*
X122476508Y-64916946D01*
X122474100Y-64915575D01*
X122471721Y-64914196D01*
X122469373Y-64912813D01*
X122467053Y-64911423D01*
X122464763Y-64910028D01*
X122462500Y-64908627D01*
X122460268Y-64907221D01*
X122458063Y-64905808D01*
X122455887Y-64904391D01*
X122453738Y-64902967D01*
X122451618Y-64901539D01*
X122449525Y-64900104D01*
X122447460Y-64898665D01*
X122445421Y-64897220D01*
X122443411Y-64895771D01*
X122441425Y-64894315D01*
X122439469Y-64892855D01*
X122437537Y-64891389D01*
X122435633Y-64889920D01*
X122433753Y-64888444D01*
X122431901Y-64886965D01*
X122430072Y-64885479D01*
X122428272Y-64883990D01*
X122426494Y-64882494D01*
X122424744Y-64880996D01*
X122423017Y-64879490D01*
X122421317Y-64877982D01*
X122419639Y-64876467D01*
X122417988Y-64874950D01*
X122416359Y-64873426D01*
X122414757Y-64871900D01*
X122413176Y-64870366D01*
X122411621Y-64868831D01*
X122410088Y-64867289D01*
X122408581Y-64865744D01*
X122405633Y-64862640D01*
X122402779Y-64859517D01*
X122400015Y-64856377D01*
X122397341Y-64853220D01*
X122394757Y-64850045D01*
X122392260Y-64846853D01*
X122389851Y-64843643D01*
X122387527Y-64840416D01*
X122385289Y-64837173D01*
X122383135Y-64833912D01*
X122381065Y-64830634D01*
X122379077Y-64827339D01*
X122377171Y-64824027D01*
X122375347Y-64820698D01*
X122373604Y-64817352D01*
X122371941Y-64813990D01*
X122370358Y-64810610D01*
X122368854Y-64807213D01*
X122367430Y-64803800D01*
X122366084Y-64800370D01*
X122364816Y-64796924D01*
X122363626Y-64793461D01*
X122362514Y-64789982D01*
X122361480Y-64786487D01*
X122360524Y-64782977D01*
X122359645Y-64779452D01*
X122358843Y-64775912D01*
X122358119Y-64772358D01*
X122357473Y-64768791D01*
X122356904Y-64765212D01*
X122356413Y-64761621D01*
X122356000Y-64758020D01*
X122355665Y-64754411D01*
X122355408Y-64750794D01*
X122355228Y-64747172D01*
X122355127Y-64743548D01*
X122355104Y-64739924D01*
X122355159Y-64736302D01*
X122355291Y-64732688D01*
X122355500Y-64729085D01*
X122355786Y-64725500D01*
X122356147Y-64721938D01*
X122356582Y-64718407D01*
X122357089Y-64714918D01*
X122357664Y-64711482D01*
X122358305Y-64708115D01*
X122359004Y-64704838D01*
X122359753Y-64701677D01*
X122360540Y-64698670D01*
X122361343Y-64695876D01*
X122362125Y-64693390D01*
X122362810Y-64691402D01*
X122363155Y-64690483D01*
D11*
X155000000Y-56600000D02*
X155000000Y-57700000D01*
D10*
X122514270Y-64106769D02*
X122989820Y-62269862D01*
D13*
X125303125Y-64944405D02*
X125423775Y-66000489D01*
X124968004Y-66277111D01*
X124938238Y-65268731D01*
X123185480Y-64940357D01*
X123204798Y-64931883D01*
X123222894Y-64923309D01*
X123239765Y-64914723D01*
X123255408Y-64906216D01*
X123269818Y-64897876D01*
X123282993Y-64889793D01*
X123294930Y-64882055D01*
X123305624Y-64874754D01*
X123323272Y-64861813D01*
X123335911Y-64851685D01*
X123346055Y-64842726D01*
X123332085Y-64648337D01*
X125303125Y-64944405D01*
D11*
X163527580Y-58603884D02*
X164527580Y-58603884D01*
X164527580Y-58603884D02*
X164527580Y-58841979D01*
X164527580Y-58841979D02*
X164479961Y-58984836D01*
X164479961Y-58984836D02*
X164384723Y-59080074D01*
X164384723Y-59080074D02*
X164289485Y-59127693D01*
X164289485Y-59127693D02*
X164099009Y-59175312D01*
X164099009Y-59175312D02*
X163956152Y-59175312D01*
X163956152Y-59175312D02*
X163765676Y-59127693D01*
X163765676Y-59127693D02*
X163670438Y-59080074D01*
X163670438Y-59080074D02*
X163575200Y-58984836D01*
X163575200Y-58984836D02*
X163527580Y-58841979D01*
X163527580Y-58841979D02*
X163527580Y-58603884D01*
X163527580Y-60127693D02*
X163527580Y-59556265D01*
X163527580Y-59841979D02*
X164527580Y-59841979D01*
X164527580Y-59841979D02*
X164384723Y-59746741D01*
X164384723Y-59746741D02*
X164289485Y-59651503D01*
X164289485Y-59651503D02*
X164241866Y-59556265D01*
X164527580Y-60746741D02*
X164527580Y-60841979D01*
X164527580Y-60841979D02*
X164479961Y-60937217D01*
X164479961Y-60937217D02*
X164432342Y-60984836D01*
X164432342Y-60984836D02*
X164337104Y-61032455D01*
X164337104Y-61032455D02*
X164146628Y-61080074D01*
X164146628Y-61080074D02*
X163908533Y-61080074D01*
X163908533Y-61080074D02*
X163718057Y-61032455D01*
X163718057Y-61032455D02*
X163622819Y-60984836D01*
X163622819Y-60984836D02*
X163575200Y-60937217D01*
X163575200Y-60937217D02*
X163527580Y-60841979D01*
X163527580Y-60841979D02*
X163527580Y-60746741D01*
X163527580Y-60746741D02*
X163575200Y-60651503D01*
X163575200Y-60651503D02*
X163622819Y-60603884D01*
X163622819Y-60603884D02*
X163718057Y-60556265D01*
X163718057Y-60556265D02*
X163908533Y-60508646D01*
X163908533Y-60508646D02*
X164146628Y-60508646D01*
X164146628Y-60508646D02*
X164337104Y-60556265D01*
X164337104Y-60556265D02*
X164432342Y-60603884D01*
X164432342Y-60603884D02*
X164479961Y-60651503D01*
X164479961Y-60651503D02*
X164527580Y-60746741D01*
X176227580Y-58503884D02*
X177227580Y-58503884D01*
X177227580Y-58503884D02*
X177227580Y-58741979D01*
X177227580Y-58741979D02*
X177179961Y-58884836D01*
X177179961Y-58884836D02*
X177084723Y-58980074D01*
X177084723Y-58980074D02*
X176989485Y-59027693D01*
X176989485Y-59027693D02*
X176799009Y-59075312D01*
X176799009Y-59075312D02*
X176656152Y-59075312D01*
X176656152Y-59075312D02*
X176465676Y-59027693D01*
X176465676Y-59027693D02*
X176370438Y-58980074D01*
X176370438Y-58980074D02*
X176275200Y-58884836D01*
X176275200Y-58884836D02*
X176227580Y-58741979D01*
X176227580Y-58741979D02*
X176227580Y-58503884D01*
X177227580Y-59694360D02*
X177227580Y-59789598D01*
X177227580Y-59789598D02*
X177179961Y-59884836D01*
X177179961Y-59884836D02*
X177132342Y-59932455D01*
X177132342Y-59932455D02*
X177037104Y-59980074D01*
X177037104Y-59980074D02*
X176846628Y-60027693D01*
X176846628Y-60027693D02*
X176608533Y-60027693D01*
X176608533Y-60027693D02*
X176418057Y-59980074D01*
X176418057Y-59980074D02*
X176322819Y-59932455D01*
X176322819Y-59932455D02*
X176275200Y-59884836D01*
X176275200Y-59884836D02*
X176227580Y-59789598D01*
X176227580Y-59789598D02*
X176227580Y-59694360D01*
X176227580Y-59694360D02*
X176275200Y-59599122D01*
X176275200Y-59599122D02*
X176322819Y-59551503D01*
X176322819Y-59551503D02*
X176418057Y-59503884D01*
X176418057Y-59503884D02*
X176608533Y-59456265D01*
X176608533Y-59456265D02*
X176846628Y-59456265D01*
X176846628Y-59456265D02*
X177037104Y-59503884D01*
X177037104Y-59503884D02*
X177132342Y-59551503D01*
X177132342Y-59551503D02*
X177179961Y-59599122D01*
X177179961Y-59599122D02*
X177227580Y-59694360D01*
X177227580Y-60932455D02*
X177227580Y-60456265D01*
X177227580Y-60456265D02*
X176751390Y-60408646D01*
X176751390Y-60408646D02*
X176799009Y-60456265D01*
X176799009Y-60456265D02*
X176846628Y-60551503D01*
X176846628Y-60551503D02*
X176846628Y-60789598D01*
X176846628Y-60789598D02*
X176799009Y-60884836D01*
X176799009Y-60884836D02*
X176751390Y-60932455D01*
X176751390Y-60932455D02*
X176656152Y-60980074D01*
X176656152Y-60980074D02*
X176418057Y-60980074D01*
X176418057Y-60980074D02*
X176322819Y-60932455D01*
X176322819Y-60932455D02*
X176275200Y-60884836D01*
X176275200Y-60884836D02*
X176227580Y-60789598D01*
X176227580Y-60789598D02*
X176227580Y-60551503D01*
X176227580Y-60551503D02*
X176275200Y-60456265D01*
X176275200Y-60456265D02*
X176322819Y-60408646D01*
X157979961Y-59027693D02*
X158027580Y-58932455D01*
X158027580Y-58932455D02*
X158027580Y-58789598D01*
X158027580Y-58789598D02*
X157979961Y-58646741D01*
X157979961Y-58646741D02*
X157884723Y-58551503D01*
X157884723Y-58551503D02*
X157789485Y-58503884D01*
X157789485Y-58503884D02*
X157599009Y-58456265D01*
X157599009Y-58456265D02*
X157456152Y-58456265D01*
X157456152Y-58456265D02*
X157265676Y-58503884D01*
X157265676Y-58503884D02*
X157170438Y-58551503D01*
X157170438Y-58551503D02*
X157075200Y-58646741D01*
X157075200Y-58646741D02*
X157027580Y-58789598D01*
X157027580Y-58789598D02*
X157027580Y-58884836D01*
X157027580Y-58884836D02*
X157075200Y-59027693D01*
X157075200Y-59027693D02*
X157122819Y-59075312D01*
X157122819Y-59075312D02*
X157456152Y-59075312D01*
X157456152Y-59075312D02*
X157456152Y-58884836D01*
X157027580Y-59503884D02*
X158027580Y-59503884D01*
X158027580Y-59503884D02*
X157027580Y-60075312D01*
X157027580Y-60075312D02*
X158027580Y-60075312D01*
X157027580Y-60551503D02*
X158027580Y-60551503D01*
X158027580Y-60551503D02*
X158027580Y-60789598D01*
X158027580Y-60789598D02*
X157979961Y-60932455D01*
X157979961Y-60932455D02*
X157884723Y-61027693D01*
X157884723Y-61027693D02*
X157789485Y-61075312D01*
X157789485Y-61075312D02*
X157599009Y-61122931D01*
X157599009Y-61122931D02*
X157456152Y-61122931D01*
X157456152Y-61122931D02*
X157265676Y-61075312D01*
X157265676Y-61075312D02*
X157170438Y-61027693D01*
X157170438Y-61027693D02*
X157075200Y-60932455D01*
X157075200Y-60932455D02*
X157027580Y-60789598D01*
X157027580Y-60789598D02*
X157027580Y-60551503D01*
X162127580Y-58408646D02*
X162127580Y-59027693D01*
X162127580Y-59027693D02*
X161746628Y-58694360D01*
X161746628Y-58694360D02*
X161746628Y-58837217D01*
X161746628Y-58837217D02*
X161699009Y-58932455D01*
X161699009Y-58932455D02*
X161651390Y-58980074D01*
X161651390Y-58980074D02*
X161556152Y-59027693D01*
X161556152Y-59027693D02*
X161318057Y-59027693D01*
X161318057Y-59027693D02*
X161222819Y-58980074D01*
X161222819Y-58980074D02*
X161175200Y-58932455D01*
X161175200Y-58932455D02*
X161127580Y-58837217D01*
X161127580Y-58837217D02*
X161127580Y-58551503D01*
X161127580Y-58551503D02*
X161175200Y-58456265D01*
X161175200Y-58456265D02*
X161222819Y-58408646D01*
X161222819Y-59456265D02*
X161175200Y-59503884D01*
X161175200Y-59503884D02*
X161127580Y-59456265D01*
X161127580Y-59456265D02*
X161175200Y-59408646D01*
X161175200Y-59408646D02*
X161222819Y-59456265D01*
X161222819Y-59456265D02*
X161127580Y-59456265D01*
X162127580Y-59837217D02*
X162127580Y-60456264D01*
X162127580Y-60456264D02*
X161746628Y-60122931D01*
X161746628Y-60122931D02*
X161746628Y-60265788D01*
X161746628Y-60265788D02*
X161699009Y-60361026D01*
X161699009Y-60361026D02*
X161651390Y-60408645D01*
X161651390Y-60408645D02*
X161556152Y-60456264D01*
X161556152Y-60456264D02*
X161318057Y-60456264D01*
X161318057Y-60456264D02*
X161222819Y-60408645D01*
X161222819Y-60408645D02*
X161175200Y-60361026D01*
X161175200Y-60361026D02*
X161127580Y-60265788D01*
X161127580Y-60265788D02*
X161127580Y-59980074D01*
X161127580Y-59980074D02*
X161175200Y-59884836D01*
X161175200Y-59884836D02*
X161222819Y-59837217D01*
X162127580Y-60741979D02*
X161127580Y-61075312D01*
X161127580Y-61075312D02*
X162127580Y-61408645D01*
X168527580Y-58503884D02*
X169527580Y-58503884D01*
X169527580Y-58503884D02*
X169527580Y-58741979D01*
X169527580Y-58741979D02*
X169479961Y-58884836D01*
X169479961Y-58884836D02*
X169384723Y-58980074D01*
X169384723Y-58980074D02*
X169289485Y-59027693D01*
X169289485Y-59027693D02*
X169099009Y-59075312D01*
X169099009Y-59075312D02*
X168956152Y-59075312D01*
X168956152Y-59075312D02*
X168765676Y-59027693D01*
X168765676Y-59027693D02*
X168670438Y-58980074D01*
X168670438Y-58980074D02*
X168575200Y-58884836D01*
X168575200Y-58884836D02*
X168527580Y-58741979D01*
X168527580Y-58741979D02*
X168527580Y-58503884D01*
X169527580Y-59694360D02*
X169527580Y-59789598D01*
X169527580Y-59789598D02*
X169479961Y-59884836D01*
X169479961Y-59884836D02*
X169432342Y-59932455D01*
X169432342Y-59932455D02*
X169337104Y-59980074D01*
X169337104Y-59980074D02*
X169146628Y-60027693D01*
X169146628Y-60027693D02*
X168908533Y-60027693D01*
X168908533Y-60027693D02*
X168718057Y-59980074D01*
X168718057Y-59980074D02*
X168622819Y-59932455D01*
X168622819Y-59932455D02*
X168575200Y-59884836D01*
X168575200Y-59884836D02*
X168527580Y-59789598D01*
X168527580Y-59789598D02*
X168527580Y-59694360D01*
X168527580Y-59694360D02*
X168575200Y-59599122D01*
X168575200Y-59599122D02*
X168622819Y-59551503D01*
X168622819Y-59551503D02*
X168718057Y-59503884D01*
X168718057Y-59503884D02*
X168908533Y-59456265D01*
X168908533Y-59456265D02*
X169146628Y-59456265D01*
X169146628Y-59456265D02*
X169337104Y-59503884D01*
X169337104Y-59503884D02*
X169432342Y-59551503D01*
X169432342Y-59551503D02*
X169479961Y-59599122D01*
X169479961Y-59599122D02*
X169527580Y-59694360D01*
X169099009Y-60599122D02*
X169146628Y-60503884D01*
X169146628Y-60503884D02*
X169194247Y-60456265D01*
X169194247Y-60456265D02*
X169289485Y-60408646D01*
X169289485Y-60408646D02*
X169337104Y-60408646D01*
X169337104Y-60408646D02*
X169432342Y-60456265D01*
X169432342Y-60456265D02*
X169479961Y-60503884D01*
X169479961Y-60503884D02*
X169527580Y-60599122D01*
X169527580Y-60599122D02*
X169527580Y-60789598D01*
X169527580Y-60789598D02*
X169479961Y-60884836D01*
X169479961Y-60884836D02*
X169432342Y-60932455D01*
X169432342Y-60932455D02*
X169337104Y-60980074D01*
X169337104Y-60980074D02*
X169289485Y-60980074D01*
X169289485Y-60980074D02*
X169194247Y-60932455D01*
X169194247Y-60932455D02*
X169146628Y-60884836D01*
X169146628Y-60884836D02*
X169099009Y-60789598D01*
X169099009Y-60789598D02*
X169099009Y-60599122D01*
X169099009Y-60599122D02*
X169051390Y-60503884D01*
X169051390Y-60503884D02*
X169003771Y-60456265D01*
X169003771Y-60456265D02*
X168908533Y-60408646D01*
X168908533Y-60408646D02*
X168718057Y-60408646D01*
X168718057Y-60408646D02*
X168622819Y-60456265D01*
X168622819Y-60456265D02*
X168575200Y-60503884D01*
X168575200Y-60503884D02*
X168527580Y-60599122D01*
X168527580Y-60599122D02*
X168527580Y-60789598D01*
X168527580Y-60789598D02*
X168575200Y-60884836D01*
X168575200Y-60884836D02*
X168622819Y-60932455D01*
X168622819Y-60932455D02*
X168718057Y-60980074D01*
X168718057Y-60980074D02*
X168908533Y-60980074D01*
X168908533Y-60980074D02*
X169003771Y-60932455D01*
X169003771Y-60932455D02*
X169051390Y-60884836D01*
X169051390Y-60884836D02*
X169099009Y-60789598D01*
X173627580Y-58503884D02*
X174627580Y-58503884D01*
X174627580Y-58503884D02*
X174627580Y-58741979D01*
X174627580Y-58741979D02*
X174579961Y-58884836D01*
X174579961Y-58884836D02*
X174484723Y-58980074D01*
X174484723Y-58980074D02*
X174389485Y-59027693D01*
X174389485Y-59027693D02*
X174199009Y-59075312D01*
X174199009Y-59075312D02*
X174056152Y-59075312D01*
X174056152Y-59075312D02*
X173865676Y-59027693D01*
X173865676Y-59027693D02*
X173770438Y-58980074D01*
X173770438Y-58980074D02*
X173675200Y-58884836D01*
X173675200Y-58884836D02*
X173627580Y-58741979D01*
X173627580Y-58741979D02*
X173627580Y-58503884D01*
X174627580Y-59694360D02*
X174627580Y-59789598D01*
X174627580Y-59789598D02*
X174579961Y-59884836D01*
X174579961Y-59884836D02*
X174532342Y-59932455D01*
X174532342Y-59932455D02*
X174437104Y-59980074D01*
X174437104Y-59980074D02*
X174246628Y-60027693D01*
X174246628Y-60027693D02*
X174008533Y-60027693D01*
X174008533Y-60027693D02*
X173818057Y-59980074D01*
X173818057Y-59980074D02*
X173722819Y-59932455D01*
X173722819Y-59932455D02*
X173675200Y-59884836D01*
X173675200Y-59884836D02*
X173627580Y-59789598D01*
X173627580Y-59789598D02*
X173627580Y-59694360D01*
X173627580Y-59694360D02*
X173675200Y-59599122D01*
X173675200Y-59599122D02*
X173722819Y-59551503D01*
X173722819Y-59551503D02*
X173818057Y-59503884D01*
X173818057Y-59503884D02*
X174008533Y-59456265D01*
X174008533Y-59456265D02*
X174246628Y-59456265D01*
X174246628Y-59456265D02*
X174437104Y-59503884D01*
X174437104Y-59503884D02*
X174532342Y-59551503D01*
X174532342Y-59551503D02*
X174579961Y-59599122D01*
X174579961Y-59599122D02*
X174627580Y-59694360D01*
X174627580Y-60361027D02*
X174627580Y-60980074D01*
X174627580Y-60980074D02*
X174246628Y-60646741D01*
X174246628Y-60646741D02*
X174246628Y-60789598D01*
X174246628Y-60789598D02*
X174199009Y-60884836D01*
X174199009Y-60884836D02*
X174151390Y-60932455D01*
X174151390Y-60932455D02*
X174056152Y-60980074D01*
X174056152Y-60980074D02*
X173818057Y-60980074D01*
X173818057Y-60980074D02*
X173722819Y-60932455D01*
X173722819Y-60932455D02*
X173675200Y-60884836D01*
X173675200Y-60884836D02*
X173627580Y-60789598D01*
X173627580Y-60789598D02*
X173627580Y-60503884D01*
X173627580Y-60503884D02*
X173675200Y-60408646D01*
X173675200Y-60408646D02*
X173722819Y-60361027D01*
X166027580Y-58503884D02*
X167027580Y-58503884D01*
X167027580Y-58503884D02*
X167027580Y-58741979D01*
X167027580Y-58741979D02*
X166979961Y-58884836D01*
X166979961Y-58884836D02*
X166884723Y-58980074D01*
X166884723Y-58980074D02*
X166789485Y-59027693D01*
X166789485Y-59027693D02*
X166599009Y-59075312D01*
X166599009Y-59075312D02*
X166456152Y-59075312D01*
X166456152Y-59075312D02*
X166265676Y-59027693D01*
X166265676Y-59027693D02*
X166170438Y-58980074D01*
X166170438Y-58980074D02*
X166075200Y-58884836D01*
X166075200Y-58884836D02*
X166027580Y-58741979D01*
X166027580Y-58741979D02*
X166027580Y-58503884D01*
X167027580Y-59694360D02*
X167027580Y-59789598D01*
X167027580Y-59789598D02*
X166979961Y-59884836D01*
X166979961Y-59884836D02*
X166932342Y-59932455D01*
X166932342Y-59932455D02*
X166837104Y-59980074D01*
X166837104Y-59980074D02*
X166646628Y-60027693D01*
X166646628Y-60027693D02*
X166408533Y-60027693D01*
X166408533Y-60027693D02*
X166218057Y-59980074D01*
X166218057Y-59980074D02*
X166122819Y-59932455D01*
X166122819Y-59932455D02*
X166075200Y-59884836D01*
X166075200Y-59884836D02*
X166027580Y-59789598D01*
X166027580Y-59789598D02*
X166027580Y-59694360D01*
X166027580Y-59694360D02*
X166075200Y-59599122D01*
X166075200Y-59599122D02*
X166122819Y-59551503D01*
X166122819Y-59551503D02*
X166218057Y-59503884D01*
X166218057Y-59503884D02*
X166408533Y-59456265D01*
X166408533Y-59456265D02*
X166646628Y-59456265D01*
X166646628Y-59456265D02*
X166837104Y-59503884D01*
X166837104Y-59503884D02*
X166932342Y-59551503D01*
X166932342Y-59551503D02*
X166979961Y-59599122D01*
X166979961Y-59599122D02*
X167027580Y-59694360D01*
X166027580Y-60503884D02*
X166027580Y-60694360D01*
X166027580Y-60694360D02*
X166075200Y-60789598D01*
X166075200Y-60789598D02*
X166122819Y-60837217D01*
X166122819Y-60837217D02*
X166265676Y-60932455D01*
X166265676Y-60932455D02*
X166456152Y-60980074D01*
X166456152Y-60980074D02*
X166837104Y-60980074D01*
X166837104Y-60980074D02*
X166932342Y-60932455D01*
X166932342Y-60932455D02*
X166979961Y-60884836D01*
X166979961Y-60884836D02*
X167027580Y-60789598D01*
X167027580Y-60789598D02*
X167027580Y-60599122D01*
X167027580Y-60599122D02*
X166979961Y-60503884D01*
X166979961Y-60503884D02*
X166932342Y-60456265D01*
X166932342Y-60456265D02*
X166837104Y-60408646D01*
X166837104Y-60408646D02*
X166599009Y-60408646D01*
X166599009Y-60408646D02*
X166503771Y-60456265D01*
X166503771Y-60456265D02*
X166456152Y-60503884D01*
X166456152Y-60503884D02*
X166408533Y-60599122D01*
X166408533Y-60599122D02*
X166408533Y-60789598D01*
X166408533Y-60789598D02*
X166456152Y-60884836D01*
X166456152Y-60884836D02*
X166503771Y-60932455D01*
X166503771Y-60932455D02*
X166599009Y-60980074D01*
X171127580Y-58503884D02*
X172127580Y-58503884D01*
X172127580Y-58503884D02*
X172127580Y-58741979D01*
X172127580Y-58741979D02*
X172079961Y-58884836D01*
X172079961Y-58884836D02*
X171984723Y-58980074D01*
X171984723Y-58980074D02*
X171889485Y-59027693D01*
X171889485Y-59027693D02*
X171699009Y-59075312D01*
X171699009Y-59075312D02*
X171556152Y-59075312D01*
X171556152Y-59075312D02*
X171365676Y-59027693D01*
X171365676Y-59027693D02*
X171270438Y-58980074D01*
X171270438Y-58980074D02*
X171175200Y-58884836D01*
X171175200Y-58884836D02*
X171127580Y-58741979D01*
X171127580Y-58741979D02*
X171127580Y-58503884D01*
X172127580Y-59694360D02*
X172127580Y-59789598D01*
X172127580Y-59789598D02*
X172079961Y-59884836D01*
X172079961Y-59884836D02*
X172032342Y-59932455D01*
X172032342Y-59932455D02*
X171937104Y-59980074D01*
X171937104Y-59980074D02*
X171746628Y-60027693D01*
X171746628Y-60027693D02*
X171508533Y-60027693D01*
X171508533Y-60027693D02*
X171318057Y-59980074D01*
X171318057Y-59980074D02*
X171222819Y-59932455D01*
X171222819Y-59932455D02*
X171175200Y-59884836D01*
X171175200Y-59884836D02*
X171127580Y-59789598D01*
X171127580Y-59789598D02*
X171127580Y-59694360D01*
X171127580Y-59694360D02*
X171175200Y-59599122D01*
X171175200Y-59599122D02*
X171222819Y-59551503D01*
X171222819Y-59551503D02*
X171318057Y-59503884D01*
X171318057Y-59503884D02*
X171508533Y-59456265D01*
X171508533Y-59456265D02*
X171746628Y-59456265D01*
X171746628Y-59456265D02*
X171937104Y-59503884D01*
X171937104Y-59503884D02*
X172032342Y-59551503D01*
X172032342Y-59551503D02*
X172079961Y-59599122D01*
X172079961Y-59599122D02*
X172127580Y-59694360D01*
X172127580Y-60361027D02*
X172127580Y-61027693D01*
X172127580Y-61027693D02*
X171127580Y-60599122D01*
X178827580Y-58503884D02*
X179827580Y-58503884D01*
X179827580Y-58503884D02*
X179827580Y-58741979D01*
X179827580Y-58741979D02*
X179779961Y-58884836D01*
X179779961Y-58884836D02*
X179684723Y-58980074D01*
X179684723Y-58980074D02*
X179589485Y-59027693D01*
X179589485Y-59027693D02*
X179399009Y-59075312D01*
X179399009Y-59075312D02*
X179256152Y-59075312D01*
X179256152Y-59075312D02*
X179065676Y-59027693D01*
X179065676Y-59027693D02*
X178970438Y-58980074D01*
X178970438Y-58980074D02*
X178875200Y-58884836D01*
X178875200Y-58884836D02*
X178827580Y-58741979D01*
X178827580Y-58741979D02*
X178827580Y-58503884D01*
X179827580Y-59694360D02*
X179827580Y-59789598D01*
X179827580Y-59789598D02*
X179779961Y-59884836D01*
X179779961Y-59884836D02*
X179732342Y-59932455D01*
X179732342Y-59932455D02*
X179637104Y-59980074D01*
X179637104Y-59980074D02*
X179446628Y-60027693D01*
X179446628Y-60027693D02*
X179208533Y-60027693D01*
X179208533Y-60027693D02*
X179018057Y-59980074D01*
X179018057Y-59980074D02*
X178922819Y-59932455D01*
X178922819Y-59932455D02*
X178875200Y-59884836D01*
X178875200Y-59884836D02*
X178827580Y-59789598D01*
X178827580Y-59789598D02*
X178827580Y-59694360D01*
X178827580Y-59694360D02*
X178875200Y-59599122D01*
X178875200Y-59599122D02*
X178922819Y-59551503D01*
X178922819Y-59551503D02*
X179018057Y-59503884D01*
X179018057Y-59503884D02*
X179208533Y-59456265D01*
X179208533Y-59456265D02*
X179446628Y-59456265D01*
X179446628Y-59456265D02*
X179637104Y-59503884D01*
X179637104Y-59503884D02*
X179732342Y-59551503D01*
X179732342Y-59551503D02*
X179779961Y-59599122D01*
X179779961Y-59599122D02*
X179827580Y-59694360D01*
X179827580Y-60884836D02*
X179827580Y-60694360D01*
X179827580Y-60694360D02*
X179779961Y-60599122D01*
X179779961Y-60599122D02*
X179732342Y-60551503D01*
X179732342Y-60551503D02*
X179589485Y-60456265D01*
X179589485Y-60456265D02*
X179399009Y-60408646D01*
X179399009Y-60408646D02*
X179018057Y-60408646D01*
X179018057Y-60408646D02*
X178922819Y-60456265D01*
X178922819Y-60456265D02*
X178875200Y-60503884D01*
X178875200Y-60503884D02*
X178827580Y-60599122D01*
X178827580Y-60599122D02*
X178827580Y-60789598D01*
X178827580Y-60789598D02*
X178875200Y-60884836D01*
X178875200Y-60884836D02*
X178922819Y-60932455D01*
X178922819Y-60932455D02*
X179018057Y-60980074D01*
X179018057Y-60980074D02*
X179256152Y-60980074D01*
X179256152Y-60980074D02*
X179351390Y-60932455D01*
X179351390Y-60932455D02*
X179399009Y-60884836D01*
X179399009Y-60884836D02*
X179446628Y-60789598D01*
X179446628Y-60789598D02*
X179446628Y-60599122D01*
X179446628Y-60599122D02*
X179399009Y-60503884D01*
X179399009Y-60503884D02*
X179351390Y-60456265D01*
X179351390Y-60456265D02*
X179256152Y-60408646D01*
D14*
X139238095Y-70954819D02*
X139238095Y-71764342D01*
X139238095Y-71764342D02*
X139285714Y-71859580D01*
X139285714Y-71859580D02*
X139333333Y-71907200D01*
X139333333Y-71907200D02*
X139428571Y-71954819D01*
X139428571Y-71954819D02*
X139619047Y-71954819D01*
X139619047Y-71954819D02*
X139714285Y-71907200D01*
X139714285Y-71907200D02*
X139761904Y-71859580D01*
X139761904Y-71859580D02*
X139809523Y-71764342D01*
X139809523Y-71764342D02*
X139809523Y-70954819D01*
X140809523Y-71954819D02*
X140238095Y-71954819D01*
X140523809Y-71954819D02*
X140523809Y-70954819D01*
X140523809Y-70954819D02*
X140428571Y-71097676D01*
X140428571Y-71097676D02*
X140333333Y-71192914D01*
X140333333Y-71192914D02*
X140238095Y-71240533D01*
X103822667Y-59335200D02*
X103965524Y-59382819D01*
X103965524Y-59382819D02*
X104203619Y-59382819D01*
X104203619Y-59382819D02*
X104298857Y-59335200D01*
X104298857Y-59335200D02*
X104346476Y-59287580D01*
X104346476Y-59287580D02*
X104394095Y-59192342D01*
X104394095Y-59192342D02*
X104394095Y-59097104D01*
X104394095Y-59097104D02*
X104346476Y-59001866D01*
X104346476Y-59001866D02*
X104298857Y-58954247D01*
X104298857Y-58954247D02*
X104203619Y-58906628D01*
X104203619Y-58906628D02*
X104013143Y-58859009D01*
X104013143Y-58859009D02*
X103917905Y-58811390D01*
X103917905Y-58811390D02*
X103870286Y-58763771D01*
X103870286Y-58763771D02*
X103822667Y-58668533D01*
X103822667Y-58668533D02*
X103822667Y-58573295D01*
X103822667Y-58573295D02*
X103870286Y-58478057D01*
X103870286Y-58478057D02*
X103917905Y-58430438D01*
X103917905Y-58430438D02*
X104013143Y-58382819D01*
X104013143Y-58382819D02*
X104251238Y-58382819D01*
X104251238Y-58382819D02*
X104394095Y-58430438D01*
X104727429Y-58382819D02*
X104965524Y-59382819D01*
X104965524Y-59382819D02*
X105156000Y-58668533D01*
X105156000Y-58668533D02*
X105346476Y-59382819D01*
X105346476Y-59382819D02*
X105584572Y-58382819D01*
X106489333Y-59382819D02*
X105917905Y-59382819D01*
X106203619Y-59382819D02*
X106203619Y-58382819D01*
X106203619Y-58382819D02*
X106108381Y-58525676D01*
X106108381Y-58525676D02*
X106013143Y-58620914D01*
X106013143Y-58620914D02*
X105917905Y-58668533D01*
X152954819Y-56833333D02*
X153669104Y-56833333D01*
X153669104Y-56833333D02*
X153811961Y-56880952D01*
X153811961Y-56880952D02*
X153907200Y-56976190D01*
X153907200Y-56976190D02*
X153954819Y-57119047D01*
X153954819Y-57119047D02*
X153954819Y-57214285D01*
X153954819Y-55833333D02*
X153954819Y-56404761D01*
X153954819Y-56119047D02*
X152954819Y-56119047D01*
X152954819Y-56119047D02*
X153097676Y-56214285D01*
X153097676Y-56214285D02*
X153192914Y-56309523D01*
X153192914Y-56309523D02*
X153240533Y-56404761D01*
X177990667Y-66955200D02*
X178133524Y-67002819D01*
X178133524Y-67002819D02*
X178371619Y-67002819D01*
X178371619Y-67002819D02*
X178466857Y-66955200D01*
X178466857Y-66955200D02*
X178514476Y-66907580D01*
X178514476Y-66907580D02*
X178562095Y-66812342D01*
X178562095Y-66812342D02*
X178562095Y-66717104D01*
X178562095Y-66717104D02*
X178514476Y-66621866D01*
X178514476Y-66621866D02*
X178466857Y-66574247D01*
X178466857Y-66574247D02*
X178371619Y-66526628D01*
X178371619Y-66526628D02*
X178181143Y-66479009D01*
X178181143Y-66479009D02*
X178085905Y-66431390D01*
X178085905Y-66431390D02*
X178038286Y-66383771D01*
X178038286Y-66383771D02*
X177990667Y-66288533D01*
X177990667Y-66288533D02*
X177990667Y-66193295D01*
X177990667Y-66193295D02*
X178038286Y-66098057D01*
X178038286Y-66098057D02*
X178085905Y-66050438D01*
X178085905Y-66050438D02*
X178181143Y-66002819D01*
X178181143Y-66002819D02*
X178419238Y-66002819D01*
X178419238Y-66002819D02*
X178562095Y-66050438D01*
X178895429Y-66002819D02*
X179133524Y-67002819D01*
X179133524Y-67002819D02*
X179324000Y-66288533D01*
X179324000Y-66288533D02*
X179514476Y-67002819D01*
X179514476Y-67002819D02*
X179752572Y-66002819D01*
X180562095Y-66336152D02*
X180562095Y-67002819D01*
X180324000Y-65955200D02*
X180085905Y-66669485D01*
X180085905Y-66669485D02*
X180704952Y-66669485D01*
X161734667Y-66955200D02*
X161877524Y-67002819D01*
X161877524Y-67002819D02*
X162115619Y-67002819D01*
X162115619Y-67002819D02*
X162210857Y-66955200D01*
X162210857Y-66955200D02*
X162258476Y-66907580D01*
X162258476Y-66907580D02*
X162306095Y-66812342D01*
X162306095Y-66812342D02*
X162306095Y-66717104D01*
X162306095Y-66717104D02*
X162258476Y-66621866D01*
X162258476Y-66621866D02*
X162210857Y-66574247D01*
X162210857Y-66574247D02*
X162115619Y-66526628D01*
X162115619Y-66526628D02*
X161925143Y-66479009D01*
X161925143Y-66479009D02*
X161829905Y-66431390D01*
X161829905Y-66431390D02*
X161782286Y-66383771D01*
X161782286Y-66383771D02*
X161734667Y-66288533D01*
X161734667Y-66288533D02*
X161734667Y-66193295D01*
X161734667Y-66193295D02*
X161782286Y-66098057D01*
X161782286Y-66098057D02*
X161829905Y-66050438D01*
X161829905Y-66050438D02*
X161925143Y-66002819D01*
X161925143Y-66002819D02*
X162163238Y-66002819D01*
X162163238Y-66002819D02*
X162306095Y-66050438D01*
X162639429Y-66002819D02*
X162877524Y-67002819D01*
X162877524Y-67002819D02*
X163068000Y-66288533D01*
X163068000Y-66288533D02*
X163258476Y-67002819D01*
X163258476Y-67002819D02*
X163496572Y-66002819D01*
X163782286Y-66002819D02*
X164401333Y-66002819D01*
X164401333Y-66002819D02*
X164068000Y-66383771D01*
X164068000Y-66383771D02*
X164210857Y-66383771D01*
X164210857Y-66383771D02*
X164306095Y-66431390D01*
X164306095Y-66431390D02*
X164353714Y-66479009D01*
X164353714Y-66479009D02*
X164401333Y-66574247D01*
X164401333Y-66574247D02*
X164401333Y-66812342D01*
X164401333Y-66812342D02*
X164353714Y-66907580D01*
X164353714Y-66907580D02*
X164306095Y-66955200D01*
X164306095Y-66955200D02*
X164210857Y-67002819D01*
X164210857Y-67002819D02*
X163925143Y-67002819D01*
X163925143Y-67002819D02*
X163829905Y-66955200D01*
X163829905Y-66955200D02*
X163782286Y-66907580D01*
X103666667Y-74321200D02*
X103809524Y-74368819D01*
X103809524Y-74368819D02*
X104047619Y-74368819D01*
X104047619Y-74368819D02*
X104142857Y-74321200D01*
X104142857Y-74321200D02*
X104190476Y-74273580D01*
X104190476Y-74273580D02*
X104238095Y-74178342D01*
X104238095Y-74178342D02*
X104238095Y-74083104D01*
X104238095Y-74083104D02*
X104190476Y-73987866D01*
X104190476Y-73987866D02*
X104142857Y-73940247D01*
X104142857Y-73940247D02*
X104047619Y-73892628D01*
X104047619Y-73892628D02*
X103857143Y-73845009D01*
X103857143Y-73845009D02*
X103761905Y-73797390D01*
X103761905Y-73797390D02*
X103714286Y-73749771D01*
X103714286Y-73749771D02*
X103666667Y-73654533D01*
X103666667Y-73654533D02*
X103666667Y-73559295D01*
X103666667Y-73559295D02*
X103714286Y-73464057D01*
X103714286Y-73464057D02*
X103761905Y-73416438D01*
X103761905Y-73416438D02*
X103857143Y-73368819D01*
X103857143Y-73368819D02*
X104095238Y-73368819D01*
X104095238Y-73368819D02*
X104238095Y-73416438D01*
X104571429Y-73368819D02*
X104809524Y-74368819D01*
X104809524Y-74368819D02*
X105000000Y-73654533D01*
X105000000Y-73654533D02*
X105190476Y-74368819D01*
X105190476Y-74368819D02*
X105428572Y-73368819D01*
X105761905Y-73464057D02*
X105809524Y-73416438D01*
X105809524Y-73416438D02*
X105904762Y-73368819D01*
X105904762Y-73368819D02*
X106142857Y-73368819D01*
X106142857Y-73368819D02*
X106238095Y-73416438D01*
X106238095Y-73416438D02*
X106285714Y-73464057D01*
X106285714Y-73464057D02*
X106333333Y-73559295D01*
X106333333Y-73559295D02*
X106333333Y-73654533D01*
X106333333Y-73654533D02*
X106285714Y-73797390D01*
X106285714Y-73797390D02*
X105714286Y-74368819D01*
X105714286Y-74368819D02*
X106333333Y-74368819D01*
D15*
%TO.C,U1*%
X133300000Y-75500000D02*
X146700000Y-75500000D01*
X131187108Y-55995320D02*
G75*
G02*
X133399532Y-54500001I2135279J-774913D01*
G01*
X133300000Y-75500000D02*
G75*
G02*
X131200000Y-74000000I74105J2323747D01*
G01*
X146600000Y-54500001D02*
G75*
G02*
X148804030Y-55998538I64720J-2274909D01*
G01*
X148800000Y-74000000D02*
G75*
G02*
X146700000Y-75500003I-2174110J823750D01*
G01*
%TO.C,SW1*%
X101500000Y-58178000D02*
X101500000Y-59678000D01*
X102750000Y-62178000D02*
X107250000Y-62178000D01*
X107250000Y-55678000D02*
X102750000Y-55678000D01*
X108500000Y-59678000D02*
X108500000Y-58178000D01*
%TO.C,SW4*%
X176000000Y-65750000D02*
X176000000Y-67250000D01*
X177250000Y-69750000D02*
X181750000Y-69750000D01*
X181750000Y-63250000D02*
X177250000Y-63250000D01*
X183000000Y-67250000D02*
X183000000Y-65750000D01*
%TO.C,SW3*%
X159500000Y-65750000D02*
X159500000Y-67250000D01*
X160750000Y-69750000D02*
X165250000Y-69750000D01*
X165250000Y-63250000D02*
X160750000Y-63250000D01*
X166500000Y-67250000D02*
X166500000Y-65750000D01*
%TO.C,SW2*%
X101500000Y-73250000D02*
X101500000Y-74750000D01*
X102750000Y-77250000D02*
X107250000Y-77250000D01*
X107250000Y-70750000D02*
X102750000Y-70750000D01*
X108500000Y-74750000D02*
X108500000Y-73250000D01*
%TD*%
M02*
