%TF.GenerationSoftware,KiCad,Pcbnew,9.0.1*%
%TF.CreationDate,2025-07-14T13:59:50-05:00*%
%TF.ProjectId,Cardbot Controller,43617264-626f-4742-9043-6f6e74726f6c,rev?*%
%TF.SameCoordinates,Original*%
%TF.FileFunction,Legend,Bot*%
%TF.FilePolarity,Positive*%
%FSLAX46Y46*%
G04 Gerber Fmt 4.6, Leading zero omitted, Abs format (unit mm)*
G04 Created by KiCad (PCBNEW 9.0.1) date 2025-07-14 13:59:50*
%MOMM*%
%LPD*%
G01*
G04 APERTURE LIST*
%ADD10C,0.125000*%
G04 APERTURE END LIST*
D10*
X156508240Y-77475880D02*
X156555859Y-77523500D01*
X156555859Y-77523500D02*
X156698716Y-77571119D01*
X156698716Y-77571119D02*
X156793954Y-77571119D01*
X156793954Y-77571119D02*
X156936811Y-77523500D01*
X156936811Y-77523500D02*
X157032049Y-77428261D01*
X157032049Y-77428261D02*
X157079668Y-77333023D01*
X157079668Y-77333023D02*
X157127287Y-77142547D01*
X157127287Y-77142547D02*
X157127287Y-76999690D01*
X157127287Y-76999690D02*
X157079668Y-76809214D01*
X157079668Y-76809214D02*
X157032049Y-76713976D01*
X157032049Y-76713976D02*
X156936811Y-76618738D01*
X156936811Y-76618738D02*
X156793954Y-76571119D01*
X156793954Y-76571119D02*
X156698716Y-76571119D01*
X156698716Y-76571119D02*
X156555859Y-76618738D01*
X156555859Y-76618738D02*
X156508240Y-76666357D01*
X155651097Y-77571119D02*
X155651097Y-77047309D01*
X155651097Y-77047309D02*
X155698716Y-76952071D01*
X155698716Y-76952071D02*
X155793954Y-76904452D01*
X155793954Y-76904452D02*
X155984430Y-76904452D01*
X155984430Y-76904452D02*
X156079668Y-76952071D01*
X155651097Y-77523500D02*
X155746335Y-77571119D01*
X155746335Y-77571119D02*
X155984430Y-77571119D01*
X155984430Y-77571119D02*
X156079668Y-77523500D01*
X156079668Y-77523500D02*
X156127287Y-77428261D01*
X156127287Y-77428261D02*
X156127287Y-77333023D01*
X156127287Y-77333023D02*
X156079668Y-77237785D01*
X156079668Y-77237785D02*
X155984430Y-77190166D01*
X155984430Y-77190166D02*
X155746335Y-77190166D01*
X155746335Y-77190166D02*
X155651097Y-77142547D01*
X155174906Y-77571119D02*
X155174906Y-76904452D01*
X155174906Y-77094928D02*
X155127287Y-76999690D01*
X155127287Y-76999690D02*
X155079668Y-76952071D01*
X155079668Y-76952071D02*
X154984430Y-76904452D01*
X154984430Y-76904452D02*
X154889192Y-76904452D01*
X154127287Y-77571119D02*
X154127287Y-76571119D01*
X154127287Y-77523500D02*
X154222525Y-77571119D01*
X154222525Y-77571119D02*
X154413001Y-77571119D01*
X154413001Y-77571119D02*
X154508239Y-77523500D01*
X154508239Y-77523500D02*
X154555858Y-77475880D01*
X154555858Y-77475880D02*
X154603477Y-77380642D01*
X154603477Y-77380642D02*
X154603477Y-77094928D01*
X154603477Y-77094928D02*
X154555858Y-76999690D01*
X154555858Y-76999690D02*
X154508239Y-76952071D01*
X154508239Y-76952071D02*
X154413001Y-76904452D01*
X154413001Y-76904452D02*
X154222525Y-76904452D01*
X154222525Y-76904452D02*
X154127287Y-76952071D01*
X153651096Y-77571119D02*
X153651096Y-76571119D01*
X153651096Y-76952071D02*
X153555858Y-76904452D01*
X153555858Y-76904452D02*
X153365382Y-76904452D01*
X153365382Y-76904452D02*
X153270144Y-76952071D01*
X153270144Y-76952071D02*
X153222525Y-76999690D01*
X153222525Y-76999690D02*
X153174906Y-77094928D01*
X153174906Y-77094928D02*
X153174906Y-77380642D01*
X153174906Y-77380642D02*
X153222525Y-77475880D01*
X153222525Y-77475880D02*
X153270144Y-77523500D01*
X153270144Y-77523500D02*
X153365382Y-77571119D01*
X153365382Y-77571119D02*
X153555858Y-77571119D01*
X153555858Y-77571119D02*
X153651096Y-77523500D01*
X152603477Y-77571119D02*
X152698715Y-77523500D01*
X152698715Y-77523500D02*
X152746334Y-77475880D01*
X152746334Y-77475880D02*
X152793953Y-77380642D01*
X152793953Y-77380642D02*
X152793953Y-77094928D01*
X152793953Y-77094928D02*
X152746334Y-76999690D01*
X152746334Y-76999690D02*
X152698715Y-76952071D01*
X152698715Y-76952071D02*
X152603477Y-76904452D01*
X152603477Y-76904452D02*
X152460620Y-76904452D01*
X152460620Y-76904452D02*
X152365382Y-76952071D01*
X152365382Y-76952071D02*
X152317763Y-76999690D01*
X152317763Y-76999690D02*
X152270144Y-77094928D01*
X152270144Y-77094928D02*
X152270144Y-77380642D01*
X152270144Y-77380642D02*
X152317763Y-77475880D01*
X152317763Y-77475880D02*
X152365382Y-77523500D01*
X152365382Y-77523500D02*
X152460620Y-77571119D01*
X152460620Y-77571119D02*
X152603477Y-77571119D01*
X151984429Y-76904452D02*
X151603477Y-76904452D01*
X151841572Y-76571119D02*
X151841572Y-77428261D01*
X151841572Y-77428261D02*
X151793953Y-77523500D01*
X151793953Y-77523500D02*
X151698715Y-77571119D01*
X151698715Y-77571119D02*
X151603477Y-77571119D01*
X149936810Y-77475880D02*
X149984429Y-77523500D01*
X149984429Y-77523500D02*
X150127286Y-77571119D01*
X150127286Y-77571119D02*
X150222524Y-77571119D01*
X150222524Y-77571119D02*
X150365381Y-77523500D01*
X150365381Y-77523500D02*
X150460619Y-77428261D01*
X150460619Y-77428261D02*
X150508238Y-77333023D01*
X150508238Y-77333023D02*
X150555857Y-77142547D01*
X150555857Y-77142547D02*
X150555857Y-76999690D01*
X150555857Y-76999690D02*
X150508238Y-76809214D01*
X150508238Y-76809214D02*
X150460619Y-76713976D01*
X150460619Y-76713976D02*
X150365381Y-76618738D01*
X150365381Y-76618738D02*
X150222524Y-76571119D01*
X150222524Y-76571119D02*
X150127286Y-76571119D01*
X150127286Y-76571119D02*
X149984429Y-76618738D01*
X149984429Y-76618738D02*
X149936810Y-76666357D01*
X149365381Y-77571119D02*
X149460619Y-77523500D01*
X149460619Y-77523500D02*
X149508238Y-77475880D01*
X149508238Y-77475880D02*
X149555857Y-77380642D01*
X149555857Y-77380642D02*
X149555857Y-77094928D01*
X149555857Y-77094928D02*
X149508238Y-76999690D01*
X149508238Y-76999690D02*
X149460619Y-76952071D01*
X149460619Y-76952071D02*
X149365381Y-76904452D01*
X149365381Y-76904452D02*
X149222524Y-76904452D01*
X149222524Y-76904452D02*
X149127286Y-76952071D01*
X149127286Y-76952071D02*
X149079667Y-76999690D01*
X149079667Y-76999690D02*
X149032048Y-77094928D01*
X149032048Y-77094928D02*
X149032048Y-77380642D01*
X149032048Y-77380642D02*
X149079667Y-77475880D01*
X149079667Y-77475880D02*
X149127286Y-77523500D01*
X149127286Y-77523500D02*
X149222524Y-77571119D01*
X149222524Y-77571119D02*
X149365381Y-77571119D01*
X148603476Y-76904452D02*
X148603476Y-77571119D01*
X148603476Y-76999690D02*
X148555857Y-76952071D01*
X148555857Y-76952071D02*
X148460619Y-76904452D01*
X148460619Y-76904452D02*
X148317762Y-76904452D01*
X148317762Y-76904452D02*
X148222524Y-76952071D01*
X148222524Y-76952071D02*
X148174905Y-77047309D01*
X148174905Y-77047309D02*
X148174905Y-77571119D01*
X147841571Y-76904452D02*
X147460619Y-76904452D01*
X147698714Y-76571119D02*
X147698714Y-77428261D01*
X147698714Y-77428261D02*
X147651095Y-77523500D01*
X147651095Y-77523500D02*
X147555857Y-77571119D01*
X147555857Y-77571119D02*
X147460619Y-77571119D01*
X147127285Y-77571119D02*
X147127285Y-76904452D01*
X147127285Y-77094928D02*
X147079666Y-76999690D01*
X147079666Y-76999690D02*
X147032047Y-76952071D01*
X147032047Y-76952071D02*
X146936809Y-76904452D01*
X146936809Y-76904452D02*
X146841571Y-76904452D01*
X146365380Y-77571119D02*
X146460618Y-77523500D01*
X146460618Y-77523500D02*
X146508237Y-77475880D01*
X146508237Y-77475880D02*
X146555856Y-77380642D01*
X146555856Y-77380642D02*
X146555856Y-77094928D01*
X146555856Y-77094928D02*
X146508237Y-76999690D01*
X146508237Y-76999690D02*
X146460618Y-76952071D01*
X146460618Y-76952071D02*
X146365380Y-76904452D01*
X146365380Y-76904452D02*
X146222523Y-76904452D01*
X146222523Y-76904452D02*
X146127285Y-76952071D01*
X146127285Y-76952071D02*
X146079666Y-76999690D01*
X146079666Y-76999690D02*
X146032047Y-77094928D01*
X146032047Y-77094928D02*
X146032047Y-77380642D01*
X146032047Y-77380642D02*
X146079666Y-77475880D01*
X146079666Y-77475880D02*
X146127285Y-77523500D01*
X146127285Y-77523500D02*
X146222523Y-77571119D01*
X146222523Y-77571119D02*
X146365380Y-77571119D01*
X145460618Y-77571119D02*
X145555856Y-77523500D01*
X145555856Y-77523500D02*
X145603475Y-77428261D01*
X145603475Y-77428261D02*
X145603475Y-76571119D01*
X144936808Y-77571119D02*
X145032046Y-77523500D01*
X145032046Y-77523500D02*
X145079665Y-77428261D01*
X145079665Y-77428261D02*
X145079665Y-76571119D01*
X144174903Y-77523500D02*
X144270141Y-77571119D01*
X144270141Y-77571119D02*
X144460617Y-77571119D01*
X144460617Y-77571119D02*
X144555855Y-77523500D01*
X144555855Y-77523500D02*
X144603474Y-77428261D01*
X144603474Y-77428261D02*
X144603474Y-77047309D01*
X144603474Y-77047309D02*
X144555855Y-76952071D01*
X144555855Y-76952071D02*
X144460617Y-76904452D01*
X144460617Y-76904452D02*
X144270141Y-76904452D01*
X144270141Y-76904452D02*
X144174903Y-76952071D01*
X144174903Y-76952071D02*
X144127284Y-77047309D01*
X144127284Y-77047309D02*
X144127284Y-77142547D01*
X144127284Y-77142547D02*
X144603474Y-77237785D01*
X143698712Y-77571119D02*
X143698712Y-76904452D01*
X143698712Y-77094928D02*
X143651093Y-76999690D01*
X143651093Y-76999690D02*
X143603474Y-76952071D01*
X143603474Y-76952071D02*
X143508236Y-76904452D01*
X143508236Y-76904452D02*
X143412998Y-76904452D01*
X142412997Y-76904452D02*
X142174902Y-77571119D01*
X142174902Y-77571119D02*
X141936807Y-76904452D01*
X141032045Y-77571119D02*
X141603473Y-77571119D01*
X141317759Y-77571119D02*
X141317759Y-76571119D01*
X141317759Y-76571119D02*
X141412997Y-76713976D01*
X141412997Y-76713976D02*
X141508235Y-76809214D01*
X141508235Y-76809214D02*
X141603473Y-76856833D01*
X140603473Y-77475880D02*
X140555854Y-77523500D01*
X140555854Y-77523500D02*
X140603473Y-77571119D01*
X140603473Y-77571119D02*
X140651092Y-77523500D01*
X140651092Y-77523500D02*
X140603473Y-77475880D01*
X140603473Y-77475880D02*
X140603473Y-77571119D01*
X139936807Y-76571119D02*
X139841569Y-76571119D01*
X139841569Y-76571119D02*
X139746331Y-76618738D01*
X139746331Y-76618738D02*
X139698712Y-76666357D01*
X139698712Y-76666357D02*
X139651093Y-76761595D01*
X139651093Y-76761595D02*
X139603474Y-76952071D01*
X139603474Y-76952071D02*
X139603474Y-77190166D01*
X139603474Y-77190166D02*
X139651093Y-77380642D01*
X139651093Y-77380642D02*
X139698712Y-77475880D01*
X139698712Y-77475880D02*
X139746331Y-77523500D01*
X139746331Y-77523500D02*
X139841569Y-77571119D01*
X139841569Y-77571119D02*
X139936807Y-77571119D01*
X139936807Y-77571119D02*
X140032045Y-77523500D01*
X140032045Y-77523500D02*
X140079664Y-77475880D01*
X140079664Y-77475880D02*
X140127283Y-77380642D01*
X140127283Y-77380642D02*
X140174902Y-77190166D01*
X140174902Y-77190166D02*
X140174902Y-76952071D01*
X140174902Y-76952071D02*
X140127283Y-76761595D01*
X140127283Y-76761595D02*
X140079664Y-76666357D01*
X140079664Y-76666357D02*
X140032045Y-76618738D01*
X140032045Y-76618738D02*
X139936807Y-76571119D01*
X138412997Y-77190166D02*
X137651093Y-77190166D01*
X135603473Y-76809214D02*
X135698712Y-76761595D01*
X135698712Y-76761595D02*
X135889188Y-76761595D01*
X135889188Y-76761595D02*
X135984426Y-76809214D01*
X135984426Y-76809214D02*
X136079664Y-76904452D01*
X136079664Y-76904452D02*
X136127283Y-76999690D01*
X136127283Y-76999690D02*
X136127283Y-77190166D01*
X136127283Y-77190166D02*
X136079664Y-77285404D01*
X136079664Y-77285404D02*
X135984426Y-77380642D01*
X135984426Y-77380642D02*
X135889188Y-77428261D01*
X135889188Y-77428261D02*
X135698712Y-77428261D01*
X135698712Y-77428261D02*
X135603473Y-77380642D01*
X135793950Y-76428261D02*
X136032045Y-76475880D01*
X136032045Y-76475880D02*
X136270140Y-76618738D01*
X136270140Y-76618738D02*
X136412997Y-76856833D01*
X136412997Y-76856833D02*
X136460616Y-77094928D01*
X136460616Y-77094928D02*
X136412997Y-77333023D01*
X136412997Y-77333023D02*
X136270140Y-77571119D01*
X136270140Y-77571119D02*
X136032045Y-77713976D01*
X136032045Y-77713976D02*
X135793950Y-77761595D01*
X135793950Y-77761595D02*
X135555854Y-77713976D01*
X135555854Y-77713976D02*
X135317759Y-77571119D01*
X135317759Y-77571119D02*
X135174902Y-77333023D01*
X135174902Y-77333023D02*
X135127283Y-77094928D01*
X135127283Y-77094928D02*
X135174902Y-76856833D01*
X135174902Y-76856833D02*
X135317759Y-76618738D01*
X135317759Y-76618738D02*
X135555854Y-76475880D01*
X135555854Y-76475880D02*
X135793950Y-76428261D01*
X133936806Y-77571119D02*
X133936806Y-76571119D01*
X133936806Y-76571119D02*
X133603473Y-77285404D01*
X133603473Y-77285404D02*
X133270140Y-76571119D01*
X133270140Y-76571119D02*
X133270140Y-77571119D01*
X132841568Y-77285404D02*
X132365378Y-77285404D01*
X132936806Y-77571119D02*
X132603473Y-76571119D01*
X132603473Y-76571119D02*
X132270140Y-77571119D01*
X131936806Y-77571119D02*
X131936806Y-76571119D01*
X131365378Y-77571119D02*
X131793949Y-76999690D01*
X131365378Y-76571119D02*
X131936806Y-77142547D01*
X130365378Y-77571119D02*
X130698711Y-77094928D01*
X130936806Y-77571119D02*
X130936806Y-76571119D01*
X130936806Y-76571119D02*
X130555854Y-76571119D01*
X130555854Y-76571119D02*
X130460616Y-76618738D01*
X130460616Y-76618738D02*
X130412997Y-76666357D01*
X130412997Y-76666357D02*
X130365378Y-76761595D01*
X130365378Y-76761595D02*
X130365378Y-76904452D01*
X130365378Y-76904452D02*
X130412997Y-76999690D01*
X130412997Y-76999690D02*
X130460616Y-77047309D01*
X130460616Y-77047309D02*
X130555854Y-77094928D01*
X130555854Y-77094928D02*
X130936806Y-77094928D01*
X128651092Y-76618738D02*
X128746330Y-76571119D01*
X128746330Y-76571119D02*
X128889187Y-76571119D01*
X128889187Y-76571119D02*
X129032044Y-76618738D01*
X129032044Y-76618738D02*
X129127282Y-76713976D01*
X129127282Y-76713976D02*
X129174901Y-76809214D01*
X129174901Y-76809214D02*
X129222520Y-76999690D01*
X129222520Y-76999690D02*
X129222520Y-77142547D01*
X129222520Y-77142547D02*
X129174901Y-77333023D01*
X129174901Y-77333023D02*
X129127282Y-77428261D01*
X129127282Y-77428261D02*
X129032044Y-77523500D01*
X129032044Y-77523500D02*
X128889187Y-77571119D01*
X128889187Y-77571119D02*
X128793949Y-77571119D01*
X128793949Y-77571119D02*
X128651092Y-77523500D01*
X128651092Y-77523500D02*
X128603473Y-77475880D01*
X128603473Y-77475880D02*
X128603473Y-77142547D01*
X128603473Y-77142547D02*
X128793949Y-77142547D01*
X128174901Y-77571119D02*
X128174901Y-76904452D01*
X128174901Y-77094928D02*
X128127282Y-76999690D01*
X128127282Y-76999690D02*
X128079663Y-76952071D01*
X128079663Y-76952071D02*
X127984425Y-76904452D01*
X127984425Y-76904452D02*
X127889187Y-76904452D01*
X127412996Y-77571119D02*
X127508234Y-77523500D01*
X127508234Y-77523500D02*
X127555853Y-77475880D01*
X127555853Y-77475880D02*
X127603472Y-77380642D01*
X127603472Y-77380642D02*
X127603472Y-77094928D01*
X127603472Y-77094928D02*
X127555853Y-76999690D01*
X127555853Y-76999690D02*
X127508234Y-76952071D01*
X127508234Y-76952071D02*
X127412996Y-76904452D01*
X127412996Y-76904452D02*
X127270139Y-76904452D01*
X127270139Y-76904452D02*
X127174901Y-76952071D01*
X127174901Y-76952071D02*
X127127282Y-76999690D01*
X127127282Y-76999690D02*
X127079663Y-77094928D01*
X127079663Y-77094928D02*
X127079663Y-77380642D01*
X127079663Y-77380642D02*
X127127282Y-77475880D01*
X127127282Y-77475880D02*
X127174901Y-77523500D01*
X127174901Y-77523500D02*
X127270139Y-77571119D01*
X127270139Y-77571119D02*
X127412996Y-77571119D01*
X126222520Y-76904452D02*
X126222520Y-77571119D01*
X126651091Y-76904452D02*
X126651091Y-77428261D01*
X126651091Y-77428261D02*
X126603472Y-77523500D01*
X126603472Y-77523500D02*
X126508234Y-77571119D01*
X126508234Y-77571119D02*
X126365377Y-77571119D01*
X126365377Y-77571119D02*
X126270139Y-77523500D01*
X126270139Y-77523500D02*
X126222520Y-77475880D01*
X125746329Y-76904452D02*
X125746329Y-77904452D01*
X125746329Y-76952071D02*
X125651091Y-76904452D01*
X125651091Y-76904452D02*
X125460615Y-76904452D01*
X125460615Y-76904452D02*
X125365377Y-76952071D01*
X125365377Y-76952071D02*
X125317758Y-76999690D01*
X125317758Y-76999690D02*
X125270139Y-77094928D01*
X125270139Y-77094928D02*
X125270139Y-77380642D01*
X125270139Y-77380642D02*
X125317758Y-77475880D01*
X125317758Y-77475880D02*
X125365377Y-77523500D01*
X125365377Y-77523500D02*
X125460615Y-77571119D01*
X125460615Y-77571119D02*
X125651091Y-77571119D01*
X125651091Y-77571119D02*
X125746329Y-77523500D01*
X124127281Y-76666357D02*
X124079662Y-76618738D01*
X124079662Y-76618738D02*
X123984424Y-76571119D01*
X123984424Y-76571119D02*
X123746329Y-76571119D01*
X123746329Y-76571119D02*
X123651091Y-76618738D01*
X123651091Y-76618738D02*
X123603472Y-76666357D01*
X123603472Y-76666357D02*
X123555853Y-76761595D01*
X123555853Y-76761595D02*
X123555853Y-76856833D01*
X123555853Y-76856833D02*
X123603472Y-76999690D01*
X123603472Y-76999690D02*
X124174900Y-77571119D01*
X124174900Y-77571119D02*
X123555853Y-77571119D01*
X122936805Y-76571119D02*
X122841567Y-76571119D01*
X122841567Y-76571119D02*
X122746329Y-76618738D01*
X122746329Y-76618738D02*
X122698710Y-76666357D01*
X122698710Y-76666357D02*
X122651091Y-76761595D01*
X122651091Y-76761595D02*
X122603472Y-76952071D01*
X122603472Y-76952071D02*
X122603472Y-77190166D01*
X122603472Y-77190166D02*
X122651091Y-77380642D01*
X122651091Y-77380642D02*
X122698710Y-77475880D01*
X122698710Y-77475880D02*
X122746329Y-77523500D01*
X122746329Y-77523500D02*
X122841567Y-77571119D01*
X122841567Y-77571119D02*
X122936805Y-77571119D01*
X122936805Y-77571119D02*
X123032043Y-77523500D01*
X123032043Y-77523500D02*
X123079662Y-77475880D01*
X123079662Y-77475880D02*
X123127281Y-77380642D01*
X123127281Y-77380642D02*
X123174900Y-77190166D01*
X123174900Y-77190166D02*
X123174900Y-76952071D01*
X123174900Y-76952071D02*
X123127281Y-76761595D01*
X123127281Y-76761595D02*
X123079662Y-76666357D01*
X123079662Y-76666357D02*
X123032043Y-76618738D01*
X123032043Y-76618738D02*
X122936805Y-76571119D01*
X122222519Y-76666357D02*
X122174900Y-76618738D01*
X122174900Y-76618738D02*
X122079662Y-76571119D01*
X122079662Y-76571119D02*
X121841567Y-76571119D01*
X121841567Y-76571119D02*
X121746329Y-76618738D01*
X121746329Y-76618738D02*
X121698710Y-76666357D01*
X121698710Y-76666357D02*
X121651091Y-76761595D01*
X121651091Y-76761595D02*
X121651091Y-76856833D01*
X121651091Y-76856833D02*
X121698710Y-76999690D01*
X121698710Y-76999690D02*
X122270138Y-77571119D01*
X122270138Y-77571119D02*
X121651091Y-77571119D01*
X120746329Y-76571119D02*
X121222519Y-76571119D01*
X121222519Y-76571119D02*
X121270138Y-77047309D01*
X121270138Y-77047309D02*
X121222519Y-76999690D01*
X121222519Y-76999690D02*
X121127281Y-76952071D01*
X121127281Y-76952071D02*
X120889186Y-76952071D01*
X120889186Y-76952071D02*
X120793948Y-76999690D01*
X120793948Y-76999690D02*
X120746329Y-77047309D01*
X120746329Y-77047309D02*
X120698710Y-77142547D01*
X120698710Y-77142547D02*
X120698710Y-77380642D01*
X120698710Y-77380642D02*
X120746329Y-77475880D01*
X120746329Y-77475880D02*
X120793948Y-77523500D01*
X120793948Y-77523500D02*
X120889186Y-77571119D01*
X120889186Y-77571119D02*
X121127281Y-77571119D01*
X121127281Y-77571119D02*
X121222519Y-77523500D01*
X121222519Y-77523500D02*
X121270138Y-77475880D01*
M02*
